<?xml version="1.0" encoding="UTF-8" standalone="no"?>
<!-- Generator: Adobe Illustrator 16.0.0, SVG Export Plug-In . SVG Version: 6.00 Build 0)  -->

<svg
   xmlns:dc="http://purl.org/dc/elements/1.1/"
   xmlns:cc="http://creativecommons.org/ns#"
   xmlns:rdf="http://www.w3.org/1999/02/22-rdf-syntax-ns#"
   xmlns:svg="http://www.w3.org/2000/svg"
   xmlns="http://www.w3.org/2000/svg"
   xmlns:sodipodi="http://sodipodi.sourceforge.net/DTD/sodipodi-0.dtd"
   xmlns:inkscape="http://www.inkscape.org/namespaces/inkscape"
   version="1.1"
   id="Capa_1"
   x="0px"
   y="0px"
   width="602.98914"
   height="59.391701"
   viewBox="0 0 602.98912 59.391699"
   xml:space="preserve"
   inkscape:version="0.91 r"
   sodipodi:docname="github.svg"><metadata
     id="metadata4175"><rdf:RDF><cc:Work
         rdf:about=""><dc:format>image/svg+xml</dc:format><dc:type
           rdf:resource="http://purl.org/dc/dcmitype/StillImage" /><dc:title /></cc:Work></rdf:RDF></metadata><defs
     id="defs4173" /><sodipodi:namedview
     pagecolor="#ffffff"
     bordercolor="#666666"
     borderopacity="1"
     objecttolerance="10"
     gridtolerance="10"
     guidetolerance="10"
     inkscape:pageopacity="0"
     inkscape:pageshadow="2"
     inkscape:window-width="1920"
     inkscape:window-height="1021"
     id="namedview4171"
     showgrid="false"
     fit-margin-top="0"
     fit-margin-left="0"
     fit-margin-right="0"
     fit-margin-bottom="0"
     inkscape:zoom="0.96454442"
     inkscape:cx="328.10006"
     inkscape:cy="-8.4071389"
     inkscape:window-x="0"
     inkscape:window-y="0"
     inkscape:window-maximized="1"
     inkscape:current-layer="Capa_1" /><g
     id="g4137"
     transform="matrix(0.13882453,0,0,0.13882453,0,-0.7447936)"><path
       d="M 409.132,114.573 C 389.524,80.977 362.927,54.379 329.334,34.773 295.736,15.166 259.057,5.365 219.271,5.365 c -39.781,0 -76.472,9.804 -110.063,29.408 -33.596,19.605 -60.192,46.204 -79.8,79.8 C 9.803,148.168 0,184.854 0,224.63 c 0,47.78 13.94,90.745 41.827,128.906 27.884,38.164 63.906,64.572 108.063,79.227 5.14,0.954 8.945,0.283 11.419,-1.996 2.475,-2.282 3.711,-5.14 3.711,-8.562 0,-0.571 -0.049,-5.708 -0.144,-15.417 -0.098,-9.709 -0.144,-18.179 -0.144,-25.406 l -6.567,1.136 c -4.187,0.767 -9.469,1.092 -15.846,1 -6.374,-0.089 -12.991,-0.757 -19.842,-1.999 -6.854,-1.231 -13.229,-4.086 -19.13,-8.559 -5.898,-4.473 -10.085,-10.328 -12.56,-17.556 l -2.855,-6.57 c -1.903,-4.374 -4.899,-9.233 -8.992,-14.559 -4.093,-5.331 -8.232,-8.945 -12.419,-10.848 l -1.999,-1.431 c -1.332,-0.951 -2.568,-2.098 -3.711,-3.429 -1.142,-1.331 -1.997,-2.663 -2.568,-3.997 -0.572,-1.335 -0.098,-2.43 1.427,-3.289 1.525,-0.859 4.281,-1.276 8.28,-1.276 l 5.708,0.853 c 3.807,0.763 8.516,3.042 14.133,6.851 5.614,3.806 10.229,8.754 13.846,14.842 4.38,7.806 9.657,13.754 15.846,17.847 6.184,4.093 12.419,6.136 18.699,6.136 6.28,0 11.704,-0.476 16.274,-1.423 4.565,-0.952 8.848,-2.383 12.847,-4.285 1.713,-12.758 6.377,-22.559 13.988,-29.41 -10.848,-1.14 -20.601,-2.857 -29.264,-5.14 -8.658,-2.286 -17.605,-5.996 -26.835,-11.14 -9.235,-5.137 -16.896,-11.516 -22.985,-19.126 -6.09,-7.614 -11.088,-17.61 -14.987,-29.979 -3.901,-12.374 -5.852,-26.648 -5.852,-42.826 0,-23.035 7.52,-42.637 22.557,-58.817 -7.044,-17.318 -6.379,-36.732 1.997,-58.24 5.52,-1.715 13.706,-0.428 24.554,3.853 10.85,4.283 18.794,7.952 23.84,10.994 5.046,3.041 9.089,5.618 12.135,7.708 17.705,-4.947 35.976,-7.421 54.818,-7.421 18.842,0 37.117,2.474 54.823,7.421 l 10.849,-6.849 c 7.419,-4.57 16.18,-8.758 26.262,-12.565 10.088,-3.805 17.802,-4.853 23.134,-3.138 8.562,21.509 9.325,40.922 2.279,58.24 15.036,16.18 22.559,35.787 22.559,58.817 0,16.178 -1.958,30.497 -5.853,42.966 -3.9,12.471 -8.941,22.457 -15.125,29.979 -6.191,7.521 -13.901,13.85 -23.131,18.986 -9.232,5.14 -18.182,8.85 -26.84,11.136 -8.662,2.286 -18.415,4.004 -29.263,5.146 9.894,8.562 14.842,22.077 14.842,40.539 l 0,60.237 c 0,3.422 1.19,6.279 3.572,8.562 2.379,2.279 6.136,2.95 11.276,1.995 44.163,-14.653 80.185,-41.062 108.068,-79.226 27.88,-38.161 41.825,-81.126 41.825,-128.906 -0.01,-39.771 -9.818,-76.454 -29.414,-110.049 z"
       id="path4139"
       inkscape:connector-curvature="0" /></g><g
     id="g4141"
     transform="translate(-430.39736,-206.16653)" /><g
     id="g4143"
     transform="translate(-430.39736,-206.16653)" /><g
     id="g4145"
     transform="translate(-430.39736,-206.16653)" /><g
     id="g4147"
     transform="translate(-430.39736,-206.16653)" /><g
     id="g4149"
     transform="translate(-430.39736,-206.16653)" /><g
     id="g4151"
     transform="translate(-430.39736,-206.16653)" /><g
     id="g4153"
     transform="translate(-430.39736,-206.16653)" /><g
     id="g4155"
     transform="translate(-430.39736,-206.16653)" /><g
     id="g4157"
     transform="translate(-430.39736,-206.16653)" /><g
     id="g4159"
     transform="translate(-430.39736,-206.16653)" /><g
     id="g4161"
     transform="translate(-430.39736,-206.16653)" /><g
     id="g4163"
     transform="translate(-430.39736,-206.16653)" /><g
     id="g4165"
     transform="translate(-430.39736,-206.16653)" /><g
     id="g4167"
     transform="translate(-430.39736,-206.16653)" /><g
     id="g4169"
     transform="translate(-430.39736,-206.16653)" /><g
     style="font-style:normal;font-weight:normal;font-size:40px;line-height:125%;font-family:sans-serif;letter-spacing:0px;word-spacing:0px;fill:#000000;fill-opacity:1;stroke:none;stroke-width:1px;stroke-linecap:butt;stroke-linejoin:miter;stroke-opacity:1"
     id="text4177"><path
       d="m 77.403175,14.532211 3.320313,0 -10.15625,32.871094 -3.320313,0 10.15625,-32.871094 z"
       style=""
       id="path4160" /><path
       d="m 101.56333,26.016586 q 1.34766,-2.421875 3.22266,-3.574218 1.875,-1.152344 4.41406,-1.152344 3.41797,0 5.27344,2.402344 1.85547,2.382812 1.85547,6.796875 l 0,13.203125 -3.61328,0 0,-13.085938 q 0,-3.144531 -1.11329,-4.667969 -1.11328,-1.523437 -3.39843,-1.523437 -2.79297,0 -4.41407,1.855469 -1.62109,1.855468 -1.62109,5.058593 l 0,12.363282 -3.613281,0 0,-13.085938 q 0,-3.164062 -1.113281,-4.667969 -1.113281,-1.523437 -3.4375,-1.523437 -2.753906,0 -4.375,1.875 -1.621094,1.855469 -1.621094,5.039062 l 0,12.363282 -3.613281,0 0,-21.875 3.613281,0 0,3.398437 q 1.230469,-2.011719 2.949219,-2.96875 1.71875,-0.957031 4.082031,-0.957031 2.382813,0 4.042969,1.210937 1.679687,1.210938 2.480467,3.515625 z"
       style=""
       id="path4162" /><path
       d="m 139.25864,22.657211 0,3.359375 q -1.52343,-0.839843 -3.0664,-1.25 -1.52344,-0.429687 -3.08594,-0.429687 -3.49609,0 -5.42969,2.226562 -1.93359,2.207032 -1.93359,6.210938 0,4.003906 1.93359,6.230469 1.9336,2.207031 5.42969,2.207031 1.5625,0 3.08594,-0.410156 1.54297,-0.429688 3.0664,-1.269532 l 0,3.320313 q -1.5039,0.703125 -3.125,1.054687 -1.60156,0.351563 -3.41796,0.351563 -4.94141,0 -7.85157,-3.105469 -2.91015,-3.105469 -2.91015,-8.378906 0,-5.351563 2.92968,-8.417969 2.94922,-3.066406 8.06641,-3.066406 1.66016,0 3.24219,0.351562 1.58203,0.332032 3.0664,1.015625 z"
       style=""
       id="path4164" /><path
       d="m 145.54771,21.817368 3.59375,0 0,22.265625 q 0,4.179687 -1.60157,6.054687 -1.58203,1.875 -5.11718,1.875 l -1.36719,0 0,-3.046875 0.95703,0 q 2.05078,0 2.79297,-0.957031 0.74219,-0.9375 0.74219,-3.925781 l 0,-22.265625 z m 0,-8.515625 3.59375,0 0,4.550781 -3.59375,0 0,-4.550781 z"
       style=""
       id="path4166" /><path
       d="m 165.11802,24.336899 q -2.89063,0 -4.57031,2.265625 -1.67969,2.246094 -1.67969,6.171875 0,3.925781 1.66016,6.191406 1.67968,2.246094 4.58984,2.246094 2.87109,0 4.55078,-2.265625 1.67969,-2.265625 1.67969,-6.171875 0,-3.886719 -1.67969,-6.152344 -1.67969,-2.285156 -4.55078,-2.285156 z m 0,-3.046875 q 4.6875,0 7.36328,3.046875 2.67578,3.046875 2.67578,8.4375 0,5.371094 -2.67578,8.4375 -2.67578,3.046875 -7.36328,3.046875 -4.70703,0 -7.38281,-3.046875 -2.65625,-3.066406 -2.65625,-8.4375 0,-5.390625 2.65625,-8.4375 2.67578,-3.046875 7.38281,-3.046875 z"
       style=""
       id="path4168" /><path
       d="m 199.27818,30.489243 0,13.203125 -3.59375,0 0,-13.085938 q 0,-3.105469 -1.21094,-4.648437 -1.21094,-1.542969 -3.63281,-1.542969 -2.91016,0 -4.58985,1.855469 -1.67969,1.855468 -1.67969,5.058593 l 0,12.363282 -3.61328,0 0,-30.390625 3.61328,0 0,11.914062 q 1.28907,-1.972656 3.02735,-2.949219 1.75781,-0.976562 4.04297,-0.976562 3.76953,0 5.70312,2.34375 1.9336,2.324219 1.9336,6.855469 z"
       style=""
       id="path4170" /><path
       d="m 224.6688,30.489243 0,13.203125 -3.59375,0 0,-13.085938 q 0,-3.105469 -1.21094,-4.648437 -1.21093,-1.542969 -3.63281,-1.542969 -2.91016,0 -4.58984,1.855469 -1.67969,1.855468 -1.67969,5.058593 l 0,12.363282 -3.61328,0 0,-21.875 3.61328,0 0,3.398437 q 1.28906,-1.972656 3.02734,-2.949219 1.75782,-0.976562 4.04297,-0.976562 3.76953,0 5.70313,2.34375 1.93359,2.324219 1.93359,6.855469 z"
       style=""
       id="path4172" /><path
       d="m 241.81724,32.696274 q -4.35547,0 -6.03516,0.996094 -1.67969,0.996093 -1.67969,3.398437 0,1.914063 1.25,3.046875 1.26954,1.113281 3.4375,1.113281 2.98829,0 4.78516,-2.109375 1.81641,-2.128906 1.81641,-5.644531 l 0,-0.800781 -3.57422,0 z m 7.16797,-1.484375 0,12.480469 -3.59375,0 0,-3.320313 q -1.23047,1.992188 -3.06641,2.949219 -1.83594,0.9375 -4.49219,0.9375 -3.35937,0 -5.35156,-1.875 -1.97266,-1.894531 -1.97266,-5.058594 0,-3.691406 2.46094,-5.566406 2.48047,-1.875 7.38281,-1.875 l 5.03907,0 0,-0.351563 q 0,-2.480468 -1.64063,-3.828125 -1.62109,-1.367187 -4.57031,-1.367187 -1.875,0 -3.65234,0.449219 -1.77735,0.449218 -3.41797,1.347656 l 0,-3.320313 q 1.97265,-0.761718 3.82812,-1.132812 1.85547,-0.390625 3.61328,-0.390625 4.7461,0 7.08985,2.460937 2.34375,2.460938 2.34375,7.460938 z"
       style=""
       id="path4174" /><path
       d="m 256.40708,13.301743 3.59375,0 0,30.390625 -3.59375,0 0,-30.390625 z"
       style=""
       id="path4176" /><path
       d="m 281.89536,25.13768 0,-11.835937 3.59375,0 0,30.390625 -3.59375,0 0,-3.28125 q -1.13281,1.953125 -2.87109,2.910156 -1.71875,0.9375 -4.14063,0.9375 -3.96484,0 -6.46484,-3.164063 -2.48047,-3.164062 -2.48047,-8.320312 0,-5.15625 2.48047,-8.320313 2.5,-3.164062 6.46484,-3.164062 2.42188,0 4.14063,0.957031 1.73828,0.9375 2.87109,2.890625 z m -12.24609,7.636719 q 0,3.964844 1.62109,6.230469 1.64063,2.246093 4.49219,2.246093 2.85156,0 4.49219,-2.246093 1.64062,-2.265625 1.64062,-6.230469 0,-3.964844 -1.64062,-6.210938 -1.64063,-2.265625 -4.49219,-2.265625 -2.85156,0 -4.49219,2.265625 -1.62109,2.246094 -1.62109,6.210938 z"
       style=""
       id="path4178" /><path
       d="m 306.83677,22.461899 0,3.398437 q -1.52344,-0.78125 -3.16406,-1.171875 -1.64063,-0.390625 -3.39844,-0.390625 -2.67578,0 -4.02344,0.820313 -1.32812,0.820312 -1.32812,2.460937 0,1.25 0.95703,1.972657 0.95703,0.703125 3.84765,1.347656 l 1.23047,0.273437 q 3.82813,0.820313 5.42969,2.324219 1.62109,1.484375 1.62109,4.160156 0,3.046875 -2.42187,4.824219 -2.40234,1.777344 -6.62109,1.777344 -1.75782,0 -3.67188,-0.351563 -1.89453,-0.332031 -4.00391,-1.015625 l 0,-3.710937 q 1.99219,1.035156 3.92579,1.5625 1.93359,0.507812 3.82812,0.507812 2.53906,0 3.90625,-0.859375 1.36719,-0.878906 1.36719,-2.460937 0,-1.464844 -0.9961,-2.246094 -0.97656,-0.78125 -4.3164,-1.503906 l -1.25,-0.292969 q -3.33985,-0.703125 -4.82422,-2.148437 -1.48438,-1.464844 -1.48438,-4.003907 0,-3.085937 2.1875,-4.765625 2.1875,-1.679687 6.21094,-1.679687 1.99219,0 3.75,0.292969 1.75781,0.292968 3.24219,0.878906 z"
       style=""
       id="path4180" /><path
       d="m 320.13755,14.532211 3.32031,0 -10.15625,32.871094 -3.32031,0 10.15625,-32.871094 z"
       style=""
       id="path4182" /><path
       d="m 325.17661,21.817368 3.59375,0 4.49219,17.070312 4.47266,-17.070312 4.23828,0 4.49219,17.070312 4.47265,-17.070312 3.59375,0 -5.72265,21.875 -4.23829,0 -4.70703,-17.929688 -4.72656,17.929688 -4.23828,0 -5.72266,-21.875 z"
       style=""
       id="path4184" /><path
       d="m 369.94224,32.696274 q -4.35547,0 -6.03516,0.996094 -1.67969,0.996093 -1.67969,3.398437 0,1.914063 1.25,3.046875 1.26954,1.113281 3.4375,1.113281 2.98829,0 4.78516,-2.109375 1.81641,-2.128906 1.81641,-5.644531 l 0,-0.800781 -3.57422,0 z m 7.16797,-1.484375 0,12.480469 -3.59375,0 0,-3.320313 q -1.23047,1.992188 -3.06641,2.949219 -1.83594,0.9375 -4.49219,0.9375 -3.35937,0 -5.35156,-1.875 -1.97266,-1.894531 -1.97266,-5.058594 0,-3.691406 2.46094,-5.566406 2.48047,-1.875 7.38281,-1.875 l 5.03907,0 0,-0.351563 q 0,-2.480468 -1.64063,-3.828125 -1.62109,-1.367187 -4.57031,-1.367187 -1.875,0 -3.65234,0.449219 -1.77735,0.449218 -3.41797,1.347656 l 0,-3.320313 q 1.97265,-0.761718 3.82812,-1.132812 1.85547,-0.390625 3.61328,-0.390625 4.7461,0 7.08985,2.460937 2.34375,2.460938 2.34375,7.460938 z"
       style=""
       id="path4186" /><path
       d="m 397.20786,25.176743 q -0.60547,-0.351563 -1.32812,-0.507813 -0.70313,-0.175781 -1.5625,-0.175781 -3.04688,0 -4.6875,1.992187 -1.6211,1.972657 -1.6211,5.683594 l 0,11.523438 -3.61328,0 0,-21.875 3.61328,0 0,3.398437 q 1.13282,-1.992187 2.94922,-2.949219 1.81641,-0.976562 4.41407,-0.976562 0.37109,0 0.82031,0.05859 0.44922,0.03906 0.99609,0.136718 l 0.0195,3.691407 z"
       style=""
       id="path4188" /><path
       d="m 396.62193,31.133774 10.52734,0 0,3.203125 -10.52734,0 0,-3.203125 z"
       style=""
       id="path4190" /><path
       d="m 409.21958,21.817368 3.8086,0 6.83593,18.359375 6.83594,-18.359375 3.80859,0 -8.20312,21.875 -4.88281,0 -8.20313,-21.875 z"
       style=""
       id="path4192" /><path
       d="m 435.46958,21.817368 3.59375,0 0,21.875 -3.59375,0 0,-21.875 z m 0,-8.515625 3.59375,0 0,4.550781 -3.59375,0 0,-4.550781 z"
       style=""
       id="path4194" /><path
       d="m 460.50864,22.461899 0,3.398437 q -1.52343,-0.78125 -3.16406,-1.171875 -1.64062,-0.390625 -3.39844,-0.390625 -2.67578,0 -4.02343,0.820313 -1.32813,0.820312 -1.32813,2.460937 0,1.25 0.95703,1.972657 0.95703,0.703125 3.84766,1.347656 l 1.23047,0.273437 q 3.82812,0.820313 5.42969,2.324219 1.62109,1.484375 1.62109,4.160156 0,3.046875 -2.42188,4.824219 -2.40234,1.777344 -6.62109,1.777344 -1.75781,0 -3.67187,-0.351563 -1.89454,-0.332031 -4.00391,-1.015625 l 0,-3.710937 q 1.99219,1.035156 3.92578,1.5625 1.93359,0.507812 3.82813,0.507812 2.53906,0 3.90625,-0.859375 1.36718,-0.878906 1.36718,-2.460937 0,-1.464844 -0.99609,-2.246094 -0.97656,-0.78125 -4.31641,-1.503906 l -1.25,-0.292969 q -3.33984,-0.703125 -4.82422,-2.148437 -1.48437,-1.464844 -1.48437,-4.003907 0,-3.085937 2.1875,-4.765625 2.1875,-1.679687 6.21094,-1.679687 1.99218,0 3.75,0.292969 1.75781,0.292968 3.24218,0.878906 z"
       style=""
       id="path4196" /><path
       d="m 467.05161,35.059555 0,-13.242187 3.59375,0 0,13.105468 q 0,3.105469 1.21094,4.667969 1.21094,1.542969 3.63281,1.542969 2.91016,0 4.58985,-1.855469 1.69922,-1.855469 1.69922,-5.058594 l 0,-12.402343 3.59375,0 0,21.875 -3.59375,0 0,-3.359375 q -1.3086,1.992187 -3.04688,2.96875 -1.71875,0.957031 -4.00391,0.957031 -3.76953,0 -5.72265,-2.34375 -1.95313,-2.34375 -1.95313,-6.855469 z m 9.04297,-13.769531 0,0 z"
       style=""
       id="path4198" /><path
       d="m 502.75474,32.696274 q -4.35547,0 -6.03516,0.996094 -1.67969,0.996093 -1.67969,3.398437 0,1.914063 1.25,3.046875 1.26954,1.113281 3.4375,1.113281 2.98829,0 4.78516,-2.109375 1.81641,-2.128906 1.81641,-5.644531 l 0,-0.800781 -3.57422,0 z m 7.16797,-1.484375 0,12.480469 -3.59375,0 0,-3.320313 q -1.23047,1.992188 -3.06641,2.949219 -1.83594,0.9375 -4.49219,0.9375 -3.35937,0 -5.35156,-1.875 -1.97266,-1.894531 -1.97266,-5.058594 0,-3.691406 2.46094,-5.566406 2.48047,-1.875 7.38281,-1.875 l 5.03907,0 0,-0.351563 q 0,-2.480468 -1.64063,-3.828125 -1.62109,-1.367187 -4.57031,-1.367187 -1.875,0 -3.65234,0.449219 -1.77735,0.449218 -3.41797,1.347656 l 0,-3.320313 q 1.97265,-0.761718 3.82812,-1.132812 1.85547,-0.390625 3.61328,-0.390625 4.7461,0 7.08985,2.460937 2.34375,2.460938 2.34375,7.460938 z"
       style=""
       id="path4200" /><path
       d="m 517.34458,13.301743 3.59375,0 0,30.390625 -3.59375,0 0,-30.390625 z"
       style=""
       id="path4202" /><path
       d="m 528.43833,21.817368 3.59375,0 0,21.875 -3.59375,0 0,-21.875 z m 0,-8.515625 3.59375,0 0,4.550781 -3.59375,0 0,-4.550781 z"
       style=""
       id="path4204" /><path
       d="m 553.47739,22.461899 0,3.398437 q -1.52343,-0.78125 -3.16406,-1.171875 -1.64062,-0.390625 -3.39844,-0.390625 -2.67578,0 -4.02343,0.820313 -1.32813,0.820312 -1.32813,2.460937 0,1.25 0.95703,1.972657 0.95703,0.703125 3.84766,1.347656 l 1.23047,0.273437 q 3.82812,0.820313 5.42969,2.324219 1.62109,1.484375 1.62109,4.160156 0,3.046875 -2.42188,4.824219 -2.40234,1.777344 -6.62109,1.777344 -1.75781,0 -3.67187,-0.351563 -1.89454,-0.332031 -4.00391,-1.015625 l 0,-3.710937 q 1.99219,1.035156 3.92578,1.5625 1.93359,0.507812 3.82813,0.507812 2.53906,0 3.90625,-0.859375 1.36718,-0.878906 1.36718,-2.460937 0,-1.464844 -0.99609,-2.246094 -0.97656,-0.78125 -4.31641,-1.503906 l -1.25,-0.292969 q -3.33984,-0.703125 -4.82422,-2.148437 -1.48437,-1.464844 -1.48437,-4.003907 0,-3.085937 2.1875,-4.765625 2.1875,-1.679687 6.21094,-1.679687 1.99218,0 3.75,0.292969 1.75781,0.292968 3.24218,0.878906 z"
       style=""
       id="path4206" /><path
       d="m 579.10239,31.85643 0,1.757813 -16.52343,0 q 0.23437,3.710937 2.22656,5.664062 2.01172,1.933594 5.58594,1.933594 2.07031,0 4.0039,-0.507813 1.95313,-0.507812 3.86719,-1.523437 l 0,3.398437 q -1.93359,0.820313 -3.96484,1.25 -2.03125,0.429688 -4.1211,0.429688 -5.23437,0 -8.30078,-3.046875 -3.04687,-3.046875 -3.04687,-8.242188 0,-5.371093 2.89062,-8.515625 2.91016,-3.164062 7.83203,-3.164062 4.41407,0 6.97266,2.851562 2.57812,2.832032 2.57812,7.714844 z m -3.59375,-1.054687 q -0.0391,-2.949219 -1.66015,-4.707032 -1.60156,-1.757812 -4.25781,-1.757812 -3.00782,0 -4.82422,1.699219 -1.79688,1.699218 -2.07032,4.785156 l 12.8125,-0.01953 z"
       style=""
       id="path4208" /><path
       d="m 599.39536,25.13768 0,-11.835937 3.59375,0 0,30.390625 -3.59375,0 0,-3.28125 q -1.13281,1.953125 -2.87109,2.910156 -1.71875,0.9375 -4.14063,0.9375 -3.96484,0 -6.46484,-3.164063 -2.48047,-3.164062 -2.48047,-8.320312 0,-5.15625 2.48047,-8.320313 2.5,-3.164062 6.46484,-3.164062 2.42188,0 4.14063,0.957031 1.73828,0.9375 2.87109,2.890625 z m -12.24609,7.636719 q 0,3.964844 1.62109,6.230469 1.64063,2.246093 4.49219,2.246093 2.85156,0 4.49219,-2.246093 1.64062,-2.265625 1.64062,-6.230469 0,-3.964844 -1.64062,-6.210938 -1.64063,-2.265625 -4.49219,-2.265625 -2.85156,0 -4.49219,2.265625 -1.62109,2.246094 -1.62109,6.210938 z"
       style=""
       id="path4210" /></g></svg>