<?xml version="1.0" encoding="UTF-8" standalone="no"?>
<!-- Created with Inkscape (http://www.inkscape.org/) -->

<svg
   xmlns:dc="http://purl.org/dc/elements/1.1/"
   xmlns:cc="http://creativecommons.org/ns#"
   xmlns:rdf="http://www.w3.org/1999/02/22-rdf-syntax-ns#"
   xmlns:svg="http://www.w3.org/2000/svg"
   xmlns="http://www.w3.org/2000/svg"
   xmlns:sodipodi="http://sodipodi.sourceforge.net/DTD/sodipodi-0.dtd"
   xmlns:inkscape="http://www.inkscape.org/namespaces/inkscape"
   width="50.939629mm"
   height="22.10564mm"
   viewBox="0 0 180.49475 78.327072"
   id="svg2"
   version="1.1"
   inkscape:version="0.91 r"
   sodipodi:docname="prio.svg">
  <defs
     id="defs4" />
  <sodipodi:namedview
     id="base"
     pagecolor="#ffffff"
     bordercolor="#666666"
     borderopacity="1.0"
     inkscape:pageopacity="0.0"
     inkscape:pageshadow="2"
     inkscape:zoom="1.4142136"
     inkscape:cx="116.21387"
     inkscape:cy="30.030425"
     inkscape:document-units="px"
     inkscape:current-layer="layer1"
     showgrid="false"
     fit-margin-top="0"
     fit-margin-left="0"
     fit-margin-right="0"
     fit-margin-bottom="0"
     inkscape:window-width="1920"
     inkscape:window-height="1021"
     inkscape:window-x="0"
     inkscape:window-y="0"
     inkscape:window-maximized="1" />
  <metadata
     id="metadata7">
    <rdf:RDF>
      <cc:Work
         rdf:about="">
        <dc:format>image/svg+xml</dc:format>
        <dc:type
           rdf:resource="http://purl.org/dc/dcmitype/StillImage" />
        <dc:title></dc:title>
      </cc:Work>
    </rdf:RDF>
  </metadata>
  <g
     inkscape:label="Layer 1"
     inkscape:groupmode="layer"
     id="layer1"
     transform="translate(-265.38148,-375.67423)">
    <g
       id="g4668"
       transform="translate(9,-34.5)">
      <path
         sodipodi:type="inkscape:offset"
         inkscape:radius="-0.7838527"
         inkscape:original="M 311.03125 409.41992 C 308.81689 409.27866 306.08136 409.62419 303 410.4668 C 296.85795 412.14636 295.5 413.85753 295.5 419.91797 C 295.5 424.85803 295.29458 425.28521 291.98438 427.23828 C 287.66743 429.78534 286.21995 433.30789 287.09375 439.13477 C 287.76605 443.61803 286.85564 445.30966 283.75 445.34766 C 282.07638 445.36816 282.15775 443.21634 284.15234 434.6875 C 285.71518 428.00489 285.71571 427.34057 284.17188 424.98438 C 280.49467 419.37224 270.49854 421.19605 265.66406 428.36133 C 263.45645 431.63328 263.34717 432.46666 263.96484 441.14062 L 264.625 450.41992 L 260.0625 454.85352 C 254.99369 459.77984 254.69836 461.21729 256.88672 470.36133 C 258.61298 477.57448 262.01167 484.31608 265.33008 487.10742 C 270.731 491.6505 274.59713 489.11622 277.57812 479.07812 C 280.56606 469.01664 281.80265 466.98659 286.90625 463.75781 C 291.92298 460.58399 293.5 457.93279 293.5 452.67188 C 293.5 449.76101 294.21528 448.45381 297.25 445.81836 L 301 442.56055 L 302.05664 445.71094 C 302.86994 448.13614 304.48172 449.55209 309.05664 451.86133 C 313.70824 454.20927 315.06417 455.4166 315.29688 457.41406 C 315.7186 461.03395 313.58144 462.58529 299.42188 468.92383 C 284.72095 475.50472 283.4065 476.49652 285.8418 479.1875 C 287.93729 481.503 301.40198 484.83319 304.66016 483.8418 C 308.849 482.56722 312.9327 478.71109 316.42969 472.72852 C 318.31594 469.50159 321.15116 465.46685 322.73047 463.76172 C 326.01503 460.21549 328.47088 452.18354 328.48828 444.92773 C 328.49974 440.16219 328.28893 439.79641 322.36914 434.31836 L 316.23828 428.64453 L 316.96094 420.93359 C 317.57876 414.34057 317.43105 412.94332 315.9375 411.29297 C 314.93944 410.19012 313.24561 409.56118 311.03125 409.41992 z M 310.56445 413.36133 C 311.80692 413.36133 311.74995 418.1029 310.43164 424.25 C 309.1185 430.37293 309.89282 432.08478 315.95117 436.43555 C 320.9365 440.01575 322.5 443.37547 322.5 450.51172 C 322.5 453.17965 322.13407 455.36133 321.6875 455.36133 C 321.24093 455.36133 319.91026 454.05669 318.73047 452.46094 C 317.55068 450.86519 314.65411 448.47944 312.29297 447.16016 C 309.18427 445.42318 308.08547 444.22452 308.31055 442.8125 C 308.48151 441.74003 308.8681 438.57625 309.16992 435.7832 C 309.70654 430.8173 309.62802 430.62732 305.60938 427.1875 C 301.10724 423.33385 300.25533 419.74857 303.1543 416.84961 C 304.78313 415.22078 308.73267 413.36133 310.56445 413.36133 z M 277.61719 426.39844 C 278.18124 426.50889 278.63126 426.76589 278.89062 427.18555 C 279.1706 427.63856 278.52267 430.82677 277.45117 434.26953 C 275.28413 441.23224 275.54469 443.6308 278.92578 447.87109 C 280.70736 450.10539 282.0556 450.76172 284.86523 450.76172 C 289.74574 450.76172 289.7198 453.35587 284.80273 457.07031 C 276.90426 463.03695 274.86064 465.73696 271.9082 474.10938 C 270.27671 478.73587 268.42755 482.35737 267.69531 482.35938 C 265.70307 482.36334 261.16602 471.5379 261.16602 466.7793 C 261.16602 463.45709 261.91125 461.69684 264.8125 458.15625 C 270.86742 450.76702 271.81559 447.45939 270.35938 438.79297 C 269.14625 431.57327 269.17168 431.34053 271.48242 428.88086 C 273.20204 427.05042 275.92502 426.06709 277.61719 426.39844 z M 302.5 430.36133 C 303.05 430.36133 303.5 431.48633 303.5 432.86133 C 303.5 434.23633 303.05 435.36133 302.5 435.36133 C 301.95 435.36133 301.5 434.23633 301.5 432.86133 C 301.5 431.48633 301.95 430.36133 302.5 430.36133 z M 296.58008 431.91211 C 298.12971 432.86984 297.60812 435.95464 295.42773 438.72656 C 292.85895 441.99224 291.5 442.08535 291.5 438.99609 C 291.5 436.25895 295.22019 431.07165 296.58008 431.91211 z M 310.25 470.77734 C 310.78017 471.30752 308.69111 475.34794 306.7168 477.61133 C 304.89257 479.70267 299.9875 479.84063 296.5 477.89844 C 294.11619 476.57089 294.09295 476.4726 296 475.78516 C 297.1 475.38863 300.66289 474.00718 303.91797 472.71484 C 307.17304 471.4225 310.02301 470.55036 310.25 470.77734 z "
         style="fill:#4d9aaf;fill-opacity:1"
         id="path4680"
         d="m 310.98047,410.20312 c -2.09238,-0.13347 -4.75334,0.19368 -7.77344,1.01954 -3.01987,0.82579 -4.71099,1.63559 -5.64648,2.81445 -0.9355,1.17886 -1.27735,2.90918 -1.27735,5.88086 0,2.48089 -0.016,3.91629 -0.59375,5.11914 -0.57771,1.20285 -1.63611,1.89131 -3.30664,2.87695 -2.05529,1.21265 -3.34426,2.58781 -4.06445,4.33985 -0.72019,1.75203 -0.87327,3.93592 -0.44922,6.76367 0.34599,2.30725 0.34183,3.99512 -0.33984,5.26172 -0.68167,1.26659 -2.07536,1.83083 -3.76953,1.85156 -0.58626,0.007 -1.27353,-0.27764 -1.60743,-0.8418 -0.33389,-0.56416 -0.39217,-1.22687 -0.35937,-2.0957 0.0656,-1.73766 0.59562,-4.40724 1.5957,-8.68359 0.78011,-3.33572 1.15209,-5.15712 1.1543,-6.29688 0.002,-1.13976 -0.27396,-1.64901 -1.02735,-2.79883 -1.63882,-2.50116 -4.67978,-3.37179 -8.02343,-2.76172 -3.34366,0.61008 -6.88335,2.74593 -9.17774,6.14649 -1.0899,1.61537 -1.57474,2.4602 -1.7832,4.02929 -0.20846,1.5691 -0.0936,3.92393 0.21484,8.25586 a 0.78393108,0.78393108 0 0 1 0,0.002 l 0.66016,9.27929 a 0.78393108,0.78393108 0 0 1 -0.23437,0.61719 l -4.5625,4.4336 c -2.51254,2.4419 -3.70224,3.88489 -4.0879,5.76757 -0.38565,1.88269 0.0368,4.44088 1.12696,8.9961 1.69779,7.09418 5.14116,13.76728 8.18554,16.32812 1.28751,1.08301 2.44193,1.69963 3.42969,1.90625 0.98776,0.20662 1.81418,0.0499 2.66797,-0.50976 1.70759,-1.1194 3.42524,-4.10117 4.89453,-9.04883 1.49828,-5.04524 2.56082,-8.12163 3.95313,-10.4082 1.39231,-2.28658 3.11668,-3.71279 5.70703,-5.35157 2.45639,-1.55403 3.99238,-2.93204 4.92383,-4.49804 0.93145,-1.56601 1.30664,-3.37365 1.30664,-5.92578 0,-1.51964 0.19852,-2.74845 0.83203,-3.90626 0.63351,-1.1578 1.64472,-2.19925 3.1875,-3.53906 l 3.75,-3.25781 a 0.78393108,0.78393108 0 0 1 1.25781,0.3418 l 1.05664,3.15039 c 0.37164,1.1082 0.87482,1.91083 1.86328,2.77929 0.98847,0.86847 2.48311,1.77961 4.7461,2.92188 2.34669,1.18452 3.89306,2.08506 4.94531,3.02148 1.05225,0.93643 1.5862,1.98611 1.7207,3.14063 0.11498,0.98695 0.0553,1.94809 -0.38476,2.86328 -0.44003,0.91519 -1.21809,1.73555 -2.4043,2.5957 -2.37243,1.72032 -6.4568,3.68247 -13.54492,6.85547 -7.34502,3.28801 -11.36405,5.217 -13.06446,6.50195 -0.8502,0.64248 -1.0213,1.02383 -1.02539,1.24805 -0.004,0.22423 0.20228,0.64447 0.77149,1.27344 0.30636,0.33852 1.50187,1.03312 3.0664,1.63867 1.56454,0.60555 3.5226,1.20091 5.51368,1.69336 1.99107,0.49245 4.0193,0.88221 5.72851,1.08594 1.70921,0.20372 3.14544,0.18022 3.69922,0.0117 3.90335,-1.18771 7.88539,-4.88004 11.32227,-10.75977 1.91529,-3.27661 4.72195,-7.28925 6.40234,-9.10351 3.01597,-3.25624 5.53185,-11.22241 5.54883,-18.30274 0.006,-2.37116 -0.0378,-3.44349 -0.73047,-4.64453 -0.6927,-1.20104 -2.18176,-2.65045 -5.13867,-5.38672 l -6.13086,-5.67383 a 0.78393108,0.78393108 0 0 1 -0.24805,-0.64843 l 0.72266,-7.71094 c 0.30789,-3.28561 0.41462,-5.26251 0.28125,-6.51953 -0.13338,-1.25703 -0.42392,-1.77034 -1.10547,-2.52344 -0.80148,-0.88563 -2.28282,-1.48177 -4.375,-1.61524 z m -0.41602,2.375 c 0.40459,0 0.79378,0.23447 1.01367,0.50586 0.2199,0.2714 0.33963,0.57193 0.43165,0.90625 0.18403,0.66866 0.24478,1.50109 0.23242,2.51954 -0.0247,2.03688 -0.37759,4.7926 -1.04492,7.90429 -0.64681,3.01594 -0.73816,4.76469 -0.0566,6.26953 0.68152,1.50484 2.26512,2.95904 5.26758,5.11524 2.55549,1.83522 4.31539,3.68196 5.39844,6.00976 1.08305,2.32781 1.47656,5.07776 1.47656,8.70313 0,1.3698 -0.0901,2.61206 -0.24804,3.55469 -0.079,0.47131 -0.17004,0.86274 -0.30274,1.19921 -0.0663,0.16824 -0.13856,0.32632 -0.27344,0.49219 -0.13487,0.16587 -0.39654,0.38672 -0.77148,0.38672 -0.49331,0 -0.68189,-0.19088 -0.93945,-0.375 -0.25757,-0.18412 -0.52508,-0.41929 -0.8125,-0.70117 -0.57485,-0.56376 -1.223,-1.31158 -1.83594,-2.14063 -1.03721,-1.40289 -3.94129,-3.82783 -6.18945,-5.08398 -1.58705,-0.88676 -2.69729,-1.64125 -3.4375,-2.44922 -0.74021,-0.80796 -1.08473,-1.7692 -0.93555,-2.70508 0.16215,-1.01722 0.55258,-4.2054 0.85351,-6.99023 0.26776,-2.47783 0.33653,-3.63143 -0.0176,-4.48633 -0.3541,-0.8549 -1.26762,-1.71277 -3.27344,-3.42969 -2.32375,-1.98903 -3.78358,-3.95302 -4.25586,-5.9414 -0.47228,-1.98839 0.16498,-3.956 1.75586,-5.54688 0.93295,-0.93295 2.3709,-1.81364 3.84961,-2.50976 1.47871,-0.69613 2.93411,-1.20704 4.11523,-1.20704 z m -34.5,13.01368 c 0.59395,-0.0764 1.16943,-0.0674 1.70313,0.0371 0.71192,0.1394 1.39176,0.50168 1.78906,1.14453 0.17863,0.28902 0.16972,0.47019 0.17969,0.66601 0.01,0.19582 -2.7e-4,0.39911 -0.0215,0.63086 -0.0424,0.46351 -0.13545,1.03159 -0.26953,1.69141 -0.26816,1.31964 -0.70326,2.9961 -1.24609,4.74023 -1.07328,3.44846 -1.50906,5.69142 -1.3125,7.50391 0.19656,1.81249 1.00059,3.30546 2.65234,5.37695 1.70805,2.14209 2.63862,2.59571 5.32617,2.59571 1.28957,0 2.30264,0.15428 3.08985,0.54492 0.78721,0.39063 1.34431,1.16497 1.33594,2.00781 -0.008,0.84284 -0.42985,1.63868 -1.10743,2.47852 -0.67757,0.83983 -1.64418,1.73068 -2.9082,2.68554 -7.85961,5.93729 -9.69662,8.35855 -12.62891,16.67383 -0.8253,2.34034 -1.7034,4.42567 -2.48437,5.95508 -0.39049,0.7647 -0.75154,1.38948 -1.0957,1.85937 -0.17208,0.23495 -0.33815,0.43275 -0.53125,0.60157 -0.19311,0.16882 -0.42376,0.35628 -0.83789,0.35742 -0.60427,0.001 -1.01734,-0.32224 -1.40039,-0.69336 -0.38306,-0.37113 -0.74625,-0.85231 -1.11915,-1.42774 -0.74579,-1.15084 -1.51217,-2.68197 -2.21679,-4.36328 -1.40924,-3.3626 -2.57813,-7.25048 -2.57813,-9.8789 0,-3.43943 0.88395,-5.53094 3.82422,-9.11914 3.00383,-3.66578 4.67574,-6.24932 5.44141,-8.92188 0.76567,-2.67256 0.6583,-5.52473 -0.0625,-9.81445 -0.60694,-3.61209 -0.93243,-5.48752 -0.76563,-6.96094 0.1668,-1.47342 0.92701,-2.38136 2.08985,-3.61914 1.42982,-1.52197 3.37246,-2.52277 5.15429,-2.75195 z M 302.5,429.57812 c 0.40472,0 0.74216,0.21308 0.95898,0.44336 0.21683,0.23029 0.3586,0.49318 0.47461,0.78321 0.23202,0.58005 0.34961,1.28363 0.34961,2.05664 0,0.77301 -0.11759,1.47659 -0.34961,2.05664 -0.11601,0.29002 -0.25778,0.55291 -0.47461,0.7832 -0.21682,0.23029 -0.55426,0.44336 -0.95898,0.44336 -0.40472,0 -0.74216,-0.21307 -0.95898,-0.44336 -0.21683,-0.23029 -0.3586,-0.49318 -0.47461,-0.7832 -0.23202,-0.58005 -0.34961,-1.28363 -0.34961,-2.05664 0,-0.77301 0.11759,-1.47659 0.34961,-2.05664 0.11601,-0.29003 0.25778,-0.55292 0.47461,-0.78321 0.21682,-0.23028 0.55426,-0.44336 0.95898,-0.44336 z m -6.74609,1.53126 c 0.37272,-0.10731 0.84694,-0.10515 1.23828,0.13671 1.12843,0.69742 1.42213,2.11281 1.18359,3.52344 -0.23853,1.41063 -0.97404,2.96826 -2.13281,4.44141 -0.66184,0.84139 -1.25271,1.49242 -1.80274,1.96484 -0.55002,0.47242 -1.0519,0.8081 -1.68554,0.85156 -0.31683,0.0217 -0.67027,-0.0666 -0.94141,-0.25781 -0.27114,-0.19118 -0.45172,-0.45411 -0.57617,-0.73242 -0.2489,-0.55662 -0.32031,-1.21123 -0.32031,-2.04102 0,-1.72369 1.01141,-3.71622 2.17578,-5.33984 0.58218,-0.81181 1.20605,-1.51329 1.8457,-2 0.31983,-0.24336 0.6429,-0.43957 1.01563,-0.54687 z m 14.25781,38.8496 c 0.088,-0.004 0.17811,-0.004 0.29687,0.0156 0.11877,0.0201 0.29256,0.0445 0.4961,0.24805 0.33327,0.33327 0.3252,0.68839 0.30859,0.95703 -0.0166,0.26863 -0.0786,0.52384 -0.16601,0.80469 -0.17486,0.56168 -0.46273,1.21318 -0.82813,1.91992 -0.73079,1.41347 -1.76349,3.02005 -2.8125,4.22265 -1.13527,1.30151 -3.02166,1.86674 -5.05273,1.92383 -2.03107,0.0571 -4.24765,-0.41586 -6.13477,-1.4668 -0.59907,-0.33362 -1.05573,-0.59133 -1.4082,-0.82812 -0.35248,-0.23679 -0.6927,-0.38375 -0.83203,-0.97266 -0.0697,-0.29445 0.0418,-0.66735 0.19921,-0.86523 0.15744,-0.19788 0.3186,-0.29516 0.48047,-0.38477 0.32375,-0.17921 0.69294,-0.31227 1.17579,-0.48632 1.06159,-0.38269 4.64371,-1.76991 7.89453,-3.06055 1.64425,-0.65281 3.18408,-1.19836 4.36132,-1.5586 0.58863,-0.18011 1.0832,-0.31541 1.47852,-0.39453 0.19766,-0.0396 0.36696,-0.0665 0.54297,-0.0742 z" />
    </g>
    <g
       transform="scale(1.0841899,0.92234763)"
       style="font-style:normal;font-variant:normal;font-weight:600;font-stretch:normal;font-size:43.36759567px;line-height:125%;font-family:'Latin Modern Sans Demi Cond';-inkscape-font-specification:'Latin Modern Sans Demi Cond Semi-Bold';letter-spacing:0px;word-spacing:0px;fill:#aec9ce;fill-opacity:1;stroke:none;stroke-width:1px;stroke-linecap:butt;stroke-linejoin:miter;stroke-opacity:1"
       id="text4674">
      <path
         d="m 342.17238,444.52031 c 0,-5.46432 -3.16584,-9.1072 -9.62761,-9.1072 l -8.93372,0 c -1.51787,0 -1.95155,0.39031 -1.95155,1.95154 l 0,26.19403 c 0,1.51787 0.39031,1.95154 1.95155,1.95154 l 1.43113,0 c 1.51786,0 1.90817,-0.43367 1.90817,-1.90817 l 0,-10.14802 5.98473,0 c 4.16329,0 9.2373,-1.95154 9.2373,-8.93372 z m -4.94391,0.0434 c 0,2.77553 -0.43368,5.898 -5.98473,5.898 l -4.42349,0 0,-11.79599 4.42349,0 c 5.46432,0 5.98473,2.99237 5.98473,5.89799 z"
         style=""
         id="path6849" />
      <path
         d="m 369.33879,464.55614 c 0,-0.17347 -0.0434,-0.21684 -0.26021,-0.65052 l -6.50514,-12.4465 c 2.90563,-0.82398 6.20157,-2.77552 6.20157,-7.63269 0,-4.77044 -3.16584,-8.41332 -10.19139,-8.41332 l -8.63015,0 c -1.51786,0 -1.95154,0.39031 -1.95154,1.95154 l 0,26.19403 c 0,1.51787 0.39031,1.95154 1.95154,1.95154 l 1.30103,0 c 1.51787,0 1.90817,-0.43367 1.90817,-1.90817 l 0,-11.75262 4.5536,0 6.41841,12.61997 c 0.47704,0.91072 0.60714,1.04082 1.8648,1.04082 l 1.82144,0 c 0.56378,0 1.51787,0 1.51787,-0.95408 z m -5.50769,-20.68635 c 0,2.68879 -0.73725,5.20411 -5.89799,5.20411 l -4.77044,0 0,-10.40822 4.81381,0 c 5.07401,0 5.85462,2.42859 5.85462,5.20411 z"
         style=""
         id="path6851" />
      <path
         d="m 379.84594,463.60205 0,-26.28076 c 0,-1.3444 -0.26021,-1.90818 -1.90817,-1.90818 l -1.43113,0 c -1.51787,0 -1.95155,0.39031 -1.95155,1.95154 l 0,26.19403 c 0,1.51787 0.39031,1.95154 1.95155,1.95154 l 1.43113,0 c 1.51786,0 1.90817,-0.43367 1.90817,-1.90817 z"
         style=""
         id="path6853" />
      <path
         d="m 411.25289,450.67851 c 0,-1.86481 -0.0867,-6.85208 -2.47196,-10.66843 -2.99236,-4.77044 -7.7628,-5.42095 -10.32148,-5.42095 -4.11993,0 -7.80617,1.69133 -9.93118,4.77043 -1.6046,2.38522 -2.86226,5.59442 -2.86226,11.31895 0,3.77298 0.52041,8.36994 3.55614,11.88272 1.95154,2.25511 5.24748,3.77298 9.2373,3.77298 3.03573,0 6.80871,-0.91072 9.3674,-3.94645 2.90563,-3.42604 3.42604,-8.06638 3.42604,-11.70925 z m -5.29085,-0.69389 c 0,2.73216 -0.0867,5.898 -1.30103,8.76026 -1.64797,3.81635 -4.59696,4.46686 -6.20156,4.46686 -1.64797,0 -4.59697,-0.69388 -6.20157,-4.51023 -1.08419,-2.55869 -1.30103,-5.24748 -1.30103,-8.71689 0,-2.12501 0,-5.98472 1.6046,-8.80362 1.56124,-2.81889 4.07656,-3.55614 5.898,-3.55614 1.34439,0 4.29339,0.43368 6.02809,3.77298 1.43113,2.77553 1.4745,6.11483 1.4745,8.58678 z"
         style=""
         id="path6855" />
    </g>
  </g>
</svg>
