<?xml version="1.0" encoding="UTF-8" standalone="no"?>
<!-- Generator: Adobe Illustrator 14.0.0, SVG Export Plug-In . SVG Version: 6.00 Build 43363)  -->

<svg
   xmlns:dc="http://purl.org/dc/elements/1.1/"
   xmlns:cc="http://creativecommons.org/ns#"
   xmlns:rdf="http://www.w3.org/1999/02/22-rdf-syntax-ns#"
   xmlns:svg="http://www.w3.org/2000/svg"
   xmlns="http://www.w3.org/2000/svg"
   xmlns:sodipodi="http://sodipodi.sourceforge.net/DTD/sodipodi-0.dtd"
   xmlns:inkscape="http://www.inkscape.org/namespaces/inkscape"
   version="1.1"
   id="Layer_1"
   x="0px"
   y="0px"
   width="175.74899"
   height="167.174"
   viewBox="0 0 175.74899 167.174"
   enable-background="new 0 0 612 792"
   xml:space="preserve"
   inkscape:version="0.91 r"
   sodipodi:docname="ucdp.svg"><metadata
     id="metadata6294"><rdf:RDF><cc:Work
         rdf:about=""><dc:format>image/svg+xml</dc:format><dc:type
           rdf:resource="http://purl.org/dc/dcmitype/StillImage" /><dc:title></dc:title></cc:Work></rdf:RDF></metadata><defs
     id="defs6292" /><sodipodi:namedview
     pagecolor="#ffffff"
     bordercolor="#666666"
     borderopacity="1"
     objecttolerance="10"
     gridtolerance="10"
     guidetolerance="10"
     inkscape:pageopacity="0"
     inkscape:pageshadow="2"
     inkscape:window-width="1920"
     inkscape:window-height="1021"
     id="namedview6290"
     showgrid="false"
     fit-margin-top="0"
     fit-margin-left="0"
     fit-margin-right="0"
     fit-margin-bottom="0"
     inkscape:zoom="1.1919192"
     inkscape:cx="22.330534"
     inkscape:cy="-99.74408"
     inkscape:window-x="0"
     inkscape:window-y="0"
     inkscape:window-maximized="1"
     inkscape:current-layer="g6142" /><g
     id="g6142"
     transform="translate(-217.503,-312.791)"><path
       d="m 352.054,356.37 c -0.477,-1.667 -0.477,-3.81 -1.19,-5.477 -0.477,-2.858 -1.43,-5.715 -2.382,-8.335 -0.477,-0.953 -0.952,-2.143 -1.667,-3.096 -0.238,-0.715 -0.714,-1.191 -0.952,-1.905 -0.953,-1.19 -1.191,-2.144 -1.905,-3.334 -0.953,-0.953 -1.667,-2.143 -2.382,-3.096 -0.952,-1.19 -1.904,-2.143 -2.857,-3.333 -0.715,-0.238 -0.952,-1.191 -1.667,-1.667 -0.477,-0.477 -1.19,-0.714 -1.429,-1.191 -0.953,-0.953 -1.905,-1.905 -2.858,-2.62 -1.666,-1.429 -3.571,-1.667 -5,-3.096 l -1.191,-0.714 c -1.19,-0.714 -2.619,-1.191 -3.81,-1.667 -0.953,-0.714 -1.905,-0.953 -3.096,-1.429 -0.715,-0.238 -1.667,-0.714 -2.382,-0.952 -0.238,0 -0.477,-0.238 -0.715,0 -2.143,0 -3.81,-0.953 -5.715,-1.191 -1.667,0 -3.572,-0.238 -5.239,-0.476 -0.714,0 -1.429,0 -2.144,0 -1.429,0.238 -2.857,0.238 -4.286,0.476 -1.905,0.238 -4.049,0.476 -5.954,1.191 -1.905,0.714 -3.81,1.429 -5.954,2.143 -0.238,0.238 -0.714,0.477 -1.191,0.477 -1.19,0.476 -2.143,1.19 -3.333,1.429 -1.429,0.953 -2.858,1.19 -3.811,2.381 -1.429,0.476 -2.62,1.19 -3.572,2.144 -1.429,0.476 -2.619,1.667 -3.81,2.619 -1.191,1.429 -2.62,2.381 -3.81,3.572 -0.238,0.714 -0.953,1.19 -1.191,1.905 -0.476,0.715 -1.19,1.429 -1.667,2.144 -0.714,0.714 -1.191,1.429 -1.667,2.381 -0.714,1.191 -1.429,2.143 -1.905,3.334 -0.238,0.953 -0.714,1.667 -1.191,2.381 -0.476,0.953 -0.952,2.144 -1.19,3.096 -0.476,1.191 -0.953,2.381 -1.191,3.572 0,0.238 -0.476,0.714 -0.238,1.191 -0.477,0.953 -0.477,1.905 -0.714,2.857 0,1.667 -0.476,2.858 -0.476,4.525 0,1.19 -0.238,2.62 -0.238,4.048 0,2.144 0,4.287 0.238,6.43 0.238,0.953 0.238,1.905 0.476,2.858 0.714,2.381 1.19,5.001 2.143,7.382 0.477,1.667 1.19,3.334 1.905,5.001 0.476,0.714 1.19,1.667 1.429,2.62 0.715,0.952 1.191,2.143 2.143,3.096 0,0.476 0.477,0.476 0.715,0.953 0.476,0.476 0.714,1.19 1.19,1.905 0.476,0.476 0.953,1.19 1.667,1.905 0.238,0.477 0.714,0.714 0.953,1.191 0.714,0.476 1.191,0.952 1.667,1.429 0.953,0.477 1.429,1.428 2.381,2.143 2.143,1.668 4.287,3.334 6.668,4.525 1.191,0.477 2.143,1.189 3.096,1.666 1.429,0.715 2.857,1.191 4.286,1.906 1.429,0 2.382,0.715 3.811,0.715 0.476,0 0.714,0.236 1.429,0.236 1.667,0.477 3.334,0.953 5.001,1.191 2.858,0.238 5.715,0.715 8.573,0.238 3.811,0 7.382,-0.715 10.716,-1.666 1.667,-0.477 3.334,-0.953 5.001,-1.43 1.905,-0.953 3.811,-1.668 5.716,-2.619 0.477,-0.238 0.952,-0.715 1.429,-0.715 1.429,-0.715 2.62,-1.904 3.811,-2.857 1.905,-0.953 3.81,-2.62 5.477,-4.049 1.43,-1.667 3.096,-3.334 4.049,-5.239 1.429,-1.667 2.857,-3.572 3.811,-5.477 0,0 0.238,-0.238 0.238,-0.477 0,-0.476 0.476,-0.952 0.476,-1.429 0.477,-1.429 1.429,-2.62 1.905,-4.048 0.477,-0.953 0.715,-1.667 0.715,-2.62 0.714,-1.429 1.19,-3.096 1.429,-4.525 0.477,-2.857 1.19,-5.715 1.429,-8.811 0.472,-1.667 -0.003,-3.81 -0.003,-5.715 l 0,0 z m -1.429,7.621 c -0.477,2.62 -0.953,5.001 -1.667,7.382 -0.238,1.905 -0.953,3.334 -1.429,5.239 -0.477,0.952 -0.715,2.143 -1.429,3.096 -0.715,1.429 -1.667,2.858 -2.382,4.524 -0.952,1.667 -2.144,3.572 -3.334,5.239 -0.714,0.953 -1.429,1.905 -2.144,2.62 -0.952,0.953 -1.667,2.143 -2.857,2.857 -1.429,0.953 -2.857,1.905 -4.286,3.096 l -1.905,1.191 c -0.715,0.236 -1.429,0.951 -2.144,1.428 -0.714,0.477 -1.429,0.715 -1.905,0.953 -1.905,0.953 -3.811,1.904 -5.953,2.619 -1.667,0.715 -3.334,0.715 -5.001,1.43 -2.144,0.475 -4.049,0.715 -6.192,0.951 -2.143,0 -4.286,0.477 -6.429,0 -1.191,-0.236 -2.62,-0.236 -4.049,-0.236 -0.476,0 -0.952,-0.24 -1.428,-0.24 -1.429,-0.475 -2.858,-0.951 -4.287,-0.951 -1.667,-0.477 -3.334,-0.953 -5.001,-1.43 -0.238,-0.238 -0.715,-0.238 -1.191,-0.477 -1.667,-0.951 -3.572,-1.666 -5.001,-2.619 l -0.476,-0.238 c -1.191,-0.953 -2.62,-1.904 -3.811,-2.619 -1.667,-1.19 -3.096,-2.143 -4.524,-3.572 -0.953,-0.714 -1.667,-1.905 -2.62,-2.619 -0.714,-0.714 -1.191,-1.429 -1.905,-1.905 -1.19,-1.429 -1.667,-2.858 -2.858,-4.287 -0.952,-1.191 -1.428,-2.62 -2.143,-4.048 -0.476,-0.953 -0.953,-1.905 -1.429,-3.096 -0.476,-1.667 -0.953,-3.334 -1.667,-5.001 -0.238,-1.19 -0.714,-2.381 -0.714,-3.572 -0.238,-1.667 -0.715,-3.572 -0.477,-5.478 -0.238,-0.952 -0.238,-2.143 -0.238,-3.333 0,-0.238 0.238,-0.714 0.238,-1.191 -0.238,-0.953 0.238,-1.667 0,-2.62 0,-1.429 0.477,-2.857 0.477,-4.287 0.238,-0.952 0.238,-2.143 0.476,-3.096 0.238,-0.476 0.238,-1.191 0.714,-1.667 0,-1.191 0.476,-1.905 0.715,-3.096 0.476,-1.191 0.952,-2.143 1.667,-3.334 0.715,-1.19 1.191,-2.381 1.667,-3.572 0.953,-1.429 1.429,-2.857 2.62,-4.048 0.715,-0.953 1.667,-2.143 2.381,-3.096 0.477,-0.953 1.429,-1.429 2.144,-2.144 1.429,-1.429 2.858,-2.619 4.524,-3.572 1.191,-0.714 2.144,-1.429 3.096,-2.143 0.238,-0.238 0.714,-0.238 0.952,-0.477 1.667,-0.953 3.334,-2.144 5.239,-3.096 2.381,-1.191 5.001,-1.905 7.621,-2.858 0.953,0 1.905,-0.238 2.857,-0.714 0.715,0 1.429,-0.238 2.144,-0.477 0.953,-0.238 1.667,-0.238 2.62,-0.476 1.667,-0.238 3.334,0.238 5.239,0.238 0.715,0 1.19,-0.238 1.905,-0.238 0.477,0 0.952,0 1.429,0 1.429,0 2.62,0.238 3.811,0.476 0.714,0.238 1.429,0.238 1.905,0.477 0.952,0 1.667,0.477 2.381,0.714 0.953,0.238 1.905,0.238 2.62,0.477 2.143,0.952 4.286,1.667 6.191,2.619 1.667,1.191 3.334,1.667 4.763,2.858 1.191,0.714 2.382,1.667 3.572,2.62 0.477,0.238 0.952,0.953 1.429,1.429 0.715,0.714 1.667,1.429 2.382,2.143 0.714,0.477 1.19,1.191 1.905,1.905 0.476,0.714 0.952,1.429 1.666,2.144 1.191,1.667 2.382,3.334 3.335,5.239 0.952,0.953 1.667,2.382 2.143,3.572 0.715,1.905 1.667,3.81 2.144,5.715 0.477,1.667 1.19,3.334 1.429,5.001 0.238,1.429 0.477,2.857 0.477,4.524 0.238,1.191 0.238,2.382 0.238,3.811 -0.002,0.954 -0.002,2.383 -0.24,3.336 l 0,0 z"
       id="path6146"
       inkscape:connector-curvature="0"
       style="clip-rule:evenodd;fill:#bf2f38;fill-rule:evenodd" /><path
       d="m 348.72,357.799 c 0,-1.19 0,-2.381 -0.238,-3.333 -0.477,-3.811 -1.19,-7.382 -2.619,-10.717 -0.238,-0.714 -0.477,-1.429 -0.953,-2.143 -0.238,-0.714 -0.714,-1.429 -1.19,-1.905 l 0,-0.238 c -1.905,-2.382 -2.857,-5.239 -5.001,-7.382 -2.382,-2.381 -4.524,-5.001 -7.382,-6.668 -1.668,-1.667 -3.572,-2.858 -5.478,-4.049 -1.19,-0.476 -2.144,-0.953 -3.096,-1.667 -0.953,-0.476 -2.144,-0.714 -3.096,-1.19 -1.905,-0.714 -4.049,-0.714 -5.954,-1.429 -1.19,-0.238 -2.381,-0.238 -3.811,-0.477 -1.905,0 -3.81,0 -5.715,0 -1.428,-0.238 -3.096,-0.238 -4.286,0.238 -0.953,0 -1.905,0.238 -2.62,0.238 -1.429,0 -2.62,0.714 -4.048,0.714 -0.477,0.238 -0.953,0.476 -1.429,0.476 -1.191,0.714 -2.381,0.714 -3.572,1.191 -0.953,0 -1.667,0.714 -2.62,0.952 -0.476,0.715 -1.429,0.477 -2.143,1.191 -2.381,1.191 -4.525,3.096 -7.145,4.048 -1.905,1.667 -4.287,3.096 -5.715,5.239 -0.953,0.714 -1.429,1.667 -2.143,2.381 -0.714,0.714 -0.714,1.667 -1.429,2.381 -0.477,1.191 -1.429,2.143 -1.667,3.334 -0.477,0.477 -0.477,0.953 -0.953,1.429 -0.238,0.714 -0.714,1.667 -1.19,2.619 -0.238,0.714 -0.714,1.191 -0.714,1.905 -0.477,0.953 -0.953,1.905 -1.191,3.096 -0.476,0.714 -0.476,1.429 -0.714,2.144 -0.477,2.143 -1.19,4.048 -1.19,6.43 -0.477,1.667 -0.238,3.334 -0.238,5.239 -0.238,0.477 0,0.953 0,1.667 0.238,0.953 0.238,1.905 0.238,3.096 l 0.238,0.238 c 0.238,0.714 0.238,1.667 0.476,2.62 0.239,1.667 0.715,3.333 1.191,4.763 0.953,1.905 1.429,3.81 2.144,5.477 0.476,1.191 0.952,2.143 1.667,3.096 0.714,1.905 2.143,3.572 3.096,5.477 1.429,1.667 3.096,3.334 4.525,4.763 2.143,2.381 4.763,4.048 7.144,5.478 2.143,1.428 4.287,2.143 6.668,3.334 1.429,0.477 2.62,0.953 4.048,1.428 1.191,0.238 2.143,0.953 3.572,0.953 0.952,0 1.667,0.477 2.619,0.477 3.334,0.477 6.668,0.715 10.002,0.238 1.667,-0.238 3.334,-0.238 5.001,-0.477 3.096,-0.477 5.716,-1.191 8.335,-2.143 1.429,-0.953 3.096,-1.43 4.525,-2.145 2.619,-1.189 5,-2.381 7.382,-4.286 1.19,-0.715 2.144,-1.905 3.334,-2.858 1.429,-1.667 2.857,-3.096 4.287,-4.763 0,-0.238 0.237,-0.714 0.476,-0.952 1.19,-1.429 1.905,-2.857 3.096,-4.048 0.238,-0.953 1.191,-1.905 1.429,-2.858 0.238,-0.953 0.715,-1.667 1.191,-2.619 0.476,-1.191 0.714,-2.62 1.19,-4.049 0.477,-1.905 1.19,-3.81 1.19,-5.954 0.238,-1.905 0.715,-3.81 0.477,-5.715 -10e-4,-1.427 0.237,-2.856 -10e-4,-4.285 l 0,0 z m -1.667,9.05 c 0,0.476 0,0.952 0,1.19 -0.238,1.191 -0.477,2.381 -0.952,3.572 -0.715,2.62 -1.43,5.477 -2.62,8.097 -0.714,1.191 -1.429,2.381 -2.144,3.572 -1.19,1.667 -2.381,3.334 -3.334,5 -0.476,0.477 -1.19,0.953 -1.667,1.429 -0.714,1.429 -2.143,2.381 -3.333,3.334 -1.191,1.429 -2.858,2.143 -4.287,3.334 -1.667,1.429 -3.572,1.905 -5.478,3.095 -0.714,0.477 -1.667,0.715 -2.619,1.43 -0.715,0 -1.191,0.477 -2.144,0.715 -1.905,0.715 -4.048,0.953 -6.191,1.191 -1.19,0.236 -2.382,0.713 -3.572,0.713 -1.19,0.238 -2.144,0.238 -3.096,0.238 -0.953,0 -1.667,0.238 -2.62,0 -0.714,-0.238 -1.667,0 -2.62,0 -1.905,0 -3.81,0 -5.477,-0.715 -1.191,-0.236 -2.62,-0.713 -4.048,-0.951 -1.667,-0.715 -3.334,-1.191 -5.001,-1.906 -2.144,-0.951 -4.287,-1.904 -6.192,-3.571 -1.19,-0.953 -2.381,-1.429 -3.572,-2.382 -1.429,-1.19 -3.096,-2.381 -4.049,-4.048 -0.714,-0.476 -1.19,-1.19 -1.667,-1.905 0,-0.238 -0.476,-0.238 -0.476,-0.714 -0.953,-1.429 -1.905,-2.619 -2.62,-4.048 -0.477,-0.238 -0.477,-0.952 -0.714,-1.19 -0.953,-1.667 -1.905,-3.334 -2.62,-5.239 -0.476,-0.953 -0.714,-2.143 -1.19,-3.096 -0.238,-0.953 -0.477,-1.905 -0.715,-3.096 0,-0.476 -0.238,-0.714 -0.476,-1.19 -0.476,-1.905 -0.476,-3.81 -0.714,-5.954 -0.238,-0.952 -0.476,-1.667 -0.476,-2.62 0,-1.19 0,-2.619 0.238,-3.81 0,-1.667 0.714,-3.096 0.953,-5.001 0.476,-1.667 0.714,-3.572 1.667,-5.239 0,-0.477 0.476,-0.953 0.476,-1.667 0.953,-1.667 1.191,-3.334 2.144,-5 0.714,-1.429 1.905,-2.858 2.381,-4.287 0.476,-1.191 1.429,-2.144 2.143,-3.334 0.714,-0.714 1.429,-1.667 2.382,-2.144 0.476,-0.476 0.953,-0.952 1.429,-1.429 1.667,-0.953 2.857,-2.62 4.524,-3.572 0.953,-0.238 1.429,-0.953 2.144,-1.19 1.19,-0.953 2.381,-1.429 3.572,-1.905 1.667,-0.714 3.096,-1.905 5.001,-2.144 1.429,-0.476 2.857,-0.714 4.048,-0.952 0.952,-0.238 1.905,-0.477 2.857,-0.714 1.19,0 2.381,-0.238 3.572,-0.477 1.905,-0.238 3.81,-0.238 5.715,-0.476 1.19,0.238 2.619,0.238 3.811,0.238 l 2.381,0.477 c 0.715,-0.238 1.429,0 2.144,0.238 2.381,0.238 4.524,0.714 6.43,1.667 1.19,0.715 2.382,1.191 3.572,1.905 2.382,0.715 4.524,2.381 6.668,4.048 0.952,0.953 1.905,1.667 2.857,2.62 1.667,1.667 3.572,3.572 5.239,5.239 0.477,0.953 1.19,1.905 1.667,2.62 0.952,1.429 2.144,2.857 2.857,4.287 1.429,2.619 2.144,5.477 2.858,8.335 1.429,3.572 1.429,7.858 1.429,11.907 -0.237,1.664 -0.237,3.569 -0.475,5.475 l 0,0 z"
       id="path6148"
       inkscape:connector-curvature="0"
       style="clip-rule:evenodd;fill:#bf2f38;fill-rule:evenodd" /><path
       d="m 289.661,321.125 c 0,0.714 0,1.429 -0.238,2.143 -0.238,0.238 -0.477,0.477 -0.715,0.477 0,-0.238 -0.238,0 -0.238,-0.238 0,-0.238 -0.238,-0.476 -0.714,-0.714 -0.238,0 -0.715,0 -0.953,0.238 -0.238,0.476 0,0.714 0,0.952 0.953,0.953 2.143,0 3.333,-0.238 0.238,0.238 0.715,0.476 0.953,0.714 0.714,0.714 0.952,1.429 0.714,2.381 -0.477,0.953 -1.429,2.144 -2.62,1.905 -0.238,0.238 -0.715,-0.238 -0.953,0 0,0.238 0,0.477 -0.238,0.715 -0.238,0 -0.476,0 -0.714,-0.238 -0.238,-0.238 0.238,-0.714 0,-1.191 0,-0.476 -0.476,-0.953 0.238,-1.429 0.476,0 0.952,0.476 1.667,0.953 0.476,0 0.952,-0.238 1.19,-0.715 0,-0.238 0,-0.476 0,-0.714 -0.238,-0.238 -0.476,-0.477 -0.714,-0.477 -0.714,0.238 -1.191,0.714 -1.905,0.714 -0.715,0 -1.429,-0.238 -1.905,-0.952 -0.238,-0.715 -0.714,-1.429 -0.477,-2.144 0.238,-0.476 0.953,-1.191 1.429,-1.429 0.476,-0.238 0.953,0 1.429,0 0.716,0.002 0.716,-1.189 1.431,-0.713 l 0,0 0,0 z"
       id="path6150"
       inkscape:connector-curvature="0"
       style="clip-rule:evenodd;fill:#bf2f38;fill-rule:evenodd" /><path
       d="m 324.905,323.745 c 0.238,0.238 0.238,0.714 0.715,0.952 0.238,0 0.476,-0.238 0.715,0.238 -0.239,0.477 -0.953,0.714 -1.191,0.953 l -0.952,0.714 c 0,0 -0.238,0 -0.238,-0.238 -0.238,-0.476 0.477,-0.952 0.238,-1.429 -0.238,-0.238 -0.477,-0.714 -0.715,-0.714 -0.238,0 -0.477,0 -0.714,0.238 -0.477,0.953 0.476,1.429 0.714,2.143 0.238,0.238 0.477,0.714 0.715,1.191 0,0.714 -0.238,1.429 -0.715,1.905 -0.714,0.476 -1.667,0.714 -2.619,0.476 -0.477,-0.238 -0.953,-0.476 -1.43,-0.953 l -0.476,-0.714 c -0.238,-0.238 -0.715,0 -0.952,-0.238 0,-0.238 0,-0.476 0.237,-0.714 l 1.19,-1.429 c 0.239,0 0.477,0 0.477,0 0.238,0 0.238,0.238 0.238,0.476 0,0.476 -0.476,0.714 -0.476,1.191 0,0.476 0.714,0.952 0.952,1.19 0.238,0 0.714,0 0.952,0 0.477,-0.238 0.715,-0.714 0.477,-0.953 0,-0.714 -0.952,-1.191 -1.19,-1.905 0,-0.714 -0.238,-1.429 0.238,-1.905 0.714,-0.953 1.667,-1.19 2.857,-1.19 0.239,0.239 0.716,0.477 0.953,0.715 l 0,0 z"
       id="path6152"
       inkscape:connector-curvature="0"
       style="clip-rule:evenodd;fill:#bf2f38;fill-rule:evenodd" /><path
       d="m 280.85,325.888 c 0,0.714 -0.476,1.19 0,1.667 0.476,0.953 1.429,1.667 1.667,2.62 0.476,0.238 0.476,0.714 0.953,0.952 0.476,0.238 1.19,-0.476 1.19,0.238 0,0.477 -0.714,0.477 -0.953,0.715 -0.476,0.476 -1.19,0.952 -1.429,1.428 0,0.239 -0.238,0.239 -0.477,0.239 -0.238,-0.715 0.238,-1.429 0,-1.905 -0.238,-0.477 -0.714,-0.715 -0.714,-1.191 -0.714,-0.952 -1.667,-1.905 -2.62,-2.62 -0.238,0 -0.715,0.238 -0.953,0 0,-0.238 0.238,-0.476 0.476,-0.714 0.714,-0.477 1.429,-0.953 2.144,-1.667 0.24,0 0.477,0 0.716,0.238 l 0,0 z"
       id="path6154"
       inkscape:connector-curvature="0"
       style="clip-rule:evenodd;fill:#bf2f38;fill-rule:evenodd" /><path
       d="m 327.525,328.031 c 0.476,0.238 0.476,0.714 0.476,1.429 0,0.476 -0.714,0.952 -1.19,0.952 -0.476,0 -1.19,0 -1.429,-0.476 -0.239,-0.476 0,-1.191 0.238,-1.429 0.238,-0.477 0.476,-0.714 0.715,-0.714 0.476,0 0.952,0 1.19,0.238 l 0,0 z"
       id="path6156"
       inkscape:connector-curvature="0"
       style="clip-rule:evenodd;fill:#bf2f38;fill-rule:evenodd" /><path
       d="m 274.896,331.604 c 0,0.238 0,0.477 0,0.714 -0.238,0 -0.476,0.238 -0.714,0.238 -0.238,-0.238 -0.238,-0.476 -0.476,-0.238 -0.239,0.238 -0.239,0.477 -0.239,0.477 0.239,0.238 0.477,0.238 0.715,0.238 0.952,0 1.429,-1.19 2.381,-0.952 0.476,0 0.953,0.476 1.19,0.476 0.477,0.714 1.429,0.952 1.429,1.905 0,0.476 0.238,0.952 0,1.429 -0.477,0.477 -0.953,1.429 -1.905,1.667 0,0 -0.238,-0.238 -0.476,0 -0.238,0.238 0,0.714 -0.477,0.714 -0.476,0.238 -0.714,-0.477 -0.953,-0.953 -0.238,-0.238 -0.238,-0.714 -0.476,-1.19 0,-0.238 0.238,-0.238 0.238,-0.238 0.953,0 1.905,0.953 2.62,0 0.238,-0.238 0.238,-0.477 0.238,-0.714 -0.238,-0.477 -0.476,-0.953 -0.953,-0.953 -1.19,0 -1.905,0.714 -2.857,0.953 -0.715,0 -1.429,-0.477 -1.905,-0.953 -0.238,-0.715 -0.238,-1.429 0,-2.143 0.238,-0.477 0.953,-0.477 0.953,-1.191 0.238,0 0.238,-0.477 0.477,-0.238 0.714,-10e-4 0.714,0.713 1.19,0.952 l 0,0 z"
       id="path6158"
       inkscape:connector-curvature="0"
       style="clip-rule:evenodd;fill:#bf2f38;fill-rule:evenodd" /><path
       d="m 307.997,332.556 c 0,0.476 0,0.952 -0.237,1.667 0,0 0,0 -0.238,0 -0.715,0 -0.477,-1.191 -1.429,-1.191 -0.714,0.953 -0.476,2.381 -0.476,3.572 0.238,0.238 0.238,0.714 0.714,0.953 0,0.238 0,0.238 -0.238,0.476 -0.476,0 -0.714,-0.238 -1.19,-0.238 -0.476,0 -1.191,0 -1.667,-0.238 l 0,-0.238 c 1.191,-0.714 0.952,-2.143 0.952,-3.334 0,-0.238 0,-0.477 -0.238,-0.477 -0.477,-0.238 -0.714,0.239 -1.19,0.239 0,0.238 -0.238,0.238 -0.477,0 -0.238,-0.239 0,-0.477 0,-0.953 0,-0.238 0,-0.477 0.238,-0.477 1.19,-0.238 2.619,0 3.81,-0.238 0.476,0.239 1.429,10e-4 1.666,0.477 l 0,0 z"
       id="path6160"
       inkscape:connector-curvature="0"
       style="clip-rule:evenodd;fill:#bf2f38;fill-rule:evenodd" /><path
       d="m 313.951,333.747 c 0.238,0.238 0.477,0.238 0.714,0.476 0,0.714 -0.952,0.238 -1.19,0.714 -0.238,1.191 -1.429,2.381 -0.477,3.81 0,0 0,0.238 -0.237,0.238 -0.477,0 -0.953,-0.238 -1.191,-0.476 -0.476,-0.238 -0.952,-0.238 -1.19,-0.477 0,-0.476 0.477,-0.476 0.953,-0.714 0.714,-0.238 0.714,-1.19 0.952,-1.667 0,-0.476 0.238,-0.953 0.238,-1.429 -0.238,-0.238 -0.715,-0.476 -0.477,-0.715 0.238,-0.476 0.715,-0.238 0.952,-0.238 0.238,0.478 0.715,0.239 0.953,0.478 l 0,0 z"
       id="path6162"
       inkscape:connector-curvature="0"
       style="clip-rule:evenodd;fill:#bf2f38;fill-rule:evenodd" /><path
       d="m 335.146,332.08 c -0.238,-0.238 -0.477,-0.238 -0.714,-0.238 -1.668,0.476 -3.334,1.429 -5.001,1.905 -0.477,0 -0.953,0.238 -1.43,0 -0.237,0 -0.476,-0.239 -0.714,0 0,0.238 0,0.476 0,0.476 0.714,0.476 1.429,1.19 1.905,1.429 0.238,-0.238 0.238,-0.476 0.476,-0.714 0.953,0 1.43,0.714 1.905,1.429 0,0.238 0,0.476 0,0.714 -0.237,0.238 -0.476,0.238 -0.714,0.238 0,0 -0.238,-0.238 -0.477,0 l 0,0.238 c 0.477,0.238 0.953,0.714 1.19,1.19 0.238,0.238 0.477,0.715 0.715,0.715 0.238,-0.238 0.238,-0.715 0.238,-0.953 0,-1.191 0.714,-2.143 0.952,-3.334 0.24,-0.952 1.43,-1.904 1.669,-3.095 l 0,0 z m -2.858,3.096 c -0.477,0 -0.952,-0.477 -0.952,-0.953 0.237,-0.238 0.714,-0.238 0.952,-0.476 0.476,0 0.476,0.238 0.476,0.476 0,0.476 -0.238,0.715 -0.476,0.953 l 0,0 z"
       id="path6164"
       inkscape:connector-curvature="0"
       style="clip-rule:evenodd;fill:#bf2f38;fill-rule:evenodd" /><path
       d="m 297.281,336.128 c -0.477,-0.477 -0.714,-1.191 -1.429,-1.667 -0.238,-0.238 -0.477,-0.477 -0.715,-0.714 -0.238,0 -0.714,-0.239 -0.952,0 -0.714,0.476 -0.238,1.429 0,1.905 l -0.238,2.143 c 0,0.477 -0.238,1.191 -0.476,1.905 0.238,0.238 0.952,0 1.19,0 0.238,-0.238 0.714,-0.476 0.714,-0.714 0,-0.238 -0.238,-0.238 -0.238,-0.238 -0.238,0 -0.238,-0.238 -0.238,-0.476 0,-0.238 0.476,-0.477 0.714,-0.714 0.238,-0.238 0.714,-0.477 0.953,-0.238 0.238,0 0.238,0.476 0.238,0.476 0,0.477 -0.476,0.953 0,0.953 0.714,-0.238 1.191,-0.476 1.905,-0.714 l 0,-0.238 c -0.475,-0.478 -0.951,-0.954 -1.428,-1.669 l 0,0 z m -1.428,0.239 c -0.238,0.238 -0.477,0.238 -0.715,0.238 -0.238,-0.476 -0.476,-1.191 -0.238,-1.667 0.714,-0.238 0.714,0.714 0.953,0.953 0.239,0.239 0.238,0.476 0,0.476 l 0,0 z"
       id="path6166"
       inkscape:connector-curvature="0"
       style="clip-rule:evenodd;fill:#bf2f38;fill-rule:evenodd" /><path
       d="m 269.895,336.128 c 0,0.238 -0.238,0.476 -0.238,0.952 0.238,0.714 0.953,1.429 1.667,1.667 1.19,0.715 2.381,1.667 3.81,2.382 0,0.238 0,0.238 0,0.476 -0.476,0.476 -1.428,0.238 -2.381,0.238 -1.191,0 -2.62,0.238 -3.572,0.477 0.238,0.477 0.714,0.953 1.19,0.953 0.477,0.476 0.953,0.714 1.667,0.714 0.238,0 0.477,-0.476 0.715,-0.476 0.238,0.238 0.238,0.476 0.238,0.476 -0.714,0.953 -0.953,2.143 -1.429,3.096 -0.238,0.238 -0.477,0.238 -0.477,0.238 -0.238,-0.477 0,-0.714 0,-1.191 0,-0.714 -0.952,-1.19 -1.429,-1.428 -0.953,-0.715 -1.905,-1.191 -3.096,-1.191 -0.476,0 -0.476,0.476 -0.953,0.476 -0.476,-0.238 -0.238,-0.714 -0.238,-0.953 0.476,-0.714 0.952,-1.429 1.667,-1.667 1.429,-0.476 2.619,-0.714 4.048,-0.476 0.239,-0.238 0.477,0 0.715,-0.238 -0.476,-0.477 -1.191,-0.953 -1.667,-1.19 -0.477,-0.238 -0.953,-0.477 -1.429,-0.477 -0.238,0 -0.238,0.238 -0.714,0.238 0,-0.238 -0.238,-0.238 -0.238,-0.477 0,-0.238 0.238,-0.238 0.238,-0.476 0.477,-0.953 0.477,-1.905 1.191,-2.381 0.239,0 0.477,0 0.715,0.238 l 0,0 z"
       id="path6168"
       inkscape:connector-curvature="0"
       style="clip-rule:evenodd;fill:#bf2f38;fill-rule:evenodd" /><path
       d="m 320.857,338.271 c 0,-0.238 0,-0.953 -0.477,-0.953 -0.477,0.238 -1.19,0.714 -1.667,1.191 -0.714,0.714 -1.429,1.19 -2.382,1.667 -0.237,0.239 -0.476,0 -0.952,0.239 0,0 0,0 0.238,0.238 0.238,0 0.477,0.238 0.714,0.477 0.477,0 0.715,0.714 1.191,0.238 0,-0.238 -0.238,-0.476 -0.238,-0.476 0.952,-0.476 1.429,0.476 2.143,0.952 0,0 0.239,0.238 0.239,0.477 -0.477,0 -0.715,0 -0.953,-0.238 l -0.238,0.238 c 0,0.477 0.477,0.714 0.952,0.953 0,0.238 0.477,0.476 0.953,0.714 0.238,-0.238 0.238,-0.238 0.238,-0.476 -0.238,-0.714 -0.238,-1.905 0,-2.62 0.238,-0.238 0,-0.476 0.238,-0.715 -0.237,-0.715 0.24,-1.191 0.001,-1.906 l 0,0 z m -1.19,1.905 c -0.239,0 -0.477,0 -0.715,-0.238 -0.238,0 0,-0.238 0,-0.476 0.238,-0.238 0.715,-0.477 0.952,-0.715 l 0,0 c 0,0.477 0.239,1.191 -0.237,1.429 l 0,0 z"
       id="path6170"
       inkscape:connector-curvature="0"
       style="clip-rule:evenodd;fill:#bf2f38;fill-rule:evenodd" /><path
       d="m 339.671,339.224 c 0,0 0.237,0 0.476,0.238 0.477,0.476 1.429,0.953 1.429,1.667 -0.238,0.714 -0.477,1.19 -0.952,1.429 -0.477,0 -0.952,0.238 -1.429,0 0,-0.238 -0.238,-0.477 0,-0.715 0.238,-0.238 0.952,0 1.19,-0.476 0,-0.476 -0.238,-0.952 -0.714,-0.952 -0.477,-0.477 -1.191,-0.239 -1.905,0 -0.477,0.238 -0.953,0.476 -1.43,0.714 -0.476,0.476 -0.714,0.952 -0.476,1.429 0,0.238 0,0.714 0.238,0.714 0.476,0.476 1.429,0.238 1.667,0.714 0,0.476 -0.477,0.476 -0.715,0.715 -0.477,0 -1.429,0 -1.905,-0.239 -0.238,-0.714 -1.19,-1.19 -0.952,-1.905 -0.238,-1.667 1.429,-2.858 2.619,-3.572 0.954,-0.237 1.906,-0.237 2.859,0.239 l 0,0 z"
       id="path6172"
       inkscape:connector-curvature="0"
       style="clip-rule:evenodd;fill:#bf2f38;fill-rule:evenodd" /><path
       d="m 290.375,340.176 c -0.238,-0.238 -0.476,0 -0.714,0.239 -0.238,0.238 -0.238,0.476 -0.238,0.714 0,0.238 -0.238,0.476 -0.477,0.714 -0.238,0 -0.714,0 -0.714,-0.238 -0.476,-0.714 0,-1.667 -0.476,-2.143 -0.477,-0.238 -0.953,-0.715 -1.429,-0.715 -0.714,0 -1.429,0.238 -1.667,0.953 -0.476,0.715 -1.19,0.715 -1.905,1.191 0,0.238 0.238,0.476 0.238,0.476 0.477,0 0.953,0.238 1.191,0.476 0.476,0.715 0.953,1.429 1.429,1.905 0.476,0.477 0,1.191 0.476,1.667 0.238,0 0.477,0 0.477,0 l 1.429,-1.19 c 0.238,-0.477 0,-0.477 -0.238,-0.714 -0.238,-0.238 -0.477,0 -0.715,-0.238 0.953,-0.476 1.905,-0.238 2.62,-0.476 0.476,-0.238 0.953,-0.715 1.191,-1.191 -0.001,-0.477 -0.001,-1.191 -0.478,-1.43 l 0,0 z m -4.048,1.429 c -0.476,0 -0.714,-0.714 -1.19,-0.953 0.238,-0.238 0.238,-0.238 0.476,-0.477 0.476,0 0.714,0.239 0.953,0.477 -10e-4,0.239 -10e-4,0.477 -0.239,0.953 l 0,0 z"
       id="path6174"
       inkscape:connector-curvature="0"
       style="clip-rule:evenodd;fill:#bf2f38;fill-rule:evenodd" /><path
       d="m 327.525,343.987 c 0.714,0.476 0.952,1.191 1.19,1.905 0.238,0.238 0.477,0.714 0.238,0.952 -0.238,0.239 -0.715,0.239 -0.953,0.239 -0.237,0 0,-0.239 0,-0.239 -0.237,-0.714 -0.237,-1.429 -0.952,-1.429 0,0.238 -0.953,0.238 -0.714,0.953 0.237,0.238 0.476,0.238 0.476,0.476 0,0.477 -0.238,0.477 -0.476,0.715 l -0.239,0 c -0.237,-0.476 -0.714,-0.715 -0.714,-0.953 0,-0.238 -0.238,-0.238 -0.238,-0.238 -0.238,0.476 -0.714,0.476 -0.476,0.953 0.237,0.477 0.237,0.953 0.714,1.19 0.238,0 0.477,0 0.714,0 0.239,0 0.715,-0.238 0.953,0.238 0,0.238 -0.238,0.238 -0.477,0.477 -0.477,0 -1.19,0.476 -1.667,0.238 -0.714,-0.715 -0.714,-1.429 -1.19,-1.905 l 0,-0.238 c -0.477,-0.477 -0.952,-0.714 -1.429,-0.953 0,-0.238 0,-0.476 0,-0.476 0.238,-0.477 0.714,0 1.19,-0.238 0.715,-0.238 1.667,-0.714 2.382,-1.191 0.237,0 0.477,-0.476 0.714,-0.714 0,-0.238 -0.237,-0.476 0,-0.714 0,-0.238 0.238,-0.238 0.238,-0.238 0.478,0.475 0.478,0.952 0.716,1.19 l 0,0 z"
       id="path6176"
       inkscape:connector-curvature="0"
       style="clip-rule:evenodd;fill:#bf2f38;fill-rule:evenodd" /><path
       d="m 294.423,344.702 c 0,0 0.238,0 0.238,0.238 0,0.238 -0.238,0.238 -0.476,0.238 -0.238,0 -0.953,0.238 -1.429,0 0,-0.238 -0.238,-0.476 0,-0.476 0.477,-0.477 1.191,0 1.667,0 l 0,0 z"
       id="path6178"
       inkscape:connector-curvature="0"
       style="clip-rule:evenodd;fill:#bf2f38;fill-rule:evenodd" /><path
       d="m 280.611,345.892 c 0.238,0.714 -0.238,0.952 -0.714,1.191 -0.238,0.476 -0.238,1.19 0,1.667 0.238,0.477 0.477,0.953 1.191,1.191 l 0.952,-0.238 c 0.238,-0.238 0.477,-0.476 0.477,-0.714 -0.477,-0.238 -0.953,0 -1.191,-0.477 0,-0.476 0.238,-0.952 0.476,-1.19 0.477,0 1.191,0 1.667,0.238 0,0.238 0.476,0.238 0.476,0.476 l 0,0.238 c -0.238,0.714 -0.238,1.429 -0.476,2.143 -0.477,0.477 -1.191,0.477 -1.667,0.953 -0.476,0.238 -0.952,0 -1.428,0 -0.477,-0.714 -1.667,-0.953 -1.667,-1.905 -0.714,-1.191 -0.238,-2.62 0.477,-3.572 0.475,-0.239 1.19,-0.477 1.427,-10e-4 l 0,0 z"
       id="path6180"
       inkscape:connector-curvature="0"
       style="clip-rule:evenodd;fill:#bf2f38;fill-rule:evenodd" /><path
       d="m 304.664,346.844 c 0.238,0.477 -0.238,0.953 -0.477,1.429 0,0 0,0 -0.238,0 -0.238,-0.238 -0.238,-0.714 -0.238,-1.19 -0.238,-0.239 -0.476,-0.715 -0.476,-0.953 0.238,-0.238 0.238,-0.238 0.238,-0.238 0.714,0 0.953,0.476 1.191,0.952 l 0,0 z"
       id="path6182"
       inkscape:connector-curvature="0"
       style="clip-rule:evenodd;fill:#bf2f38;fill-rule:evenodd" /><path
       d="m 302.044,346.13 c 0.477,0.238 0.477,0.714 0.477,1.191 -0.238,0 -0.477,0.238 -0.715,0 -0.238,-0.238 -0.238,-0.714 -0.714,-0.714 0,0 -0.238,0 -0.476,-0.238 l 0,-0.238 c 0.476,-0.238 0.953,-0.238 1.429,-0.238 l 0,0.237 -0.001,0 z"
       id="path6184"
       inkscape:connector-curvature="0"
       style="clip-rule:evenodd;fill:#bf2f38;fill-rule:evenodd" /><path
       d="m 306.568,346.368 c 0.238,0.238 0.238,0.715 0.238,0.953 0,0.238 -0.238,0.714 -0.477,0.714 -0.238,0 0,-0.476 -0.476,-0.714 -0.238,0 -0.238,0.477 -0.715,0.238 0,-0.238 0,-0.476 0,-0.715 0,-0.238 0.238,-0.476 0.715,-0.714 0.239,0 0.477,0.238 0.715,0.238 l 0,0 z"
       id="path6186"
       inkscape:connector-curvature="0"
       style="clip-rule:evenodd;fill:#bf2f38;fill-rule:evenodd" /><path
       d="m 301.091,347.083 c 0,0.238 -0.238,0.238 -0.238,0.476 -0.238,0.238 -0.238,0.952 -0.714,0.714 -0.477,-0.476 0.238,-0.953 0.238,-1.429 0.238,0 0.714,-0.238 0.714,0.239 l 0,0 z"
       id="path6188"
       inkscape:connector-curvature="0"
       style="clip-rule:evenodd;fill:#bf2f38;fill-rule:evenodd" /><path
       d="m 295.376,347.559 c 0.238,0 0.238,0.238 0.238,0.238 -0.238,0.238 -0.477,0.238 -0.714,0.238 -0.477,0.238 -1.191,0 -1.667,0.238 -1.191,-0.238 -2.381,0 -3.572,0 -0.238,0 -0.238,0 -0.476,-0.238 0,0 0,-0.238 0.238,-0.238 0.952,-0.238 1.905,-0.238 2.857,-0.238 0.476,0 0.953,0 1.429,0 0.477,0 1.191,-0.238 1.667,0 l 0,0 z"
       id="path6190"
       inkscape:connector-curvature="0"
       style="clip-rule:evenodd;fill:#bf2f38;fill-rule:evenodd" /><path
       d="m 264.894,348.511 c 0.238,0.477 0.953,0.238 0.953,0.953 -0.238,0.238 -0.714,0 -0.953,0.238 -0.477,0.238 -1.191,0.477 -1.191,1.191 0,0.238 0.238,0.476 0.477,0.476 0.238,0.238 0.953,0.477 1.191,0 0,-0.238 -0.477,-0.476 -0.238,-0.714 0,-0.238 0.238,-0.238 0.238,-0.476 0.238,0 0.476,0.238 0.952,0.238 0.238,0 0.953,-0.238 1.191,0.238 0,0.476 -0.715,0.714 -1.191,1.191 0,0 0,0 0.238,0 0.714,0 1.429,0.238 2.143,0.476 0,-0.476 0,-1.191 0,-1.667 0.238,-0.714 -0.952,-1.19 -0.714,-1.905 0,-0.238 0.238,-0.238 0.477,-0.238 0.714,0.238 1.19,0.953 1.429,1.429 0.714,0.714 0.238,1.429 -0.238,2.143 -0.238,0.953 0,2.144 -0.476,2.858 0,0.238 0,0.714 0,0.714 -0.238,0.238 -0.477,0.238 -0.477,0.238 -0.714,-0.477 -0.714,-1.429 -1.667,-1.667 -0.953,-0.477 -2.144,-0.714 -3.334,-0.953 -0.714,-0.238 -0.714,0.953 -1.429,0.714 -0.476,-0.714 -0.238,-1.667 -0.238,-2.381 0.238,-1.191 0.715,-1.905 0.953,-3.096 0.238,0 0.476,0 0.476,-0.238 0.475,0 0.951,0.238 1.428,0.238 l 0,0 z"
       id="path6192"
       inkscape:connector-curvature="0"
       style="clip-rule:evenodd;fill:#bf2f38;fill-rule:evenodd" /><path
       d="m 297.758,348.511 c 0.238,0.238 0.238,0.238 0,0.238 -0.477,0.477 -1.191,0.238 -1.667,0.477 -0.953,0 -1.905,0.238 -2.858,0.238 -0.238,0 -0.238,-0.238 -0.238,-0.477 0.238,-0.238 0.714,0 1.191,-0.238 1.19,-0.238 2.381,-0.238 3.572,-0.238 l 0,0 0,0 z"
       id="path6194"
       inkscape:connector-curvature="0"
       style="clip-rule:evenodd;fill:#bf2f38;fill-rule:evenodd" /><path
       d="m 298.234,349.464 -0.238,0.238 c -0.714,0.477 -1.667,1.191 -2.858,1.429 -0.238,0 -0.476,-0.238 -0.476,-0.476 l 0,-0.238 c 1.191,-0.238 2.143,-0.714 3.096,-1.19 0,-10e-4 0.238,-10e-4 0.476,0.237 l 0,0 z"
       id="path6196"
       inkscape:connector-curvature="0"
       style="clip-rule:evenodd;fill:#bf2f38;fill-rule:evenodd" /><path
       d="m 345.386,349.702 c -0.238,-0.238 -0.477,-0.476 -0.715,-0.476 -0.476,0.238 -1.19,0 -1.904,0 -0.238,-0.238 -0.477,0 -0.715,0 -0.953,-0.477 -2.144,-0.238 -3.096,-0.715 l -0.953,-0.952 0,-0.238 c -0.237,-0.238 -0.476,-0.238 -0.714,0 0,0.238 -0.477,0.714 0,1.19 0.477,0.477 0.477,1.191 0.714,1.667 0,0.238 0.238,0.238 0.477,0.238 0.239,0 0.238,-0.238 0.238,-0.476 l 0.238,-0.238 c 0.477,0 0.715,0.238 0.952,0.477 0.238,0.238 0,0.952 0,1.429 0,0.238 0.238,0.476 0.238,0.953 -0.238,0.238 -0.238,0.238 -0.476,0.238 -0.477,0 -0.477,-0.476 -0.953,-0.476 -0.238,0 -0.238,0.238 -0.238,0.476 0.238,0.477 0.238,0.953 0.477,1.191 0,0.477 -0.238,0.953 0,1.429 0,0.238 0.238,0.477 0.477,0.477 0.714,-0.715 0.952,-1.429 1.429,-2.144 0.476,-0.714 1.429,-1.19 2.143,-1.905 0.477,-0.238 0.953,-0.953 1.43,-1.191 0.237,-0.238 0.476,-0.238 0.714,-0.476 0.237,-0.001 0.237,-0.24 0.237,-0.478 l 0,0 z m -4.049,1.667 c -0.238,0 -0.238,-0.238 -0.238,-0.238 l -0.237,-0.952 c 0.476,-0.477 0.952,-0.238 1.429,0 -10e-4,0.476 -0.478,0.952 -0.954,1.19 l 0,0 z"
       id="path6198"
       inkscape:connector-curvature="0"
       style="clip-rule:evenodd;fill:#bf2f38;fill-rule:evenodd" /><path
       d="m 313.236,358.514 c 0.238,0.238 -0.238,0.476 0,0.952 0,0.238 0,0.477 -0.238,0.715 -0.476,0 -0.714,-0.715 -1.429,-0.477 l 0,0.238 c -0.237,0.953 -0.476,1.905 -0.476,2.858 0,0.476 0.476,0.476 0.476,0.714 0,0.238 0,0.477 -0.237,0.477 -0.238,0 -0.477,0 -0.715,-0.238 -0.477,0.238 -0.952,0.476 -1.429,0.238 -0.238,0 -0.238,-0.238 -0.238,-0.477 0.238,-0.238 0.715,-0.476 0.715,-0.952 0,-0.953 0.237,-1.905 0,-2.858 -0.238,-0.238 -0.477,0 -0.715,0 -0.238,0 -0.238,0.714 -0.715,0.714 l -0.238,-0.238 0,-1.667 0,0 c 1.668,0 3.097,0 4.525,0 0.239,0.001 0.476,-0.238 0.714,0.001 l 0,0 z"
       id="path6200"
       inkscape:connector-curvature="0"
       style="clip-rule:evenodd;fill:#bf2f38;fill-rule:evenodd" /><path
       d="m 327.287,358.99 c 0,0.238 0,0.953 0,1.191 -0.238,0.238 -0.477,0 -0.715,0 -0.237,0 0,-0.238 -0.237,-0.238 0,-0.477 -0.239,-0.477 -0.715,-0.477 0,0 -0.238,0 -0.238,0.238 0,1.191 1.429,0.714 1.667,1.667 0.477,0.714 0.238,1.667 -0.238,2.143 -0.476,0.477 -1.667,0.477 -2.619,0.238 -0.238,0 -0.715,0.476 -1.191,0 l 0,-0.476 c 0.238,-0.476 0.715,-0.714 0.953,-1.191 l 0.238,0 c 0.238,0.715 0.714,1.429 1.429,1.191 0.238,0 0.715,0 0.715,-0.238 0.237,-0.238 0,-0.476 0,-0.714 -0.477,-0.714 -1.667,-0.714 -2.144,-1.429 0,-0.714 0,-1.429 0.477,-1.905 0.714,-0.476 1.667,-0.714 2.381,-0.238 l 0.237,0.238 0,0 z"
       id="path6202"
       inkscape:connector-curvature="0"
       style="clip-rule:evenodd;fill:#bf2f38;fill-rule:evenodd" /><path
       d="m 290.613,358.751 c 0,0.477 0,0.953 0,1.429 0,0.238 -0.477,0.238 -0.477,0 -0.476,0 -0.238,-0.477 -0.714,-0.477 -0.238,0 -0.477,0 -0.715,0.238 -0.238,0 -0.238,0.238 -0.238,0.476 0,0.238 0.238,0 0.477,0 0.477,0.477 0.714,0.714 0.477,1.191 0,0.476 -0.477,0.714 -0.953,0.714 -0.238,0.238 0,0.714 0.238,0.953 0.953,0.238 1.429,-0.714 2.144,-0.953 0.238,0 0.238,0 0.238,0.238 0,0.476 0,0.952 -0.477,1.19 -1.19,0.476 -2.62,0.238 -4.048,0.238 -0.238,0 -0.238,-0.238 -0.238,-0.477 0.953,-0.952 0.477,-2.381 0.477,-3.572 0,-0.477 0,-0.714 0,-0.953 l 0.238,-0.238 c 0.953,0 1.667,0 2.62,0 0.237,0.003 0.713,0.003 0.951,0.003 l 0,0 z"
       id="path6204"
       inkscape:connector-curvature="0"
       style="clip-rule:evenodd;fill:#bf2f38;fill-rule:evenodd" /><path
       d="m 304.902,358.99 c 0,0.238 0,0.238 0,0.476 -0.238,0 -0.476,0.238 -0.715,0.477 0.239,0.953 -0.238,1.667 -0.238,2.62 0.238,0.238 0.714,0.238 0.714,0.476 0.238,0.476 0,0.714 -0.238,0.714 -0.477,0.238 -1.191,0.238 -1.667,0.238 -0.238,0.238 -0.715,0.238 -0.953,0 -0.238,-0.238 -0.238,-0.477 -0.238,-0.714 0.238,-0.476 0.714,-0.238 0.953,-0.476 0.238,-0.953 0.238,-1.905 0.238,-2.858 0,-0.238 -0.477,-0.238 -0.715,-0.477 -0.238,-0.238 -0.238,-0.476 -0.238,-0.476 0.953,-0.238 1.905,-0.476 2.858,-0.238 0.239,-0.001 0.239,0.238 0.239,0.238 l 0,0 z"
       id="path6206"
       inkscape:connector-curvature="0"
       style="clip-rule:evenodd;fill:#bf2f38;fill-rule:evenodd" /><path
       d="m 281.088,358.99 c 0,0.238 0,0.476 -0.238,0.476 l -0.238,0.238 c 0,0.714 0.238,1.191 0.477,1.667 0.238,0.238 0.476,0 0.714,-0.238 l 1.191,-2.143 c 0.477,-0.476 1.191,-0.238 1.429,-0.238 0.238,0.238 0.238,0.238 0.238,0.477 -1.19,1.429 -2.381,3.096 -3.334,4.524 -0.238,0 -0.476,0 -0.476,-0.238 l 0,-0.476 -1.429,-3.096 c -0.238,-0.238 -0.476,-0.238 -0.476,-0.238 -0.238,-0.238 -0.238,-0.476 -0.238,-0.714 0.238,-0.238 0.477,-0.238 0.953,-0.238 0.474,-0.002 1.189,-0.239 1.427,0.237 l 0,0 z"
       id="path6208"
       inkscape:connector-curvature="0"
       style="clip-rule:evenodd;fill:#bf2f38;fill-rule:evenodd" /><path
       d="m 262.274,359.466 c 1.191,0.477 2.381,0.238 3.572,0.238 0.714,0 1.429,0.238 1.905,-0.476 0,0 0,-0.238 0.238,-0.238 0.238,0 0.477,-0.238 0.714,0 l 0,0.238 c 0,0.953 -0.238,1.905 0,2.857 0,0.238 0,0.477 -0.238,0.715 -0.477,0 -0.714,-0.953 -1.429,-0.953 -0.953,-0.238 -2.382,-0.238 -3.572,-0.238 -0.714,0 -1.191,0.476 -1.667,0.953 0,0 -0.238,0 -0.477,0 l 0,-0.477 c 0,-0.714 -0.476,-1.667 -0.238,-2.381 0,-0.476 0,-0.714 0.476,-0.953 0.478,0 0.478,0.715 0.716,0.715 l 0,0 z"
       id="path6210"
       inkscape:connector-curvature="0"
       style="clip-rule:evenodd;fill:#bf2f38;fill-rule:evenodd" /><path
       d="m 346.576,357.561 c -0.476,-0.714 -0.476,0.238 -0.714,0.477 -0.715,0.238 -1.429,0.238 -1.905,0.238 -1.19,-0.477 -2.144,0.238 -3.334,0 -0.238,0 -0.477,0 -0.715,-0.238 0,-0.238 -0.237,-0.477 -0.476,-0.477 -0.239,0 -0.238,0 -0.238,0.238 0.238,0.715 0.238,1.667 0.238,2.62 0,0.714 0.714,0.953 0.714,1.429 0.238,0.477 0.477,0.715 0.952,0.953 0.477,0.476 1.43,0.476 2.144,0.476 0.715,-0.238 1.429,-0.476 2.144,-0.953 l 0.715,-0.953 c 0,0 0,-0.476 0.237,-0.714 0,-0.476 0.477,-0.953 0.238,-1.667 0,-0.476 0.238,-0.953 0,-1.429 l 0,0 z m -1.429,3.334 c -0.714,0.952 -2.381,0.714 -3.572,0.714 -0.477,-0.238 -0.952,-0.477 -0.952,-0.953 -0.238,-0.238 -0.238,-0.476 0,-0.476 0.476,-0.477 1.19,-0.477 1.905,-0.238 0.476,0 1.19,0.238 1.667,0 0.238,0 0.714,0 0.952,0.238 0,0.238 0.239,0.477 0,0.715 l 0,0 z"
       id="path6212"
       inkscape:connector-curvature="0"
       style="clip-rule:evenodd;fill:#bf2f38;fill-rule:evenodd" /><path
       d="m 299.663,362.085 c -0.476,0 -0.476,0.715 -0.714,0.953 -0.476,-0.238 -1.19,-0.238 -1.429,-0.714 0,-0.714 0.715,-1.191 0.477,-1.905 0,-0.714 -0.238,-1.429 -0.953,-1.667 -0.714,-0.238 -1.667,0 -2.381,-0.238 -0.476,0.238 -0.714,0.238 -0.953,0.476 0,0.238 0,0.476 0.238,0.714 0.238,0.953 0,2.143 0,3.096 0,0.476 -0.476,0.714 -0.238,0.952 0.238,0.476 0.714,0 1.191,0.238 0,0 0.238,0 0.476,0 0.238,-0.238 0.238,-0.714 0.238,-0.953 0,-0.476 0.477,-0.238 0.714,-0.238 0.714,0.238 1.19,0.952 1.905,1.19 0.476,0 0.953,0.238 1.429,-0.238 0.238,-0.476 0.714,-0.952 0.477,-1.429 -10e-4,-0.237 -0.239,-0.475 -0.477,-0.237 l 0,0 z m -3.334,-1.19 c 0,0.476 -0.476,0.476 -0.714,0.476 -0.238,-0.238 0,-0.476 -0.238,-0.714 0,-0.238 0,-0.476 0,-0.476 0.477,-0.238 0.953,-0.238 1.191,0 -10e-4,0.237 -10e-4,0.714 -0.239,0.714 l 0,0 z"
       id="path6214"
       inkscape:connector-curvature="0"
       style="clip-rule:evenodd;fill:#bf2f38;fill-rule:evenodd" /><path
       d="m 320.857,363.276 c -0.715,-1.429 -1.667,-2.62 -2.144,-4.048 0,-0.238 -0.238,-0.477 -0.477,-0.477 -0.237,0 -0.476,0 -0.476,0.238 -0.238,1.667 -1.191,2.857 -2.144,4.287 -0.238,0.238 -0.477,0.476 -0.715,0.714 l 0,0.238 c 0.715,0 1.429,0 2.144,0 0,0 0.238,0 0.238,-0.238 0,-0.238 -0.238,-0.238 -0.238,-0.238 -0.238,0 0,-0.238 0,-0.238 0.238,-0.476 0.715,-0.714 1.429,-0.476 0.238,0 0.952,0 0.952,0.476 0,0.238 -0.237,0 -0.476,0 0,0.238 -0.238,0.238 -0.238,0.477 0,0.238 0.238,0.476 0.477,0.476 0.714,-0.238 1.429,-0.238 2.143,-0.476 0.001,-0.239 -0.236,-0.477 -0.475,-0.715 l 0,0 z m -2.143,-1.905 c -0.238,0.238 -0.477,0.238 -0.714,0.238 -0.238,0 -0.238,-0.477 -0.238,-0.714 0,-0.238 0.238,-0.477 0.476,-0.477 0.238,0 0.477,0 0.477,0.238 0,0.238 -10e-4,0.477 -10e-4,0.715 l 0,0 z"
       id="path6216"
       inkscape:connector-curvature="0"
       style="clip-rule:evenodd;fill:#bf2f38;fill-rule:evenodd" /><path
       d="m 268.228,365.896 c 0.238,0 0.714,0 0.714,0.238 0,0.477 0.238,0.953 0.238,1.429 0.238,0.952 0.238,2.143 0.714,2.857 0.238,0.238 0.476,0.715 0.476,0.953 -0.238,0.238 -0.238,0.476 -0.476,0.476 -0.953,0 -1.667,-0.238 -2.62,-0.238 -0.953,0.476 -1.667,0.714 -2.858,0.714 0,0 -0.238,0 -0.238,0.238 0,0.238 0,0.477 -0.238,0.714 -0.476,0 -0.476,-0.476 -0.714,-0.714 -0.476,-0.952 -1.191,-1.667 -0.953,-2.619 0.238,-0.238 0.238,-0.238 0.477,-0.238 0.476,0 0.714,0.714 1.429,0.476 0.476,0 0.953,0 1.667,0 0.714,-0.476 1.667,-0.238 2.381,-0.952 0,-1.429 -1.19,-2.144 -2.143,-3.096 0,-0.476 0.476,-0.238 0.476,-0.476 0.715,0 1.192,0.238 1.668,0.238 l 0,0 z"
       id="path6218"
       inkscape:connector-curvature="0"
       style="clip-rule:evenodd;fill:#bf2f38;fill-rule:evenodd" /><path
       d="m 339.908,367.325 c 1.19,0.714 2.62,0.714 3.811,0.953 0.477,0 1.19,0.476 1.429,0 0.238,-0.238 0.238,-0.477 0.477,-0.714 0.238,0 0.477,0.238 0.714,0.476 -0.237,0.476 -0.476,1.191 -0.714,1.667 -0.238,0.953 -0.715,1.905 -0.715,2.857 0,0.238 -0.238,0.477 -0.476,0.477 -0.477,0 -1.191,0 -1.667,-0.238 -0.238,0 -0.477,-0.238 -0.238,-0.476 0.476,-0.714 1.429,-0.714 1.905,-1.429 -0.238,-0.714 -0.953,-0.714 -1.43,-0.952 -0.237,0.476 0.477,0.952 -0.237,1.191 -0.477,0 -0.953,-0.477 -1.43,-0.477 -0.238,0 -0.238,0 -0.476,-0.238 0,-0.238 0,-0.476 0.237,-0.714 0.238,0 0.238,0 0.238,-0.238 0,-0.238 0,-0.477 -0.238,-0.477 -0.714,-0.238 -1.428,0 -1.666,0.477 -0.238,0.714 -0.477,1.667 0.238,2.381 0,0 0,0.238 -0.238,0.238 l -0.238,0 -1.429,-0.952 c -0.238,-0.239 0,-0.715 0,-0.953 0.237,-0.952 0.476,-1.905 0.952,-2.619 0,-0.477 0.238,-0.953 0.477,-1.191 0.714,-0.002 0.239,0.712 0.714,0.951 l 0,0 z"
       id="path6220"
       inkscape:connector-curvature="0"
       style="clip-rule:evenodd;fill:#bf2f38;fill-rule:evenodd" /><path
       d="m 284.184,373.04 0,0.238 c -0.477,0.953 -0.714,1.667 -0.714,2.858 l 0.238,0 c 0.714,-0.238 0.953,-0.714 1.667,-0.953 0.238,0.238 0.477,0.477 0.714,0.715 0.238,0.476 0.715,0.714 0.477,1.19 -0.477,0.238 -0.477,-0.238 -0.953,-0.238 -0.714,0.238 -1.429,0.714 -2.143,1.191 -0.238,0.476 -0.953,0.714 -1.429,0.953 0,0 -0.476,0 -0.476,-0.238 0,-1.191 0.714,-2.143 0.476,-3.334 0,-0.238 -0.238,-0.238 -0.476,-0.238 -0.476,0.477 -1.19,1.191 -1.429,1.905 -0.238,0 -0.238,0 -0.477,-0.238 -0.238,-0.238 -0.238,-0.714 -0.476,-0.952 0,-0.238 -0.238,-0.477 -0.238,-0.715 0.714,0 1.429,-0.476 2.144,-0.714 0.476,-0.476 1.19,-0.476 1.667,-1.191 0,0 0.238,-0.238 0.238,-0.476 0.238,-0.238 -0.238,-0.238 0,-0.476 0.238,0 0.477,0 0.477,0 0.236,0.236 0.474,0.475 0.713,0.713 l 0,0 z"
       id="path6222"
       inkscape:connector-curvature="0"
       style="clip-rule:evenodd;fill:#bf2f38;fill-rule:evenodd" /><path
       d="m 326.335,373.278 c 0,0.239 0.237,0.477 0,0.477 -0.477,0.238 -1.191,0.238 -1.667,0.714 -0.238,0.238 -0.477,0.238 -0.715,0.714 0.238,0.238 0.715,0.477 1.19,0.477 0.477,-0.238 -0.238,-0.953 0.477,-0.953 0.476,0 0.952,0.476 1.19,0.953 l 0,0.238 c -0.238,0.238 -0.715,0 -0.715,0.238 0,0.238 -0.237,0.477 0,0.714 0.239,0.238 0.477,0.238 0.715,0.238 0.477,-0.238 0.477,-0.476 0.715,-0.714 0.238,-0.714 -0.238,-0.953 -0.477,-1.429 0,0 0,-0.238 0.238,-0.477 0.714,0.238 1.19,0.953 1.905,1.191 0,0.238 -0.238,0.238 -0.238,0.476 -0.953,1.191 -1.667,2.381 -2.858,3.572 -0.237,0 -0.476,0 -0.476,0 -0.238,-0.238 0,-0.477 0,-0.953 -0.238,-0.714 -0.952,-1.667 -1.905,-2.143 -0.477,-0.238 -0.952,0.238 -1.19,0.476 -0.238,0.238 -0.477,0.238 -0.715,0 -0.238,0 -0.238,-0.238 -0.238,-0.476 0.238,-0.477 0.953,-0.714 1.191,-1.191 0.476,-0.953 1.19,-1.667 1.905,-2.62 0.477,-0.237 0.953,0.478 1.668,0.478 l 0,0 z"
       id="path6224"
       inkscape:connector-curvature="0"
       style="clip-rule:evenodd;fill:#bf2f38;fill-rule:evenodd" /><path
       d="m 337.051,374.707 0,0.476 c 0.715,0.953 1.667,1.667 2.62,1.905 0.714,0.715 1.666,0.953 2.381,1.429 0.238,0.238 0.477,0.477 0.477,0.714 -0.953,0.953 -2.382,0.477 -3.334,0.477 -0.238,0 -0.477,0 -0.477,0 -0.238,0.238 0,0.477 0,0.477 0.477,0.952 0.715,1.905 1.19,2.619 0,0.238 -0.237,0.238 -0.237,0.477 -0.715,0 -1.43,-0.477 -2.144,-0.953 -0.477,0 -0.715,-0.477 -0.953,-0.477 -0.952,-0.238 -1.429,-0.952 -2.381,-0.952 -0.477,0.238 -0.715,0.238 -0.953,0 0,-0.714 0.238,-1.191 0.715,-1.667 0.238,-0.238 0,-0.952 0.477,-0.714 0.714,0.238 0.476,0.953 0.952,0.953 0.477,0.238 1.19,0.238 1.667,0.715 0,0 0.238,0 0.238,-0.238 0.238,-0.715 -0.238,-1.191 -0.238,-1.905 0,-0.238 0.238,-0.238 0.477,-0.238 0.238,-0.239 0.476,0 0.476,-0.239 0,-0.238 -0.476,-0.238 -0.476,-0.476 -0.715,0 -1.429,-0.476 -1.667,0.238 -0.238,0 -0.477,0 -0.715,-0.238 0.238,-0.238 0.238,-0.476 0.477,-0.714 0.238,-0.476 0.238,-1.429 0.952,-1.905 0.238,-0.002 0.238,0.236 0.476,0.236 l 0,0 z"
       id="path6226"
       inkscape:connector-curvature="0"
       style="clip-rule:evenodd;fill:#bf2f38;fill-rule:evenodd" /><path
       d="m 274.658,380.661 c -0.238,-0.714 -0.238,-1.667 -1.191,-2.144 -0.476,0.477 0,1.191 -0.476,1.429 -0.238,0.238 -0.476,0.238 -0.714,0 -0.714,-0.238 -0.238,-0.953 -0.952,-1.191 -0.239,-0.476 -0.715,-0.714 -0.239,-1.191 0.239,-0.238 0.239,-0.714 0.715,-0.714 0.238,0 0.238,0.238 0.238,0.477 0,0 0.238,0.477 0.477,0.238 0,0 0.238,0 0.238,-0.238 0,-0.714 -0.715,-1.191 -0.953,-1.905 -0.238,-0.476 -0.238,-1.19 -0.715,-1.19 -0.476,0 -0.238,0.714 -0.238,0.952 -0.477,0.715 -0.953,1.429 -1.667,1.905 -0.477,0.715 -0.953,1.429 -1.667,2.143 l -0.476,0.953 c -0.239,0.238 -0.239,0.476 0,0.714 1.667,0.476 3.333,0.238 5.239,0.238 0.714,0 1.429,-0.238 2.144,0.238 0,0.238 0.238,0.476 0.476,0.476 0,0.238 0.238,0.238 0.476,0 -10e-4,-0.476 -0.477,-0.714 -0.715,-1.19 l 0,0 z m -4.049,-0.476 c -0.476,-0.238 -0.953,0 -1.429,0 -0.238,-0.238 -0.238,-0.238 -0.238,-0.477 0.477,-0.238 0.953,-1.191 1.429,-0.477 0.238,0.238 0.238,0.477 0.477,0.715 l -0.239,0.239 0,0 z"
       id="path6228"
       inkscape:connector-curvature="0"
       style="clip-rule:evenodd;fill:#bf2f38;fill-rule:evenodd" /><path
       d="m 290.137,379.708 c 0,-0.238 -0.238,-0.477 -0.476,-0.238 -0.953,0.238 -1.905,0.953 -2.857,1.429 -0.477,0 -0.953,0.476 -1.429,0.476 -0.476,0.238 -0.953,0 -1.19,0 -0.238,0 -0.238,0 -0.238,0.238 0.714,0.476 1.191,1.19 1.667,1.905 0.476,-0.238 0.238,-0.714 0.476,-0.952 0.477,-0.238 0.715,0 0.953,0 0.477,0.476 1.191,0.952 1.191,1.667 l -0.238,0 c 0,0.239 -0.476,0.477 -0.238,0.715 l 0.952,0.238 c 0.238,0.238 0.477,0.953 1.191,0.953 0,0 0,-0.238 0,-0.476 -0.955,-1.907 0.474,-3.812 0.236,-5.955 l 0,0 z m -1.429,2.62 c -0.238,0 -0.476,-0.477 -0.714,-0.714 0,0 -0.238,-0.238 0,-0.238 0.238,-0.238 0.714,-0.714 1.191,-0.714 l 0,0.238 c 0,0.475 -0.239,0.713 -0.477,1.428 l 0,0 z"
       id="path6230"
       inkscape:connector-curvature="0"
       style="clip-rule:evenodd;fill:#bf2f38;fill-rule:evenodd" /><path
       d="m 324.191,381.137 c -1.429,-0.238 -2.858,-0.714 -4.287,-1.19 -0.477,0 -0.714,-0.477 -1.19,0 -0.238,0.476 0.238,0.953 0.238,1.667 0.238,0.953 0.238,1.905 0,3.096 0,0.238 -0.477,0.714 -0.238,0.953 0.477,0.238 0.477,-0.238 0.714,-0.238 0.477,-0.476 1.191,-0.714 1.43,-1.191 0,-0.238 -0.477,0 -0.477,-0.238 -0.238,-0.477 0.238,-0.714 0.477,-1.191 0.476,0 0.714,-0.476 1.19,-0.476 0.477,0.238 0,0.476 0,0.714 0,0.238 0,0.238 0.238,0.238 0.714,-0.477 1.19,-1.191 1.905,-1.667 0,-0.239 0,-0.239 0,-0.477 l 0,0 z m -4.287,1.191 c -0.237,-0.238 -0.237,-0.953 -0.237,-1.191 0.237,-0.238 0.237,-0.238 0.476,0 l 0.953,0.238 c 0,0.238 0,0.238 0,0.238 -0.239,0.476 -0.715,0.953 -1.192,0.715 l 0,0 z"
       id="path6232"
       inkscape:connector-curvature="0"
       style="clip-rule:evenodd;fill:#bf2f38;fill-rule:evenodd" /><path
       d="m 294.423,382.328 c 1.429,0.476 2.62,0.953 4.049,1.429 0.238,0 0.238,0.238 0.476,0.238 0,0.477 -0.238,0.953 -0.476,1.19 0,0.238 -0.238,0.238 -0.477,0 -0.238,-0.238 -0.238,-1.19 -0.953,-0.953 -0.476,0 -0.714,0.715 -0.952,1.191 -0.238,0.476 -0.715,1.191 -0.715,1.667 0.238,0.476 0.715,0.714 0.953,1.19 0,0 0,0.238 -0.238,0.238 -0.477,0 -0.715,-0.238 -0.953,-0.238 -0.714,-0.238 -1.429,-0.238 -2.143,-0.714 l 0,-0.238 c 0.238,-0.238 0.714,-0.238 0.953,-0.238 0.476,-0.714 0.714,-1.667 0.953,-2.619 0.238,-0.239 0.476,-0.477 0.476,-0.715 -0.238,-0.238 -0.476,-0.476 -0.953,-0.476 -0.238,0.238 -0.476,0.714 -0.952,0.952 0,0 -0.238,0 -0.238,-0.238 0,-0.714 0.238,-1.191 0.476,-1.667 0.238,-0.238 0.477,10e-4 0.714,10e-4 l 0,0 z"
       id="path6234"
       inkscape:connector-curvature="0"
       style="clip-rule:evenodd;fill:#bf2f38;fill-rule:evenodd" /><path
       d="m 331.812,384.232 c 0.238,0.715 0.952,1.191 1.429,1.667 0.953,0.715 1.667,1.429 2.858,1.429 0.237,0 0.952,0 0.952,0.238 0.238,0.714 -0.477,0.714 -0.715,0.953 -0.476,0.477 -0.952,0.953 -1.429,1.429 0,0.238 -0.238,0.238 -0.238,0 -0.237,-0.238 -0.237,-0.477 -0.476,-0.953 -0.238,-0.238 -0.477,-0.953 -0.953,-1.191 -0.714,-0.476 -1.429,-1.429 -2.381,-1.905 -0.477,0 -0.715,0.953 -1.191,0.238 0,-0.714 0.715,-1.19 0.953,-1.905 0.238,-0.238 0.477,-0.714 0.952,-0.952 0.477,0 0,0.715 0.239,0.952 l 0,0 z"
       id="path6236"
       inkscape:connector-curvature="0"
       style="clip-rule:evenodd;fill:#bf2f38;fill-rule:evenodd" /><path
       d="m 317.047,385.662 c 0,-0.238 -0.238,-0.238 -0.477,-0.238 -0.239,0 -0.476,0.476 -0.476,0.714 0,0.238 -0.477,0.238 -0.715,0.238 -0.238,0 -0.715,-0.238 -0.715,-0.477 0,-0.714 0.477,-1.667 -0.237,-2.381 -0.477,-1.19 -1.905,-0.952 -2.858,-0.476 -0.714,0.476 -1.429,0.476 -2.143,0.953 0,0.238 0.238,0.238 0.238,0.477 0.237,0.238 0.714,0 0.952,0 0.238,0.238 0.477,0.714 0.715,1.19 0.237,0.476 0.476,1.19 0.714,1.905 0,0.477 -0.477,0.953 0,1.191 0.238,-0.238 0.715,-0.238 1.19,-0.477 0.477,-0.238 -0.238,-0.476 0,-0.952 l 0.238,-0.238 c 0.238,0.238 0.715,0.238 0.953,0.476 1.19,0 2.381,-0.238 2.857,-1.19 0.002,-0.239 0.002,-0.715 -0.236,-0.715 l 0,0 z m -3.572,-0.239 c 0,0.238 -0.238,0.238 -0.477,0 -0.237,0 -0.237,-0.476 -0.476,-0.714 0,-0.238 -0.477,-0.477 -0.238,-0.714 0.714,-0.238 1.19,0 1.429,0.477 0.238,0.475 0,0.713 -0.238,0.951 l 0,0 z"
       id="path6238"
       inkscape:connector-curvature="0"
       style="clip-rule:evenodd;fill:#bf2f38;fill-rule:evenodd" /><path
       d="m 303.949,384.471 c 0,0.238 -0.238,0.238 -0.238,0.476 -0.238,0 -0.476,0 -0.476,0.238 -0.238,1.191 -0.238,2.381 0.238,3.334 0.238,0.477 0.714,0.477 1.191,0.477 0.953,-0.477 0.714,-1.905 0.953,-2.858 0,-0.476 0.238,-0.953 0,-1.19 0,-0.238 -0.238,-0.238 -0.238,-0.238 0,-0.238 0,-0.238 0.238,-0.238 0.476,-0.239 0.952,0.238 1.667,0 l 0.238,0.238 c 0.238,0.238 0,0.476 -0.238,0.476 -0.238,0 -0.238,0.238 -0.477,0.238 -0.477,1.429 -0.238,3.096 -1.19,4.048 -0.714,0.477 -1.667,0.714 -2.381,0.238 -1.667,-0.953 -0.714,-3.096 -1.191,-4.525 0,-0.238 -0.476,0 -0.476,-0.476 0,0 -0.238,-0.238 0,-0.477 0.476,-0.238 1.191,-0.238 1.905,0 -10e-4,0 0.237,0 0.475,0.239 l 0,0 z"
       id="path6240"
       inkscape:connector-curvature="0"
       style="clip-rule:evenodd;fill:#bf2f38;fill-rule:evenodd" /><path
       d="m 279.42,386.138 c 0,0.953 0.477,1.429 1.191,1.667 0.238,0.238 0,0.476 -0.238,0.476 -0.238,0 -0.715,0 -1.191,0.238 -0.238,0.238 -0.714,0 -1.191,0.238 -0.238,0 -0.476,0 -0.476,-0.238 l 0,-0.238 c 0.238,-0.238 0.714,-0.238 0.714,-0.714 0.238,-0.714 -0.238,-1.19 -0.714,-1.667 -0.477,0 -0.714,-0.238 -0.953,0 -0.476,0.238 -0.476,0.715 -0.238,1.191 0.238,0.714 0.477,1.19 0.714,1.905 0,0.714 -0.238,1.667 -0.952,2.143 -0.477,0.238 -0.953,0.714 -1.667,0.477 -0.477,0 -0.953,-0.477 -1.191,-0.953 -0.476,-0.477 -0.953,-1.191 -1.191,-1.667 0,-0.477 0.477,-0.477 0.715,-0.715 l 1.19,-0.238 c 0.477,0.238 -0.477,0.476 -0.477,0.953 0,0.476 0.239,0.953 0.715,1.19 0.238,0.238 0.714,0 0.952,-0.238 0.238,0 0.238,-0.477 0.238,-0.714 -0.238,-1.191 -0.952,-2.144 -0.714,-3.572 0.238,-0.238 0.476,-0.714 0.953,-0.953 0.953,-0.477 2.143,0 3.096,0.714 0.239,0.239 0.478,0.476 0.715,0.715 l 0,0 z"
       id="path6242"
       inkscape:connector-curvature="0"
       style="clip-rule:evenodd;fill:#bf2f38;fill-rule:evenodd" /><path
       d="m 329.431,394.234 c -0.238,-1.429 -0.715,-2.619 -0.953,-4.048 0,-0.476 -0.238,-1.19 0,-1.667 0.238,-0.476 0.477,-0.714 0.477,-1.19 0,-0.238 -0.238,-0.238 -0.477,-0.238 -0.238,0.476 -0.714,0.714 -1.429,0.953 -0.238,0.476 -0.714,0.476 -0.953,0.953 0.239,0.238 0.477,0.238 0.715,0.238 0.238,0 0.238,0.476 0.238,0.476 -0.477,0.714 -1.19,1.191 -1.905,1.429 0,0 -0.238,0 -0.476,-0.238 -0.238,-0.477 0.237,-0.715 0.237,-0.953 0,-0.238 -0.237,-0.238 -0.237,-0.238 -0.715,0.476 -1.43,0.714 -1.905,1.429 -0.238,0.238 -0.477,0.238 -0.477,0.477 0,0.238 0.238,0.476 0.238,0.476 0.238,0.238 0.476,0.238 0.714,0 1.191,0.238 2.382,0.714 3.334,1.429 0.953,0.238 1.429,1.191 1.905,1.429 0.477,0.238 0.953,0.238 1.19,0 0.239,-0.24 0.001,-0.478 -0.236,-0.717 l 0,0 z m -1.43,-1.667 c -0.476,0 -0.476,-0.238 -0.952,-0.476 0,0 0,0 -0.238,-0.238 l 0.238,0 c 0.238,-0.238 0.715,-1.19 0.952,-0.476 0.238,0.476 0,0.714 0.238,0.953 -0.238,0.237 -0.238,0.237 -0.238,0.237 l 0,0 z"
       id="path6244"
       inkscape:connector-curvature="0"
       style="clip-rule:evenodd;fill:#bf2f38;fill-rule:evenodd" /><path
       d="m 338.003,353.274 c -0.476,-2.381 -1.667,-4.287 -2.381,-6.668 -0.715,-0.953 -0.953,-1.905 -1.667,-3.096 -0.238,-0.477 -0.238,-1.191 -0.715,-1.905 -0.237,-0.476 -0.714,-0.953 -1.19,-1.667 -0.714,-0.476 -0.952,-1.429 -1.905,-1.905 -1.19,-1.667 -2.619,-2.857 -4.049,-4.286 -0.714,-0.239 -1.428,-0.953 -2.143,-1.429 -0.715,-0.238 -1.429,-0.953 -2.382,-1.191 -1.19,-0.714 -2.381,-1.428 -3.571,-1.905 -0.477,-0.238 -0.953,-0.477 -1.191,-0.714 -0.952,-0.238 -1.905,-0.953 -2.857,-1.191 -0.477,0 -0.953,0.238 -1.429,0 -0.238,-0.714 0.238,-1.429 0.476,-2.143 0.477,-0.714 1.43,-0.238 2.144,-0.714 0.238,-0.238 0.238,-0.477 0.238,-0.953 -0.477,-0.476 -0.952,-0.953 -1.905,-0.953 -1.19,0.238 -2.143,0.953 -3.096,1.667 -0.477,0.476 -0.952,-0.238 -1.667,-0.238 -0.238,-0.238 -0.715,-0.714 -0.715,-1.19 0,-0.477 0.477,-0.715 0.953,-0.953 0.715,-0.714 1.905,-0.477 2.619,-0.238 0.477,0 0.715,-0.476 0.715,-0.714 0,-0.238 0,-0.714 -0.238,-0.953 -0.238,-0.239 -0.714,-0.476 -1.19,-0.476 -1.19,-0.238 -2.858,-0.477 -4.049,0.476 -0.477,0.238 -0.952,0.953 -1.429,0.953 -0.714,-0.477 -1.667,-0.714 -2.381,-1.191 l -0.953,-0.476 c -1.19,-0.238 -2.143,0.476 -2.857,1.429 0,0.477 -0.477,1.191 0,1.667 0.238,0.238 0.476,0.238 0.714,0.238 0.476,0 0.714,-0.477 0.714,-0.714 0.238,-0.238 0.476,0 0.714,0 0.476,0 0.714,0.476 0.953,0.714 0.238,0.477 -0.238,0.953 -0.714,1.429 -0.238,0.238 -0.714,0.238 -1.191,0 -1.19,-0.714 -2.619,-1.905 -4.286,-1.19 -0.715,0.238 -1.667,0.953 -1.667,1.905 0.238,0.715 0.953,0 1.429,0 0.714,0 1.429,0 1.905,0.715 0.238,0.476 0,0.952 -0.239,1.19 -1.19,0.476 -2.381,0.476 -3.333,0.714 -1.191,0.238 -1.905,0.714 -2.858,1.191 -1.667,0.714 -3.572,1.191 -5.001,2.381 -1.19,0.714 -2.143,1.667 -3.096,2.381 -0.953,0.953 -2.143,1.429 -3.096,2.62 -0.477,0.714 -1.191,1.429 -1.905,2.143 -0.477,0.714 -1.191,0.953 -1.429,1.667 -0.714,0.953 -1.429,1.667 -1.905,2.62 -1.667,2.382 -3.096,4.763 -3.811,7.621 -0.476,1.429 -0.952,2.62 -0.952,4.048 -0.477,0.714 -0.477,1.429 -0.477,2.144 -0.238,0.952 -0.238,2.143 -0.238,3.333 0.238,1.667 -0.238,3.811 0.476,5.239 0.476,3.334 1.429,6.191 2.381,9.049 0.714,1.191 0.953,2.62 1.667,3.81 1.905,2.858 3.81,5.954 6.192,8.812 0.953,1.19 2.381,1.905 3.572,3.096 1.667,1.191 3.334,2.144 5.239,2.858 0.953,0.476 2.144,0.953 3.334,1.19 1.429,0.714 3.096,0.714 4.763,1.191 0.953,0.238 2.144,0 3.096,0.238 0.476,0.477 0.952,0.715 1.429,1.191 0,0.238 0,0.714 0,1.19 -0.477,1.191 -0.477,2.383 -1.429,3.572 -0.477,0.477 -1.191,0.715 -1.905,0.953 -0.953,0.477 -2.143,-0.477 -2.858,0.477 0,0 0,0.238 0.238,0.477 0.714,0.236 1.905,0.236 2.858,0.236 0.476,0.238 1.429,0.238 1.905,0.238 0.714,-0.475 1.429,-0.475 1.905,-0.713 0.714,-0.238 1.19,-0.715 1.905,-0.715 l 2.143,0.953 c 1.43,0 2.858,0.236 4.287,0 0.477,0 0.952,-0.477 1.19,-0.953 0.238,-0.238 0.238,-0.477 0,-0.715 -0.238,-0.238 -0.476,0 -0.952,0 -0.953,-0.238 -2.144,-0.477 -2.858,-1.428 -0.714,-0.953 -1.429,-2.383 -0.952,-3.811 0.238,-0.477 0.952,-0.477 1.667,-0.715 2.144,-0.476 4.524,-0.714 6.43,-1.667 1.667,-0.476 3.096,-1.19 4.763,-1.905 1.429,-0.953 2.62,-1.667 4.049,-2.62 1.905,-1.191 3.334,-3.096 5.001,-4.763 0.714,-0.714 1.19,-1.667 1.905,-2.381 1.19,-1.429 2.144,-3.096 2.857,-4.524 0.715,-0.953 1.19,-1.905 1.667,-2.858 0.952,-1.667 1.429,-3.81 2.144,-5.954 0.238,-1.667 0.476,-3.572 0.952,-5.239 0.238,-0.953 0.238,-2.144 0.238,-3.096 0,-2.381 -0.239,-4.763 -0.715,-6.906 l 0,0 z m -29.529,-27.624 0.238,0 c 0,-0.238 0.238,-0.476 0.238,-0.476 0.477,0 0.715,0.714 1.19,0.714 0.477,0 0.715,-0.714 1.191,-0.953 0.476,-0.238 0.952,-0.714 1.666,-0.953 l 0,0 0,0 c -0.952,0.714 -1.666,1.429 -1.666,2.381 -0.238,1.191 0,2.144 0.476,3.334 0.238,0 0.477,0.238 0.715,0.238 0.238,-0.238 0.238,-0.238 0.476,-0.238 -0.237,-0.477 -0.237,-0.953 -0.476,-1.429 0,0 0,0 0.238,0 0.476,-0.238 0.714,0.238 1.19,0.238 l 0,0.238 c 0,0.238 -0.477,0 -0.477,0.477 0,0.238 0,0.477 -0.238,0.714 -0.238,0.238 -0.238,0.238 -0.476,0.238 -0.953,0 -1.667,-0.714 -2.144,-1.429 l -0.477,-1.667 c -0.238,-0.476 -0.714,-0.238 -1.19,-0.238 -0.238,-0.238 -0.715,-0.238 -0.715,-0.476 -0.236,-0.237 -0.236,-0.713 0.241,-0.713 l 0,0 z m -0.953,43.818 c 0.714,0.714 1.667,1.19 1.667,2.143 0.238,1.19 0.477,2.857 -0.477,3.81 -0.477,1.191 -1.19,2.62 -2.62,3.096 -0.953,0.714 -2.857,0.477 -3.81,-0.238 -0.477,-0.238 -0.953,-0.715 -1.191,-1.191 -0.952,-1.429 -1.429,-3.811 -0.476,-5.477 0.476,-1.191 1.667,-2.62 3.096,-2.858 1.191,0 2.381,0.238 3.334,0.477 l 0.238,-0.238 c 0,-0.714 -0.715,-0.953 -1.191,-1.191 -0.714,-0.238 -1.667,0 -2.62,0 -1.19,0.238 -2.381,0.714 -3.333,1.429 -1.905,1.429 -2.62,3.572 -2.858,5.715 0,1.19 0.477,2.143 0.953,3.096 0.714,1.19 1.905,1.429 3.096,2.144 0.714,0 1.667,0.476 2.381,0.714 0.238,0 0.238,0.238 0.238,0.476 -0.238,0.714 -1.19,0.238 -1.667,0.238 -1.191,-0.238 -2.143,-0.238 -3.096,-0.714 -0.953,-0.238 -1.667,-0.477 -2.382,-1.191 -0.238,0 -0.238,-0.238 -0.238,-0.238 0.238,-0.714 0.476,-1.429 0.952,-1.905 0,-0.238 0,-0.476 0,-0.714 -0.238,0 -0.476,-0.238 -0.714,-0.238 -0.714,0.714 -0.714,1.667 -1.429,2.381 -0.953,0.238 -1.667,-0.477 -2.381,-0.953 -0.476,-0.477 -0.476,-1.191 -0.238,-1.905 0.715,-1.429 1.667,-2.381 2.144,-3.81 0.714,-0.953 0.953,-2.381 1.905,-3.334 0.477,-0.953 0.714,-1.905 1.667,-2.381 0.952,-0.477 2.143,-0.238 2.857,0.714 0.238,0 0.476,-0.238 0.714,-0.238 0.477,-0.238 0.953,-0.238 1.429,0 0.238,0.238 0.477,0.477 0.714,0.238 0.715,0 0.953,-0.238 1.667,-0.476 0.714,-0.238 1.667,-0.238 2.381,0.238 0.477,0.238 0.477,0.953 0.477,1.429 0.238,0.238 0.238,0.477 0,0.477 -0.477,0.238 -0.952,-0.238 -1.19,0.238 l 0,0.237 0.001,0 z m 13.812,1.905 c 0.238,0.714 1.191,1.19 0.477,2.144 -0.477,1.19 -1.905,2.143 -2.857,3.096 -0.238,0.238 -0.477,0.238 -0.715,0.238 -0.952,-1.429 -1.429,-3.096 -2.381,-4.524 -0.238,-0.714 -0.477,-1.429 -0.953,-2.144 -0.238,-0.714 -1.19,-1.429 -1.19,-2.381 0,-0.238 0.238,-0.476 0.477,-0.714 0.952,0 1.667,0 2.619,0.238 l 0.477,0.238 c 1.427,1.189 2.617,2.618 4.046,3.809 l 0,0 z m -2.381,-4.524 0.238,0 c 1.667,-0.238 3.334,-0.715 5.001,-0.238 l 0.477,0.238 0.237,0.238 c 0.238,1.667 -0.714,2.858 -1.667,4.287 -0.714,0 -0.952,-0.477 -1.429,-0.953 -0.714,-0.952 -1.429,-1.905 -2.382,-2.62 -0.237,-0.238 -0.475,-0.476 -0.475,-0.952 l 0,0 z m -3.572,7.144 c 0.715,1.19 1.19,2.381 1.905,3.334 0.238,0.238 0.238,0.477 0,0.477 -0.715,0.714 -1.667,1.19 -2.62,1.667 -0.952,0.238 -1.667,0.477 -2.381,0.477 -0.238,0 -0.477,-0.238 -0.477,-0.477 -0.476,-2.62 -0.714,-5.477 -1.19,-8.097 0,-0.953 0,-2.143 -0.238,-2.858 0,-0.476 0,-0.952 0,-1.429 0.477,-0.238 1.19,-0.238 1.667,0.238 0.715,0.953 0.952,2.144 1.667,3.334 0.715,0.952 0.952,2.381 1.667,3.334 l 0,0 z m -5.001,2.857 c 0.238,1.191 0.238,2.381 0.477,3.572 0,0.238 -0.238,0.477 -0.477,0.477 -0.714,0.476 -1.429,0.476 -2.144,0.714 -0.952,0 -1.667,0.238 -2.381,0 -0.238,-0.477 -0.238,-0.714 0,-1.191 0.714,-0.714 1.905,-0.714 2.619,-1.429 0.715,-0.714 0.953,-1.429 1.667,-2.144 0.001,-0.475 0.239,-0.237 0.239,0.001 l 0,0 z m -14.765,-8.335 c -0.714,1.429 -1.191,2.858 -2.143,4.287 -0.477,0.715 -0.477,1.429 -0.953,2.144 -0.477,0.476 -0.477,1.19 -1.429,1.429 -1.191,-0.476 -2.144,-1.429 -2.858,-2.381 -0.238,-1.191 0.476,-1.905 0.953,-2.857 0.952,-1.191 1.905,-2.62 2.857,-3.572 1.191,-1.191 2.62,-1.429 4.049,-0.953 0.238,0.238 0.238,0.476 0.238,0.476 -0.237,0.475 -0.714,0.951 -0.714,1.427 l 0,0 z m -5.715,-0.238 c -0.714,0.714 -1.191,1.429 -1.905,2.143 -0.476,0.238 -0.953,0.953 -1.429,0.715 -0.953,-0.953 -1.191,-2.144 -1.191,-3.572 0,-0.238 0,-0.714 0.477,-0.953 0.953,-0.238 1.905,0.238 2.857,0 l 0.953,0 c 0.238,0.238 0.714,0.238 0.953,0.476 -10e-4,0.477 -0.477,0.715 -0.715,1.191 l 0,0 z m -2.143,8.097 c 0.952,0.953 1.905,1.667 2.619,2.381 2.62,2.144 5.716,3.096 8.812,4.048 1.667,0.477 3.334,0.714 5.239,0.953 1.667,0 3.096,-0.238 4.763,-0.476 0.477,0 0.952,-0.477 1.667,-0.477 1.19,-0.238 2.143,-0.953 3.334,-1.429 1.429,-0.476 2.619,-1.429 4.048,-1.905 1.667,-1.19 2.858,-3.096 4.287,-4.287 0.476,-1.19 1.667,-2.381 2.144,-3.572 0.476,-1.191 1.428,-2.143 1.667,-3.334 0.476,-0.714 0.476,-1.429 1.19,-2.144 0.952,-0.476 2.143,-0.238 3.334,-0.476 l 1.904,0 c 0.239,0.238 0,0.714 0,1.191 -0.237,0.952 -0.476,1.905 -0.714,2.857 -0.477,0.953 -0.714,2.143 -1.19,3.096 -0.476,0.953 -0.715,2.144 -1.429,3.096 -0.953,1.19 -1.667,2.619 -2.62,3.572 l -1.429,1.429 c -1.19,0.952 -2.144,2.143 -3.334,3.096 -0.715,0.477 -1.19,1.19 -2.144,1.429 -1.429,0.953 -3.096,2.143 -5.001,2.857 l -2.619,0.953 -0.715,0.238 -6.43,0.714 c -0.953,0 -1.667,-0.238 -2.619,-0.238 -0.953,-0.238 -2.144,-0.238 -3.334,-0.477 -4.287,-0.476 -8.335,-1.429 -11.669,-4.048 -1.905,-1.191 -3.572,-2.62 -5.001,-4.287 -0.953,-1.19 -1.905,-2.381 -2.858,-3.572 -0.953,-0.952 -1.19,-2.143 -1.667,-3.096 -0.714,-1.905 -1.19,-3.572 -1.429,-5.477 -0.238,-0.714 -0.476,-1.667 -0.476,-2.381 0.238,-0.714 0.952,-0.477 1.429,-0.477 0.714,0 0.953,-0.238 1.429,-0.238 0.953,0.238 2.381,-0.238 2.62,0.714 0.476,1.905 1.905,3.572 2.62,5.477 0.952,1.67 2.381,2.861 3.572,4.29 l 0,0 z m 43.817,-12.145 c -1.905,0 -3.572,0.238 -5.238,0.238 -0.953,0 -1.905,0 -2.62,0 -0.715,0.238 -1.667,0.238 -2.619,0.238 -0.715,0 -1.429,0.238 -2.382,0 -1.19,0 -2.619,0 -3.811,0 -2.143,0 -4.286,0 -6.43,0 -1.19,-0.238 -2.381,0 -3.81,0 -1.905,0 -3.81,0.238 -5.715,0 -3.096,0 -6.43,0 -9.525,0 -1.429,0 -2.62,-0.477 -4.049,-0.238 -2.143,-0.238 -4.286,0 -6.43,-0.714 -0.714,0.238 -1.667,0 -2.381,0.238 -0.238,-0.238 -0.476,-0.477 -0.476,-0.477 -0.238,-1.667 -1.191,-3.096 -0.477,-4.524 0,-0.238 0.238,-0.714 0.477,-0.714 2.143,0 4.524,0 6.668,0 0.476,-0.238 0.952,0 1.429,0 1.429,-0.238 3.096,0 4.763,0 1.429,-0.238 2.62,0.476 4.287,0.238 1.19,-0.238 2.858,0 4.286,0 0.715,0 1.667,-0.238 2.382,0 0.714,0 1.667,0 2.381,-0.238 1.667,0 3.334,0 5.001,0 0.238,-0.238 0.714,0 1.19,0 1.191,-0.238 2.382,0 3.572,-0.238 2.144,0 4.286,0 6.43,0.238 0.477,-0.238 1.191,0 1.905,0 2.857,-0.238 6.191,-0.238 9.05,-0.238 0.952,-0.238 2.143,-0.238 3.096,-0.238 0.237,0 0.477,0 0.714,0.238 0.238,0.714 0.238,1.429 0.238,2.381 0,1.191 0.477,2.144 0.238,3.334 0,0.238 -0.238,0.476 -0.477,0.476 -0.714,0.238 -1.19,0 -1.667,0 l 0,0 z m -38.817,-14.527 c -0.476,-0.714 -1.429,-0.476 -1.905,-0.238 -1.429,0.238 -2.858,0.476 -4.048,0.714 -0.477,-0.238 -0.715,0 -0.953,-0.238 0.238,-0.476 0.714,-0.953 0.953,-1.191 0.476,-0.476 1.429,0 1.429,-0.714 0.238,-0.476 -0.714,-0.714 0,-0.952 0.953,-0.239 1.905,-0.239 2.858,-0.239 l 4.286,0.239 c 0.715,0.238 1.667,0.238 2.382,0 0.238,0 0.476,-0.239 0.238,-0.477 -0.477,-0.477 -0.953,-0.238 -1.667,-0.714 -1.191,0 -2.381,0 -3.572,0 -0.952,0.238 -1.905,0 -2.857,-0.238 -0.238,0 -0.476,0 -0.238,-0.238 0.714,-0.476 1.429,-0.714 2.144,-0.714 0.238,0 0.238,0 0.238,0 0,-0.477 0,-0.715 -0.238,-0.953 1.667,-0.952 3.572,0.238 5,0.714 l 0.714,0.239 c 0.477,0.476 1.191,0.476 1.667,0.714 0.238,0.714 -0.714,1.191 -0.477,2.144 0,1.429 0,3.096 1.429,4.287 0.952,0.476 1.905,0.952 2.857,1.19 0.476,-0.238 0.953,0 1.429,-0.238 0.238,0.238 0.714,0 0.952,0.238 0,0.714 0.238,0.953 0.477,1.429 -0.238,0.952 0.238,1.667 0.238,2.381 0,0.238 -0.238,0.238 -0.476,0.238 -0.477,0 -0.477,-0.238 -0.714,-0.476 -0.238,-0.953 0.238,-1.667 0.238,-2.381 0,-0.238 -0.238,-0.477 -0.476,-0.714 -0.238,0 -0.477,0.238 -0.477,0.238 -0.238,0.477 -0.238,1.191 0,1.429 0,0.477 0,0.715 -0.238,0.953 0.238,0.476 0.238,0.952 -0.238,1.19 -0.238,0 -0.476,0.238 -0.714,-0.238 -0.238,-0.238 0,-0.714 0,-1.19 0.476,-0.477 0.238,-1.191 0.476,-1.905 0,-0.238 0,-0.238 -0.238,-0.476 -0.238,0 -0.714,0 -0.714,0.476 -0.238,0.238 0,0.953 -0.238,1.429 -0.238,0.715 0,1.667 -0.953,1.905 -0.476,0 -0.953,0 -1.19,0 -0.238,-0.238 -0.238,-0.238 0,-0.477 0.476,-0.952 1.429,-1.667 1.905,-2.857 0,-0.238 -0.238,-0.476 -0.476,-0.953 l -0.238,0 c -0.476,0.477 -0.476,0.953 -0.953,1.429 -0.238,0.714 -0.953,1.667 -1.429,2.381 -0.476,0.477 -1.19,0.238 -1.667,0.238 l 0,-0.238 c 0.238,-0.714 0.953,-1.19 1.429,-1.905 0.477,-0.476 0.953,-0.714 1.429,-1.429 0,0 0.238,-0.238 0.238,-0.715 0,0 -0.238,-0.238 -0.238,-0.476 -0.238,0 -0.715,0 -0.715,0.238 -0.476,0.238 -0.714,0.953 -0.952,1.429 -0.714,0.953 -1.905,1.905 -2.62,3.096 -0.953,0.238 -1.905,0.238 -2.858,0.238 0,-0.238 -0.238,-0.477 0,-0.477 1.667,-1.19 3.096,-2.619 4.763,-3.81 0.476,-0.714 1.429,-0.953 1.19,-1.905 -0.476,-0.476 -1.19,-0.476 -1.905,-0.476 -1.429,0.714 -2.857,1.667 -4.524,2.143 -1.429,0.715 -2.858,1.191 -4.049,1.905 -1.19,0.476 -2.143,1.191 -3.333,0.953 -0.238,0 -0.477,-0.238 -0.238,-0.238 1.19,-0.952 2.62,-1.19 3.81,-1.905 1.191,-0.477 2.144,-0.953 3.096,-1.429 0.238,0 0.476,-0.238 0.714,-0.476 0,-0.238 -0.477,-0.238 -0.953,-0.238 -0.953,0.238 -1.905,0.714 -2.858,0.953 -1.19,0.238 -2.143,0.953 -3.572,0.953 0,0 -0.238,0 -0.477,-0.238 0,-0.476 0.238,-0.714 0.477,-0.953 0.476,-0.238 0.952,-0.476 1.429,-0.714 1.905,0 3.572,-0.476 5.239,-0.953 0.238,-0.24 1.191,-0.24 0.952,-0.717 l 0,0 z m 6.192,-6.906 c -0.476,0 -0.714,-0.238 -0.953,-0.238 -0.477,-0.477 -0.953,-0.715 -1.429,-0.953 -0.238,-0.238 -0.238,-0.476 0,-0.476 0,-0.238 0.238,-0.477 0.714,-0.477 0.714,-0.238 0.953,0.714 1.429,0.953 0.953,0.476 1.191,1.429 1.905,1.905 l 0,0.238 c -0.476,0.238 -0.714,1.191 -1.429,0.953 -0.714,-0.477 -1.429,-0.953 -2.144,-0.953 -0.714,-0.714 -1.667,-0.952 -2.62,-1.19 -0.238,0 -0.238,-0.238 -0.238,-0.238 0.238,-0.477 0.714,0 0.952,-0.238 0.477,0.477 0.953,0.477 1.667,0.477 0.477,0.476 1.429,0.714 2.144,0.953 0,0 0.238,0 0.238,-0.238 0,-0.238 -0.236,-0.24 -0.236,-0.478 l 0,0 z m 2.382,-1.667 c 0,-0.477 -0.238,-0.953 0,-1.191 l 0.238,-0.238 c 0.238,0 0.476,0 0.476,0.238 -0.238,0.714 0,1.667 0.238,2.381 -0.238,0.238 -0.477,0.477 -0.714,0.477 -0.477,0.238 -0.714,-0.477 -1.191,-0.715 -0.476,-0.476 -0.714,-1.19 -1.429,-1.429 0,-0.238 0,-0.238 0,-0.477 0.238,-0.238 0.476,-0.238 0.714,-0.238 l 0.238,0.238 c 0.476,0.477 0.714,1.429 1.429,1.667 0.238,0.238 0.476,0 0.476,0 10e-4,-0.475 -0.237,-0.475 -0.475,-0.713 l 0,0 z m 2.857,0.238 c 0.239,0 0.477,-0.238 0.477,-0.476 l 0,-0.953 0.476,-0.714 c 0.238,0 0.477,0 0.477,0.238 0,0.714 0,1.429 -0.238,1.905 -0.238,0.238 0,0.953 -0.476,0.953 -0.476,0.238 -0.953,0.238 -1.667,0.238 l 0,-0.238 c -0.238,-0.953 -0.238,-1.667 -0.238,-2.381 0,-0.238 0,-0.238 0,-0.476 0,-0.238 0.238,0 0.476,0 0.238,0 0.477,0.238 0.477,0.476 -0.002,0.476 -0.24,1.19 0.236,1.428 l 0,0 z m 1.667,2.62 c 0.238,0 0.714,0.238 0.952,0.476 0.477,0.239 0.953,0.715 1.19,0.953 0.238,0.238 0.238,0.477 0.238,0.477 -0.238,0.238 -0.952,0.476 -0.952,0.952 0.238,0.239 0.238,0.715 0.477,1.191 0.237,0 0.476,0 0.476,0.238 0,1.191 -0.238,2.143 -1.19,3.096 -0.477,0.477 -1.19,0.238 -1.905,0.477 -1.429,0.476 -2.857,0 -4.048,-0.953 -0.952,-0.477 -1.19,-1.429 -1.429,-2.382 0,-0.952 0.238,-1.667 0.714,-2.619 0.477,-0.714 1.191,-1.429 1.905,-1.905 0.953,-0.477 2.382,-0.477 3.572,-10e-4 l 0,0 z m 0.714,-4.287 c 0.238,0 0.238,-0.238 0.477,-0.238 0,0 0.238,0 0.238,0.238 0,0.953 -0.477,1.667 -0.715,2.381 0,0 0,0.238 -0.238,0.238 -0.238,-0.952 0.477,-1.666 0.238,-2.619 l 0,0 z m 2.144,2.382 c 0.238,0 0.238,0 0.238,0 0.715,-0.714 1.19,-2.143 2.144,-1.667 0.238,0 0.476,0 0.476,0.238 0,0.477 -0.237,0.238 -0.476,0.477 -0.715,0.952 -1.905,1.429 -2.62,2.381 -0.238,0 -0.477,0 -0.714,-0.238 -0.477,-0.714 0,-1.667 0.237,-2.62 0.238,-0.238 0.477,-0.953 0.953,-0.953 0.476,0 0.477,0 0.715,0.238 l 0,0.238 c -0.477,0.477 -0.715,0.953 -0.953,1.429 -0.238,0 0,0.238 0,0.477 l 0,0 z m 1.429,2.381 c 0.238,0 0.477,0 0.715,0 0.952,-0.476 2.381,-0.952 3.572,-1.667 1.19,-0.238 2.619,0 3.572,0.952 0,0 0.237,0 0,0.238 -0.715,0 -1.43,0.238 -2.382,0.476 -0.238,0 -0.477,0.239 -0.477,0.477 0,0.238 0,0.238 0.238,0.238 0.715,0 1.429,-0.238 2.144,-0.476 0.477,0 1.19,-0.239 1.904,0.238 0.239,0.238 0.953,0.476 0.715,0.953 -0.476,0.476 -1.19,0.476 -1.667,0.476 -2.619,-0.238 -5.001,0 -7.62,0.238 l -1.19,0 c 0,0 -0.238,-0.238 0,-0.477 0.476,0 0.714,-0.238 1.19,-0.476 0.477,0 0.952,0 1.19,0 l 1.905,-0.238 c 0.238,-0.238 0.238,-0.238 0.477,-0.476 0,0 -0.238,-0.238 -0.477,-0.238 -0.715,-0.239 -1.19,0 -1.905,0 -0.952,0.238 -1.667,0.476 -2.381,0.714 -0.477,0 -0.238,-0.714 -0.477,-0.953 -0.238,-0.476 0,-0.714 0.238,-0.714 1.19,-1.429 2.857,-2.857 4.763,-1.905 l 0.238,0.238 c 0,0.477 -0.715,0.238 -0.953,0.477 -1.19,0.476 -2.143,0.953 -3.334,1.429 0.002,0.238 0.002,0.238 0.002,0.476 l 0,0 z m 3.81,4.048 c 1.19,0.238 2.144,0.238 3.334,0.238 0.715,0 1.19,0 1.905,0 1.429,0 3.096,-0.476 4.048,0.715 0.238,0.714 0.477,1.19 0.477,1.667 0,0.238 0,0.238 -0.238,0.238 -0.714,0 -1.429,-0.476 -2.144,-0.476 -0.952,-0.238 -1.905,-0.714 -3.096,-0.714 -0.952,0 -1.667,-0.714 -2.619,-0.714 -0.953,-0.238 -1.667,-0.238 -2.382,-0.477 -1.19,-0.238 -2.619,-0.238 -3.334,-1.19 -0.237,-0.238 0,-0.477 0.238,-0.477 2.382,-0.238 4.524,-0.238 6.906,-0.238 l 1.19,0 c 1.19,0 2.382,0 3.334,0.238 0,0 0.477,0.238 0.238,0.477 -1.19,0.238 -2.619,0.238 -3.81,0 -0.953,0 -1.668,0 -2.382,0 -0.715,0.238 -1.429,-0.238 -1.905,0.238 0.002,0.237 0.002,0.475 0.24,0.475 l 0,0 z m -1.905,2.382 c 0.715,0.476 1.429,0.238 2.144,0.714 0.952,0.238 1.905,0.476 2.857,0.953 l 0.477,0 c 0.477,0.476 0.952,0.238 1.429,0.476 0.715,0.238 1.667,0.477 2.381,0.953 0.953,0.238 1.905,0.477 2.858,0.714 0.714,0.476 1.19,0.953 1.667,1.429 0.237,0 0.237,0.476 0.237,0.714 -0.237,0.238 -0.714,0.238 -1.19,0.238 -0.237,0 -0.476,-0.238 -0.714,-0.238 l -0.953,0 c -0.714,-0.238 -0.952,-0.952 -1.429,-1.19 -0.238,0 -0.714,-0.238 -0.952,-0.477 -0.715,-0.238 -1.19,-0.714 -1.667,-0.952 -0.715,-0.238 -1.429,-0.477 -1.905,-0.714 -0.477,-0.715 -1.19,-0.715 -1.905,-1.191 -0.715,-0.238 -1.667,-0.476 -2.382,-0.714 -0.476,-0.238 -1.19,-0.477 -1.666,-0.714 -0.238,0 -0.477,0 -0.477,0.238 0,0.715 0.714,0.715 1.19,0.953 0.477,0 0.952,0.477 1.429,0.477 0.953,0.238 1.667,0.476 2.382,0.953 0.476,0.238 0.952,0.714 1.429,0.953 0.952,0.714 2.382,0.476 3.096,1.429 0.477,0.476 1.19,0.714 1.667,1.19 0,0.238 -0.238,0.238 -0.238,0.238 -0.952,-0.238 -1.667,-0.238 -2.382,-0.238 -0.476,0 -0.952,-0.238 -1.428,-0.238 -1.191,-0.714 -2.382,-1.667 -3.572,-2.619 -1.191,-0.238 -1.905,-0.953 -2.858,-1.667 -0.714,-0.477 -1.429,-1.191 -2.381,-1.429 0,-0.238 -0.238,-0.238 -0.238,-0.476 0.238,-0.476 0.715,-0.953 0.715,-1.429 0.237,-0.477 0.476,0 0.714,0 1.19,0.238 2.382,0.476 3.334,0.714 1.429,0.476 3.096,0.476 4.524,0.953 1.19,0.238 2.144,0.714 3.096,0.953 0.953,0.238 1.905,0.238 2.62,0.476 0.477,0.238 0.715,0.953 0.715,1.429 0,0 -0.238,0.238 -0.477,0.238 -1.667,-0.238 -2.858,-1.191 -4.524,-1.667 -1.191,-0.238 -2.382,-0.714 -3.572,-1.191 -0.953,-0.238 -2.144,-0.238 -3.097,-0.714 -0.237,-0.238 -0.476,0 -0.714,0 -0.238,0 -0.24,0.235 -0.24,0.473 l 0,0 z m -4.763,1.667 0.238,-0.238 c 0.476,0 0.476,0.476 0.714,0.476 0.715,0.715 1.43,1.191 1.905,1.905 0.715,0.476 0.953,1.191 1.429,1.667 0,0.238 0.238,0.238 0,0.476 -0.237,0 -0.476,0.238 -0.714,0.238 -0.238,0 -0.715,0 -0.715,-0.238 -1.19,-1.429 -1.905,-2.857 -2.857,-4.286 l 0,0 z m 1.191,4.048 c 0,0.238 -0.238,0.476 -0.477,0.476 -0.237,-0.238 -0.714,-0.238 -0.952,-0.476 -0.238,-0.953 -0.477,-1.905 -0.477,-2.858 -0.238,-0.238 -0.238,-0.476 -0.238,-0.953 0.238,-0.238 0.477,0.238 0.477,0.238 0.476,1.192 1.667,2.144 1.667,3.573 l 0,0 z m 0.238,-4.286 c 0,0 -0.238,-0.238 -0.238,-0.476 0,-0.238 0.238,-0.238 0.238,-0.238 0.477,0 0.715,0.476 0.953,0.714 1.19,0.238 1.904,1.429 3.096,1.905 0.952,0.714 1.904,0.952 2.857,1.905 0.477,0.238 0.952,0.714 1.429,0.952 0,0 -0.238,0 -0.477,0 -0.476,0 -1.19,0 -1.905,-0.238 -0.952,-0.238 -1.667,-0.714 -2.381,-1.429 -1.19,-0.952 -2.143,-2.143 -3.572,-3.095 l 0,0 z m -17.622,4.048 c -0.953,0.476 -2.382,0.714 -3.572,0.238 -0.238,0 0,-0.238 0,-0.476 1.429,-0.953 3.096,-1.429 4.763,-2.144 0.953,-0.238 1.667,-0.953 2.62,-1.191 0.953,-0.238 1.667,-0.952 2.619,-1.19 0.239,-0.238 0.477,-0.477 0.715,-0.238 -0.238,0.714 -0.953,1.191 -1.667,1.667 -1.668,1.429 -3.812,2.143 -5.478,3.334 l 0,0 z m 40.722,0.476 c -0.714,0 -1.429,0 -2.144,0 -0.952,0 -1.667,0.238 -2.381,0 l -0.238,0 c 0,-1.19 0,-2.143 -0.714,-3.096 -0.239,-0.953 -0.477,-1.905 -1.191,-2.62 -0.238,-0.952 -0.952,-1.905 -1.429,-2.62 -0.715,-0.952 -1.429,-1.905 -2.144,-2.857 -0.952,-0.714 -1.429,-1.667 -2.619,-2.381 -0.952,-0.714 -1.905,-1.191 -2.857,-1.905 -0.953,-0.476 -2.144,-0.714 -3.097,-1.191 -0.714,-0.476 -1.666,-0.476 -2.619,-0.952 -1.19,-0.238 -2.619,-0.477 -4.049,-0.714 l -4.048,0 c -1.191,0 -2.62,0.476 -3.81,0.714 l -1.667,0.238 c -1.905,0.476 -3.572,1.667 -5.239,2.619 -0.953,0.715 -1.905,1.667 -2.858,2.381 -1.19,0.953 -2.381,2.144 -3.096,3.334 -0.476,0.476 -0.953,0.952 -1.191,1.429 -0.714,0.714 -0.952,1.667 -1.429,2.381 -0.714,1.429 -0.953,3.334 -1.667,5.001 -0.238,0.238 -0.476,0 -0.714,0 -0.953,0.238 -1.667,0.238 -2.62,0 -0.714,0 -1.429,0 -2.143,-0.238 -0.238,-0.238 -0.477,-0.476 -0.238,-0.953 -0.238,-2.143 0.714,-3.81 1.191,-5.715 0.238,-0.953 0.714,-1.905 1.19,-2.858 0.714,-1.667 1.667,-3.333 3.096,-4.524 0.714,-0.953 1.19,-1.905 1.905,-2.381 1.191,-0.953 2.62,-2.144 4.048,-2.62 0.715,-0.476 1.429,-0.952 2.144,-1.429 1.429,-0.714 2.857,-1.429 4.287,-1.905 0.714,-0.477 1.429,-0.714 2.143,-1.19 2.381,-0.953 5.477,-1.191 8.097,-1.667 0.715,0.238 1.191,-0.238 1.905,0 2.144,-0.238 4.049,0.238 6.191,0.715 0.715,0.238 1.429,0.476 2.144,0.714 1.19,0.714 2.381,1.191 3.334,1.667 0.952,0.476 1.667,0.953 2.619,1.429 1.667,0.715 2.858,2.62 4.287,3.572 1.667,1.191 2.619,2.857 4.048,4.287 l 0,0.238 0.953,1.429 c 0.476,0.714 0.952,1.667 1.19,2.62 0.953,1.667 1.19,3.572 2.144,5.239 0,0.953 0.714,1.905 0.714,2.858 0,0.713 -0.952,0.475 -1.428,0.951 l 0,0 z M 302.521,328.27 c 0.952,-0.953 1.429,-2.381 1.429,-4.048 0.238,-1.19 -0.238,-2.144 -0.714,-3.096 0,0 0,0 0,-0.238 l 0.238,0.238 c 0.714,0.476 1.429,0.952 1.905,1.667 0.238,0.238 0.477,0.238 0.477,0 0.714,-0.715 1.19,-1.905 2.381,-2.144 0,0 0.238,-0.238 0.238,0 0,0.238 -0.238,0.238 -0.477,0.238 -0.952,0.953 -1.667,2.144 -1.905,3.334 0,1.429 0.476,2.857 0.953,4.048 0,0 0,0 -0.238,0 -0.238,-0.238 -0.477,-0.714 -0.952,-1.191 -0.238,-0.238 -0.477,-0.714 -0.477,-1.19 0,0 -0.238,-0.238 -0.238,0 -0.714,1.19 -1.19,2.857 -2.857,3.334 -0.238,0 -0.238,0 -0.477,0 -0.001,-0.476 0.475,-0.476 0.714,-0.952 l 0,0 z m -1.667,-2.858 c 0.238,-0.238 0.714,-0.715 1.19,-0.477 l 0.238,0 c 0,0.477 -0.238,0.714 -0.477,0.953 -0.238,0.238 -0.476,0.238 -0.952,0.238 10e-4,-0.238 10e-4,-0.476 10e-4,-0.714 l 0,0 z m -5.716,3.334 c 0.238,-0.714 0.715,-0.714 1.191,-0.952 0.238,0 0.476,0 0.714,0.238 0,0.714 -1.429,0.714 -0.714,1.429 0.714,0 1.429,-0.477 1.667,-0.953 0.714,-0.953 1.667,-1.905 1.191,-3.096 0.238,0 0.714,-0.238 0.953,0 0,0.476 -0.238,1.19 0.238,1.428 0.477,0 0.714,-0.476 0.714,0 0.238,0.238 -0.238,0.477 -0.238,0.477 -0.714,0.238 -1.429,-0.477 -1.667,0.238 -0.238,0.953 -0.714,2.144 -1.667,2.62 -0.714,0 -1.428,0.238 -1.905,0 -0.477,-0.476 -0.477,-0.953 -0.477,-1.429 l 0,0 z m -24.29,29.529 c 0,-1.667 0.477,-3.334 0.714,-5.001 0.238,-0.714 0.476,-1.667 0.476,-2.62 l 0.953,-2.381 c 0.953,-1.429 1.429,-3.334 2.858,-4.763 0.714,-1.191 1.667,-2.381 2.62,-3.572 0.952,-1.429 2.62,-2.381 3.572,-3.81 0.477,-0.238 1.191,-0.953 1.667,-1.191 l 2.858,-2.381 c 1.191,-0.714 2.143,-1.191 3.334,-1.905 0.714,-0.476 1.667,-0.714 2.62,-0.952 0.238,-0.238 0.714,-0.238 0.953,0 0.714,0.952 1.667,1.905 3.096,1.667 0.714,-0.238 1.429,-0.476 2.143,-1.19 0.238,0 0.238,-0.238 0.714,-0.476 0.238,0 0.477,0.476 0.715,0.476 1.19,0 2.143,0 3.096,-0.476 0.714,-0.238 1.191,-0.715 1.667,-1.191 0.238,0 0.476,0.476 0.714,0.714 0.714,0.477 1.667,0.477 2.619,0.714 l 0,0 c -0.238,0.238 -0.476,0 -0.714,0 -2.382,-0.238 -5.001,0.238 -7.145,0.714 -2.143,0.476 -4.286,0.714 -6.191,1.667 -1.429,0.477 -2.858,1.19 -4.287,1.905 -1.905,0.714 -3.811,2.144 -5.715,2.857 -2.858,2.144 -4.763,5.001 -6.668,7.859 -1.429,1.667 -1.667,3.81 -2.382,5.715 -0.238,1.429 -0.714,2.858 -0.952,4.524 -0.238,1.191 -0.476,2.381 -0.715,3.572 -0.238,0.238 -0.476,0 -0.714,-0.238 -0.238,-0.238 -0.477,-0.477 -0.953,-0.238 -0.238,0 -0.476,0 -0.715,0.238 -0.238,0.002 -0.238,0.002 -0.238,-0.237 l 0,0 z m 2.619,2.382 c 0,0.238 0,0.476 -0.238,0.476 l -0.714,0 c -0.238,0.238 -0.477,0.477 -0.953,0.477 -0.238,0 -0.238,-0.238 -0.477,-0.477 0,-0.238 0,-0.476 0,-0.476 0.239,-0.238 0.239,-0.238 0.477,-0.476 0.238,0 0.476,0.238 0.714,0.476 0.477,0 0.953,-0.239 1.191,0 l 0,0 z m 25.72,30.482 c -0.477,0 -1.191,-0.238 -1.429,0.238 -0.239,0.476 -0.239,0.714 -0.239,1.19 0.239,0 0.239,0.238 0.477,0 0.238,-0.238 0.714,0 0.953,0 0,0.238 0,0.238 0,0.477 -0.953,0.476 -1.905,0 -2.857,0 -1.191,-0.477 -2.382,-0.477 -3.572,-0.953 -0.714,-0.238 -1.429,-0.714 -2.144,-0.953 -1.667,-0.714 -3.334,-1.429 -5.001,-2.62 -2.143,-1.429 -4.524,-3.334 -5.954,-5.477 -1.905,-2.62 -3.572,-5.001 -4.763,-7.859 -0.238,-0.952 -0.952,-1.667 -1.191,-2.62 -1.19,-2.619 -1.667,-5.477 -2.381,-8.097 0,-0.238 -0.238,-0.714 0,-0.953 0.477,-0.238 0.715,0.477 1.191,0 0.477,-0.476 0.953,-0.714 1.429,-0.238 0.476,0.714 -0.477,1.667 0.476,2.143 0.238,0.477 0.476,0.714 0.476,1.191 -0.238,0.476 0,0.953 0.238,1.667 l 0.714,2.858 c 0.477,1.428 1.191,2.619 1.429,4.048 0.714,1.905 2.381,3.811 3.572,5.478 1.19,1.667 2.62,2.857 4.048,4.287 1.905,1.429 4.048,3.096 6.43,3.81 1.905,0.714 3.572,0.953 5.477,1.429 2.381,0.715 5.001,0.715 7.382,0.953 l 0.238,0 c -0.952,0.238 -0.952,1.667 -1.905,1.191 -1.19,-0.238 -2.142,-0.952 -3.094,-1.19 l 0,0 z m 8.096,1.905 c -1.191,0.714 -1.905,1.905 -1.905,3.096 0.238,1.667 0.952,3.333 1.905,4.763 0,0.238 0.238,0.238 0.238,0.477 -0.477,0.238 -0.715,-0.238 -0.953,-0.477 -0.952,-0.715 -1.667,-2.619 -3.096,-1.904 -0.238,0.238 -0.476,0.475 -0.714,0.715 -0.238,0.236 -0.477,0.475 -0.715,0.236 l 0,0 c 0.238,-0.951 0.715,-1.666 0.715,-2.619 0.238,-0.477 0.238,-1.428 0,-1.905 -0.715,-0.477 -1.191,-0.714 -1.905,-1.429 0,0 0.238,-0.238 0.476,-0.477 0.714,0 1.905,0.477 2.381,-0.238 0.238,-0.238 0.476,-0.477 0.715,-0.477 0.476,0.714 1.429,0.477 1.904,0.238 0.477,0 0.477,0 0.953,-0.238 0.001,0.239 0.001,0.239 0.001,0.239 l 0,0 z m 29.768,-27.862 c -0.238,1.905 -0.952,3.572 -1.429,5.239 -0.953,2.143 -1.667,4.287 -2.858,6.192 -1.19,2.143 -2.619,4.048 -3.81,5.954 -0.953,1.19 -2.144,2.143 -3.334,3.096 -1.19,1.667 -3.096,2.619 -4.763,3.572 -2.144,1.429 -4.287,2.381 -6.668,3.333 -1.191,0.715 -2.857,0.715 -4.287,1.191 -0.237,0.238 -0.714,0.238 -0.952,-0.238 0,0 0,-0.238 0,-0.476 0.477,-0.238 1.19,-0.238 1.429,-0.953 0,-0.476 -0.238,-0.714 -0.714,-0.953 -0.715,-0.238 -1.191,0.238 -1.905,0.238 -0.715,0.238 -1.43,0.714 -2.144,0.476 -0.238,-0.238 -0.714,-0.238 -0.714,-0.476 l 0,-0.238 c 0.476,0.238 1.19,0 1.905,0 1.19,0 2.382,-0.476 3.572,-0.476 2.144,0 3.811,-0.477 5.478,-1.429 1.905,-0.953 3.571,-1.667 5.001,-2.858 0.952,-0.714 1.905,-1.429 2.857,-2.144 1.667,-2.143 4.286,-3.81 5.716,-6.191 1.667,-2.143 2.619,-4.287 3.572,-6.668 0.714,-1.667 0.952,-3.334 1.666,-5.239 0.238,-0.238 0.477,-0.476 0.715,-0.714 0,-0.476 0,-0.953 -0.238,-1.191 0,-0.238 0,-0.476 0.238,-0.714 0.477,-0.238 0.952,0.477 1.429,0.714 0.238,0.238 0.238,0.714 0.238,0.953 l 0,0 z m 0,-2.858 c -0.238,0.238 -0.477,0.477 -0.952,0.238 -0.238,0 -0.477,-0.238 -0.715,-0.715 0,-0.238 0,-0.238 0,-0.476 0.477,-0.476 1.19,-0.476 1.667,-0.238 l 0.238,0.238 c 0.238,0.238 0,0.714 -0.238,0.953 l 0,0 z m -0.238,-2.858 c -0.238,0.238 -0.714,0 -0.952,0.238 l 0,0 c 0,-0.714 -0.238,-1.667 -0.477,-2.381 -0.238,-0.477 0,-1.19 -0.477,-1.667 -0.476,-2.143 -0.952,-4.287 -1.904,-6.191 -0.239,-0.953 -0.715,-1.667 -1.191,-2.381 -0.476,-1.429 -0.952,-2.381 -1.667,-3.572 -0.477,-0.477 -0.714,-1.191 -1.19,-1.667 -0.715,-0.714 -1.19,-1.667 -2.144,-2.619 -0.715,-0.238 -1.19,-1.191 -1.905,-1.667 -1.429,-0.714 -2.619,-2.144 -4.048,-2.858 -1.667,-0.714 -3.096,-1.429 -4.763,-2.381 -0.953,-0.476 -1.905,-0.714 -2.858,-1.191 0,0 -0.238,0 0,-0.238 0.238,-0.238 0.715,-0.238 1.191,-0.477 0.237,-0.476 0.714,-0.714 1.19,-1.19 1.19,0.477 2.619,1.19 3.81,1.905 1.668,0.715 3.335,1.429 4.764,2.62 1.667,0.952 2.619,2.381 4.048,3.572 1.667,1.191 2.858,3.096 4.049,5.001 0.476,0.953 0.952,1.905 1.429,2.858 0.715,1.429 1.19,2.857 1.905,4.287 0.714,1.905 1.19,3.81 1.429,5.715 0.238,1.429 0.477,2.858 0.477,4.287 -0.24,-0.003 -0.478,-0.241 -0.716,-0.003 l 0,0 z"
       id="path6246"
       inkscape:connector-curvature="0"
       style="clip-rule:evenodd;fill:#bf2f38;fill-rule:evenodd" /><path
       d="m 319.667,393.044 c 0,0.238 -0.477,0.714 -0.239,0.953 0.239,0.714 0.239,1.429 0.715,1.905 0.238,0.714 0.477,1.428 0.953,1.905 0.476,0.477 0.952,0.238 1.429,0.477 0.238,0 0.238,0.238 0.238,0.477 -0.238,0.477 -0.715,0.477 -1.191,0.477 -0.952,0.477 -2.144,0.951 -3.096,1.428 -0.238,0.238 -0.238,0.715 -0.714,0.477 -0.477,-0.477 -0.477,-1.191 -0.953,-1.668 0,-0.236 0,-0.475 0.238,-0.475 0.238,0 0.238,0.238 0.477,0.238 0.477,0 0.714,0.236 0.952,0.236 0.238,-0.236 0.477,-0.475 0.952,-0.713 l 0,0 -0.237,-1.191 c -0.238,0 -0.477,-0.238 -0.715,0 -0.238,0.238 0,0.715 -0.476,0.715 0,0.238 -0.238,0 -0.238,-0.238 -0.238,-0.477 -0.477,-0.953 -0.477,-1.667 0.238,-0.476 0.715,0.238 1.19,0 0,0 0,-0.238 0,-0.476 -0.476,-0.477 -0.476,-1.667 -1.429,-1.191 -0.477,0.238 -0.952,0.238 -1.19,0.714 0,0.238 0,0.714 -0.477,0.953 0,0 -0.238,0 -0.238,-0.238 -0.238,-0.238 0,-0.476 0,-0.953 0,-0.238 -0.238,-0.714 0.238,-0.714 0.952,-0.476 2.144,-0.714 3.096,-1.19 0.477,-0.241 0.715,-0.479 1.192,-0.241 l 0,0 0,0 z"
       id="path6248"
       inkscape:connector-curvature="0"
       style="clip-rule:evenodd;fill:#bf2f38;fill-rule:evenodd" /><path
       d="m 293.947,395.425 c 0.714,1.428 0,3.096 -0.476,4.762 0,0.238 0,0.953 0.476,1.191 0,0.238 -0.238,0.477 -0.238,0.477 -0.476,0 -0.953,-0.238 -1.429,-0.477 -0.238,-0.238 -0.953,0 -1.19,-0.238 0,-0.477 0.476,-0.477 0.714,-0.715 l 0.238,-0.238 c 0.477,-1.189 0.953,-2.381 0.953,-3.571 0,-0.477 -0.238,-0.953 -0.714,-1.191 -0.476,0 -1.19,0 -1.667,0.714 -0.477,0.714 -1.19,1.667 -1.19,2.62 0,0.713 0.238,0.953 0.476,1.428 0,0 0,0.238 -0.238,0.238 -0.476,0 -1.191,-0.477 -1.667,-0.953 -0.476,0 -0.953,0.24 -1.19,-0.475 l 0.238,-0.238 c 0.715,-0.238 0.477,-1.191 0.953,-1.668 0.476,-1.19 1.429,-2.381 2.62,-2.857 1.188,-0.237 2.617,-0.237 3.331,1.191 l 0,0 z"
       id="path6250"
       inkscape:connector-curvature="0"
       style="clip-rule:evenodd;fill:#bf2f38;fill-rule:evenodd" /><path
       d="m 285.851,391.615 c -0.714,-0.477 -1.667,-1.191 -2.381,-1.429 -0.953,-0.238 -1.905,0 -2.62,0.715 -0.476,0.714 -0.238,1.667 0,2.381 0.238,0.476 -0.476,0.476 -0.714,0.714 -0.477,0.714 -0.238,1.667 0,2.381 0.238,0.476 0.953,0.476 1.429,0.952 0.714,0.477 1.429,0.715 2.143,1.191 0.238,0 0.477,0 0.477,-0.238 0,-0.238 -0.477,-0.715 -0.714,-0.953 -0.238,-0.714 0.476,-0.952 0.714,-1.667 0.476,-0.715 1.19,-1.905 2.143,-2.381 0.238,-0.238 0.953,0.238 1.191,-0.238 -0.478,-0.713 -1.192,-0.952 -1.668,-1.428 l 0,0 z m -3.573,4.763 c -0.477,0.238 -0.714,-0.476 -0.953,-0.476 0,-0.238 0,-0.477 0,-0.715 0.238,-0.238 0.476,-0.238 0.714,-0.238 0.238,0.238 0.477,0.477 0.715,0.715 10e-4,0.238 -0.237,0.476 -0.476,0.714 l 0,0 z m 1.429,-3.096 c -0.238,0.238 -0.238,0.476 -0.476,0.476 -0.238,0 -0.714,-0.238 -0.714,-0.714 0,-0.238 0,-0.714 0,-1.191 0.476,-0.238 1.19,-0.238 1.667,0.238 0.237,0.476 -0.477,0.715 -0.477,1.191 l 0,0 z"
       id="path6252"
       inkscape:connector-curvature="0"
       style="clip-rule:evenodd;fill:#bf2f38;fill-rule:evenodd" /><path
       d="m 305.616,427.813 c 0.476,0.238 0.952,0.238 1.19,0.477 0,0.953 0,1.904 0,3.096 l 0,0.477 c -0.714,-0.477 -0.477,-1.191 -0.952,-1.43 -0.953,-1.189 -2.382,-1.666 -4.049,-1.428 -0.476,0.475 -1.19,0.475 -1.429,1.189 -0.714,0.953 -0.476,2.381 0,3.334 1.191,1.191 2.62,1.43 4.049,2.145 1.429,0.475 2.857,1.189 3.81,2.381 0.715,0.953 0.715,1.904 0.715,3.096 0,1.192 -0.477,2.619 -1.429,3.572 -0.715,0.715 -1.667,1.428 -2.858,1.666 -1.905,0.715 -4.287,0.238 -6.191,0.238 -0.238,-0.238 -0.714,0.238 -0.953,-0.238 0.239,-1.189 0.239,-2.619 0.239,-3.809 0,0 0,-0.238 0.238,-0.238 0,0.238 0,0.475 0.238,0.713 0.476,0.715 0.953,1.191 1.667,1.668 1.429,0.715 3.096,0.715 4.525,0.238 1.19,-0.238 2.143,-1.191 2.381,-2.145 0.477,-1.189 0.238,-2.381 -0.477,-3.096 -1.428,-1.666 -3.571,-2.381 -5.477,-3.096 -1.191,-0.477 -2.144,-1.189 -2.62,-2.381 -0.476,-0.953 -0.715,-1.904 -0.476,-2.857 0.238,-1.191 0.714,-2.143 1.667,-2.857 1.667,-0.954 4.049,-0.954 6.192,-0.715 l 0,0 z"
       id="path6254"
       inkscape:connector-curvature="0"
       style="clip-rule:evenodd;fill-rule:evenodd" /><path
       d="m 333.479,428.051 c 0.238,0 0,0 0.238,0 0.952,0 1.667,0.238 2.619,0 0.238,0 0,0.238 0,0.477 -0.237,0.238 -0.952,0.238 -1.19,0.715 -0.238,1.189 0,2.381 -0.238,3.572 l 0,6.904 c 0.238,1.668 -0.476,3.811 1.191,5.002 0.714,0.477 1.667,0.238 2.381,0.238 1.905,0.238 4.049,0.238 4.763,-1.668 0.238,0 0.238,-0.238 0.477,-0.238 0.477,0.238 0,0.715 0,0.953 0,0.715 -0.238,1.43 -0.238,2.143 0,0.238 -0.238,0.238 -0.477,0.238 -1.667,0 -3.333,0.238 -5.238,0.238 l -6.43,0 c 0,-0.238 0,-0.238 0,-0.238 -0.238,-0.238 0,-0.475 0.237,-0.475 0.477,0 0.715,-0.477 0.953,-0.715 0.237,-0.477 0.237,-0.953 0.237,-1.43 l 0,-8.811 c 0,-1.906 0.239,-3.572 0,-5.479 -0.237,-0.713 -0.714,-0.713 -1.19,-0.951 0,-0.238 -0.237,-0.238 0,-0.477 l 0,0 c 0.714,0.002 1.429,0.24 1.905,0.002 l 0,0 z"
       id="path6256"
       inkscape:connector-curvature="0"
       style="clip-rule:evenodd;fill-rule:evenodd" /><path
       d="m 250.129,428.051 c -0.238,0.477 -0.714,0.477 -0.953,0.715 -0.239,0.238 -0.477,0.477 -0.477,0.951 l 0,11.67 c 0,1.428 0.715,2.857 2.144,3.334 1.905,0.715 4.287,0.477 6.191,-0.238 1.429,-0.477 1.905,-1.904 2.144,-3.096 l 0.238,-1.668 0,-9.287 c 0,-0.477 -0.238,-1.189 -0.953,-1.666 -0.238,0 -0.477,-0.238 -0.715,-0.477 -0.238,0 0,-0.238 0,-0.238 1.667,0 3.334,0 4.763,0 0.238,0.238 0.238,0.238 0.238,0.238 -0.238,0.238 -0.715,0.238 -0.953,0.477 -0.714,0.477 -0.477,1.428 -0.477,2.381 l -0.238,9.525 c 0,1.191 -0.477,2.381 -0.953,3.334 -0.714,1.43 -2.143,1.906 -3.572,2.381 -1.667,0.477 -3.334,0.477 -5.001,0.238 -0.238,0 -0.714,0 -0.953,-0.238 l 0,0 c -1.667,-0.238 -3.096,-1.189 -3.81,-2.857 -0.477,-1.189 -0.714,-2.381 -0.714,-3.572 l 0.238,-2.381 -0.238,-7.621 c 0,-0.477 0,-0.951 -0.238,-1.189 -0.238,-0.238 -0.714,-0.238 -0.953,-0.477 0,-0.238 0.238,-0.238 0.238,-0.238 1.667,0 3.096,0 4.763,0 l 0.241,0 0,-0.001 z"
       id="path6258"
       inkscape:connector-curvature="0"
       style="clip-rule:evenodd;fill-rule:evenodd" /><path
       d="m 292.756,429.004 c -1.19,-1.43 -3.333,-0.953 -5.239,-1.191 -1.429,0.238 -2.858,0.238 -4.287,0.238 -0.476,0 -1.191,-0.238 -1.429,0.238 l 0,0.238 c 0.715,0 1.191,0.238 1.429,0.951 0.238,1.191 0,2.621 0.238,4.049 l 0,9.051 -0.238,1.666 c 0,0.715 0,1.43 -0.714,1.668 -0.238,0.236 -0.477,0.236 -0.477,0.236 0,0.238 -0.238,0.477 0,0.477 1.429,-0.238 3.096,0 4.525,0 0.238,0 0.476,0 0.476,0 l 0.238,0 0,-0.238 -0.238,-0.238 c -0.238,-0.236 -0.714,-0.236 -0.953,-0.713 -0.238,-0.477 -0.238,-0.953 -0.238,-1.43 l 0,-6.191 0,-0.238 c 2.619,0.238 4.763,0 6.668,-1.191 0.238,-0.475 0.714,-0.713 0.714,-1.189 0.955,-1.908 0.955,-4.289 -0.475,-6.193 l 0,0 z m -0.952,3.57 c 0,0.953 0,1.906 -0.714,2.621 -1.191,1.428 -3.096,1.189 -5.001,1.189 -0.238,-0.238 -0.238,-0.475 -0.238,-0.951 l 0,-5.479 c 0,-0.238 -0.238,-0.713 0.238,-0.713 0.715,-0.238 1.429,-0.238 2.144,-0.238 1.191,0.238 2.858,0.238 3.096,1.666 0.237,0.716 0.475,1.192 0.475,1.905 l 0,0 z"
       id="path6260"
       inkscape:connector-curvature="0"
       style="clip-rule:evenodd;fill-rule:evenodd" /><path
       d="m 277.516,429.717 c -0.477,-0.951 -1.429,-1.428 -2.382,-1.666 -2.857,-0.238 -5.953,0 -8.811,0 -0.238,0 -0.476,0 -0.476,0.238 0,0.238 0.476,0.238 0.714,0.238 1.667,0.951 0.714,3.334 0.953,4.762 l 0,5.479 0,4.285 c -0.238,1.191 0.238,2.621 -1.191,3.096 0,0 -0.238,0 -0.238,0.238 -0.238,0 -0.238,0.238 0,0.238 1.667,0 3.334,-0.238 5.239,0 l 0,-0.238 c -0.239,-0.238 -0.477,-0.238 -0.715,-0.238 -0.714,-0.713 -0.714,-1.428 -0.714,-2.381 0,-1.904 0,-3.811 0,-5.715 0,-0.238 0.238,-0.238 0.238,-0.238 0.714,0 1.191,0 1.667,0 0.953,0 1.667,-0.238 2.62,-0.238 0.714,-0.238 1.429,-0.477 2.143,-0.953 0.238,-0.238 0.714,-0.713 0.953,-0.951 0.238,-0.477 0.476,-0.715 0.476,-1.191 0.476,-1.668 0.238,-3.574 -0.476,-4.765 l 0,0 z m -2.144,5.478 c -0.476,0.477 -0.952,0.951 -1.667,1.189 l -0.715,0 -2.62,0 c -0.476,-0.238 -0.476,-0.951 -0.476,-1.189 0,-2.145 0,-3.811 0,-5.717 0.238,-0.236 0.476,0 0.714,-0.236 1.191,0 2.381,0 3.572,0 0.476,0.236 1.19,0.475 1.429,0.951 0.477,0.715 0.477,1.668 0.477,2.621 10e-4,0.713 -0.237,1.666 -0.714,2.381 l 0,0 z"
       id="path6262"
       inkscape:connector-curvature="0"
       style="clip-rule:evenodd;fill-rule:evenodd" /><path
       d="m 364.199,445.912 c -0.477,0 -1.191,-0.238 -1.43,-0.715 -1.19,-2.145 -1.904,-4.287 -2.857,-6.43 -1.429,-3.811 -3.334,-7.859 -5.001,-11.67 -0.238,0 -0.238,0.238 -0.477,0.238 -0.476,1.906 -1.666,3.811 -2.381,5.479 -0.477,1.189 -1.19,2.143 -1.667,3.332 -1.19,2.859 -2.62,5.717 -3.811,8.574 -0.238,0.477 -0.476,0.953 -0.952,0.953 -0.238,0.238 -0.477,0.238 -0.715,0.238 0,0.236 0,0.236 0,0.475 l 0.238,0 c 0.715,0 1.667,0 2.619,0 0.477,0 1.43,0.238 1.667,-0.238 0,-0.236 -0.237,-0.475 -0.714,-0.475 0,-0.477 -0.238,-0.715 0,-1.191 0.477,-1.43 1.19,-2.857 1.905,-4.287 0,-0.477 0.238,-0.713 0.714,-0.713 l 6.192,0 c 0.238,0.236 0.476,0.475 0.714,0.713 l 1.191,3.572 c 0.237,0.477 0.476,0.953 0.476,1.668 -0.238,0.477 -0.714,0.477 -0.952,0.951 l 0.238,0 c 1.667,0 3.334,0 5.001,0 l 0.238,0 c 0.003,-0.238 0.003,-0.238 -0.236,-0.474 l 0,0 z m -7.144,-8.098 -0.238,0.238 c -1.429,0 -2.857,-0.238 -4.287,0 -0.237,-0.238 -0.714,0 -0.714,-0.238 l 0,-0.714 c 0.953,-1.904 1.905,-3.811 2.619,-5.953 l 0.238,0 c 0.477,1.191 0.953,2.381 1.191,3.572 0.476,0.715 0.714,1.904 1.19,2.619 0.001,0.238 0.239,0.476 0.001,0.476 l 0,0 z"
       id="path6264"
       inkscape:connector-curvature="0"
       style="clip-rule:evenodd;fill-rule:evenodd" /><path
       d="m 329.192,446.148 c -0.715,-0.236 -0.953,-0.713 -1.429,-1.189 -1.191,-2.619 -2.382,-5.24 -3.334,-7.859 l -2.382,-5.477 c -0.477,-1.43 -1.19,-2.857 -1.667,-4.287 0,-0.477 -0.238,0 -0.477,0 -1.904,4.287 -3.81,8.336 -5.715,12.383 -0.477,1.43 -1.191,2.859 -1.905,4.287 -0.477,0.715 -1.19,1.43 -1.905,1.906 -0.238,0.236 -0.477,0.236 -0.477,0.475 l 0.238,0.238 c 1.429,-0.238 2.857,-0.477 4.287,0 0.237,-0.238 0.237,-0.238 0.237,-0.477 0,-0.236 -0.476,-0.236 -0.476,-0.475 -0.477,-0.238 -0.477,-0.715 -0.477,-0.953 0.715,-1.668 1.429,-3.334 2.144,-4.764 0,-0.238 0.238,-0.475 0.476,-0.475 l 6.431,0 0.237,0.236 1.43,3.811 c 0.238,0.715 0.714,1.43 0.476,2.145 -0.237,0.475 -0.952,0.238 -0.952,0.951 l 0.238,0 c 1.667,-0.238 3.334,-0.238 5.001,0 l 0.238,-0.238 c 0.002,10e-4 0.002,-0.238 -0.237,-0.238 l 0,0 z m -8.335,-8.095 -4.049,0 0,-0.238 c 0.953,-2.143 1.905,-4.049 2.858,-6.191 0,0 0,-0.238 0.237,0 0.715,1.904 1.429,4.049 2.382,6.191 -0.237,0.476 -0.952,-10e-4 -1.428,0.238 l 0,0 z"
       id="path6266"
       inkscape:connector-curvature="0"
       style="clip-rule:evenodd;fill-rule:evenodd" /><path
       d="m 247.272,468.535 c 0.238,0 0,0 0.238,0 0.953,0.951 1.905,2.143 3.096,3.096 1.191,1.189 2.381,2.619 3.811,3.811 l 0,-0.238 0,-11.194 c 0,-0.477 0,-0.477 -0.238,-0.953 0,-0.713 -0.477,-1.189 -1.191,-1.428 0,-0.238 0,-0.238 0.238,-0.477 1.191,0.238 2.62,0.238 3.81,0 l 0.238,0.238 c 0,0.238 -0.476,0.477 -0.714,0.477 -0.238,0.477 -0.476,0.713 -0.476,1.428 0,2.381 -0.238,4.525 -0.238,7.145 l 0,6.191 c 0.238,0.953 0,2.145 0.238,3.334 -0.238,0 -0.238,0 -0.477,0 -1.19,-1.189 -1.905,-2.143 -3.096,-3.096 -0.953,-0.953 -2.143,-1.904 -2.857,-2.857 -3.096,-2.857 -5.954,-5.715 -9.049,-8.572 0,0 0,0.236 -0.239,0.236 l 0,6.67 c 0.239,1.904 0,4.047 0.239,5.715 0.476,0.477 0.714,1.191 1.428,1.191 0,0.236 0,0.236 0,0.236 l -0.238,0.238 c -1.429,-0.238 -2.858,-0.238 -4.287,-0.238 -0.238,0.238 -0.238,0 -0.238,0 0,-0.475 0.714,-0.475 0.953,-0.713 0.714,-0.953 0.477,-2.383 0.477,-3.572 l 0.238,-13.098 -0.238,-1.668 c 0.238,-0.238 0.238,-0.238 0.476,0 l 8.096,8.098 0,0 z"
       id="path6268"
       inkscape:connector-curvature="0"
       style="clip-rule:evenodd;fill-rule:evenodd" /><path
       d="m 330.145,460.914 c 0.238,0 0.238,0.238 0.238,0.238 l 0.238,0.477 0,2.619 c -0.238,0 -0.238,0 -0.477,0 -0.477,-0.477 -0.238,-0.953 -0.714,-1.43 -0.953,-0.951 -2.62,-0.951 -3.811,-0.713 -0.477,0.238 -0.952,0.713 -1.19,1.189 -0.477,0.953 -0.715,2.145 -0.238,3.096 0.477,0.715 1.667,1.43 2.381,1.668 0.238,0.238 0.715,0.238 0.953,0.477 1.429,0.238 2.381,0.951 3.572,1.666 0.476,0.477 0.952,1.191 1.19,1.906 0.476,1.189 0.952,2.857 0.238,4.047 l 0,0.238 c -0.477,0.715 -0.715,1.191 -1.429,1.668 -1.667,1.666 -3.811,1.666 -5.954,1.666 -0.714,0.238 -1.429,0 -2.381,0 -0.238,0 -0.715,-0.238 -1.191,-0.238 0,-1.189 0,-2.381 0,-3.572 0,-0.236 0.238,-0.236 0.238,-0.236 0.477,0.713 0.953,1.428 1.667,1.666 1.429,1.191 3.334,1.191 5.239,0.715 0.952,-0.477 1.667,-1.43 1.905,-2.381 0.238,-1.43 -0.477,-2.859 -1.667,-3.572 -0.953,-0.715 -2.144,-1.191 -3.096,-1.668 -1.667,-0.715 -3.096,-1.428 -3.811,-3.334 -0.477,-1.666 -0.238,-3.572 1.19,-4.762 1.67,-2.145 4.529,-1.668 6.91,-1.43 l 0,0 z"
       id="path6270"
       inkscape:connector-curvature="0"
       style="clip-rule:evenodd;fill-rule:evenodd" /><path
       d="m 393.014,461.152 c 0.238,0 0.238,0.238 0.238,0.477 0,0.951 0,1.904 0,3.096 l 0,0 c -0.238,0.238 -0.238,0.238 -0.477,0 -0.237,-0.238 0,-0.477 -0.237,-0.715 0,-0.715 -0.715,-1.43 -1.43,-1.666 -1.429,0 -2.857,0 -4.048,0 -0.477,0 -0.477,0.236 -0.715,0.475 l 0,0.477 0,14.051 c 0,0.715 0.477,1.43 1.19,1.668 0,0 0.477,0 0.477,0.238 0,0 0,0.236 -0.237,0.236 l -5.24,0 0,-0.236 c 0.238,-0.477 0.953,-0.238 1.191,-0.953 0,0 0.238,-0.238 0.238,-0.477 0,-0.477 0,-5.238 0,-5.238 l 0,-9.051 c 0,-0.477 0,-0.953 -0.477,-1.189 -1.19,-0.238 -2.144,0 -3.334,0 -0.952,0 -1.667,0 -2.144,0.951 -0.476,0.238 -0.476,0.715 -0.476,1.43 0,0 -0.238,0.238 -0.477,0 0,0 0,0 0,-0.238 l 0,-3.334 0,0 15.958,0 0,-0.002 z"
       id="path6272"
       inkscape:connector-curvature="0"
       style="clip-rule:evenodd;fill-rule:evenodd" /><path
       d="m 373.248,461.152 0.238,0 c 0.238,0 0.238,0.238 0.238,0.238 0.238,0.953 0,1.904 0,2.619 0,0.238 -0.238,0.238 -0.238,0 -0.238,-0.477 -0.714,-1.191 -1.429,-1.43 -1.667,-0.713 -3.096,-0.236 -4.763,-0.236 -0.238,0 -0.477,0.236 -0.477,0.475 l 0,5.955 0,0.238 5.716,0 c 0.476,0 0.714,-0.715 1.19,-0.953 0,0 0,0 0,0.238 -0.238,0.951 0,2.143 0,3.334 0,0.238 -0.238,0 -0.238,0 -0.238,-0.477 -0.477,-0.953 -0.952,-1.191 -0.238,-0.238 -0.715,-0.238 -0.953,-0.238 l -4.763,0 0,0.238 0,5.715 c 0,0.715 0.238,1.191 0.715,1.668 0.476,0.477 1.429,0.477 2.143,0.477 1.191,0 2.62,-0.238 3.811,-0.238 0.715,-0.238 0.715,-1.191 0.952,-1.668 0.238,-0.238 0.477,-0.238 0.477,0 0,0.953 -0.238,1.906 0,2.859 -0.238,0.236 -0.238,0.236 -0.238,0.236 l -11.669,0 c -0.238,0 -0.238,-0.236 0,-0.236 0.477,-0.238 1.191,-0.477 1.43,-1.191 l 0,-0.715 0.237,-12.621 c -0.237,-0.953 -0.237,-1.906 -0.714,-2.857 -0.477,-0.238 -0.953,0 -0.953,-0.477 0,-0.238 0.238,-0.238 0.238,-0.238 l 10.002,0 0,-0.001 z"
       id="path6274"
       inkscape:connector-curvature="0"
       style="clip-rule:evenodd;fill-rule:evenodd" /><path
       d="m 359.674,461.152 c 0.238,0 0.238,0 0.238,0.238 l 0,3.096 c 0,0.238 -0.238,0.238 -0.476,0.238 -0.238,-0.477 -0.238,-0.953 -0.477,-1.43 -0.477,-0.715 -1.19,-0.951 -1.905,-0.951 l -3.572,0 c -0.238,0 -0.477,0 -0.477,0.236 l -0.237,0.477 0,10.479 c 0,1.43 0,2.857 0.237,4.287 0,0.238 0.238,0.477 0.477,0.715 0.239,0.238 0.715,0.477 0.952,0.715 0.238,0 0.238,0 0.238,0.236 l -0.238,0 -5.477,0 c -0.238,0 -0.238,-0.236 -0.238,-0.475 0.477,0 1.19,-0.238 1.429,-0.715 0.238,-0.238 0.238,-0.715 0.238,-1.191 l 0,-13.336 c 0,-0.477 0.238,-1.191 -0.238,-1.428 l -0.477,0 c -1.429,-0.238 -3.096,-0.238 -4.286,0.236 -0.952,0.238 -1.19,1.191 -1.429,1.906 0,0 0,0.238 -0.238,0.238 0,0 0,0 0,-0.238 l 0,-3.096 c 0,-0.238 0,-0.238 0.238,-0.238 l 15.718,0 0,10e-4 z"
       id="path6276"
       inkscape:connector-curvature="0"
       style="clip-rule:evenodd;fill-rule:evenodd" /><path
       d="m 340.623,461.152 0,0.238 c 0,0.238 -0.238,0 -0.477,0.238 -0.714,0.238 -0.952,0.951 -0.952,1.666 l 0,0.477 0,12.859 c 0.238,0.715 0,1.906 0.952,2.383 0.238,0.238 0.477,0 0.715,0.238 0,0.236 -0.238,0.236 -0.238,0.236 -1.667,-0.236 -3.334,0 -4.763,0 -0.238,0 -0.238,0 -0.238,-0.236 0.238,-0.238 0.477,-0.238 0.714,-0.477 0.238,0 0.477,-0.238 0.477,-0.477 l 0,-0.953 0.238,-13.813 c -0.238,-0.715 -0.238,-1.428 -0.715,-1.666 -0.237,-0.238 -0.714,-0.238 -0.714,-0.477 0,-0.239 0,-0.238 0,-0.238 0.952,0 1.905,0.238 3.096,0 0.476,0.002 1.19,0.002 1.905,0.002 l 0,0 z"
       id="path6278"
       inkscape:connector-curvature="0"
       style="clip-rule:evenodd;fill-rule:evenodd" /><path
       d="m 299.187,461.391 c 0.238,0.715 0,1.428 0,2.143 0,0.238 0,0.238 0,0.238 -0.477,-0.238 -0.477,-0.715 -0.953,-0.953 -1.429,-0.951 -3.096,-0.475 -4.763,-0.475 0,0 -0.477,0 -0.715,0 -0.238,0 -0.238,0.236 -0.238,0.236 -0.238,0 -0.238,4.287 -0.238,6.432 l 0.238,0 5.477,0 c 0.238,0 0.477,-0.238 0.714,-0.477 0,0 -0.238,-0.238 0,-0.238 0,0 0.238,-0.238 0.238,0 l 0.238,0 c -0.238,1.189 -0.238,2.143 -0.238,3.096 0,0 0,0 -0.238,0 -0.238,-0.715 -0.952,-1.191 -1.905,-0.953 -1.429,0 -2.857,-0.238 -4.524,0 l 0,0.238 c 0,1.906 0,3.334 0,5.477 0,0.477 0.238,1.191 0.714,1.668 0.953,0.715 2.381,0.477 3.572,0.477 0.952,0 2.143,0 2.62,-0.715 0.476,-0.477 0.238,-0.953 0.714,-1.43 0,0 0.238,0 0.238,0.238 0,0.953 0,2.145 0,3.096 l -0.238,0 -9.764,0 c -0.476,0 -1.19,0.238 -1.429,0 -0.238,0 -0.238,-0.236 0,-0.236 0.238,-0.238 0.715,-0.238 0.953,-0.715 0.238,-0.238 0.238,-0.477 0.238,-0.715 l 0,-5.715 c 0.238,-2.859 0.476,-6.191 0,-9.051 -0.238,-0.477 -0.238,-1.189 -0.714,-1.189 -0.238,-0.238 -0.477,-0.238 -0.477,-0.477 0,0 -0.238,0 0,-0.238 l 0,0 c 3.334,0 6.668,0 9.764,0 0.477,-0.001 0.716,-0.001 0.716,0.238 l 0,0 z"
       id="path6280"
       inkscape:connector-curvature="0"
       style="clip-rule:evenodd;fill-rule:evenodd" /><path
       d="m 285.851,461.152 c 0.238,0 0.238,0.238 0.238,0.238 -0.476,0.477 -1.19,0.477 -1.429,1.189 -2.381,5.717 -4.763,11.432 -7.382,17.385 0,0 0,0 -0.238,0 l -1.667,-3.572 -6.43,-14.049 c -0.476,-0.477 -0.953,-0.477 -1.429,-0.715 -0.238,0 -0.238,-0.238 -0.238,-0.238 0,0 0,0 0,-0.238 0.238,0 0.238,0 0.238,0 0.238,0 0.476,0 0.714,0 1.429,0 2.857,0 4.048,0 0,0 0.238,0 0.238,0.238 0,0.477 -0.714,0.477 -0.714,0.953 l 0,0.236 0,0.238 2.62,5.717 c 0.952,2.143 2.143,4.523 3.096,6.668 0.238,-0.238 0.238,-0.477 0.476,-0.715 1.429,-3.572 2.858,-7.145 4.287,-10.717 0.238,-0.477 0.477,-1.666 -0.238,-1.904 -0.238,-0.238 -0.476,-0.238 -0.476,-0.477 l 0,-0.238 c 1.428,10e-4 2.856,10e-4 4.286,10e-4 l 0,0 z"
       id="path6282"
       inkscape:connector-curvature="0"
       style="clip-rule:evenodd;fill-rule:evenodd" /><path
       d="m 265.608,461.152 c 0.238,0.238 0.238,0.477 0,0.477 -0.238,0.238 -0.714,0.238 -0.953,0.477 -0.476,0.475 -0.238,1.189 -0.238,1.666 0,1.668 -0.238,3.334 -0.238,5.002 l 0,7.857 c 0.238,0.953 0.238,1.668 0.953,2.383 0.238,0 0.476,0 0.714,0.475 0,0 0,0.238 -0.238,0.238 -1.667,-0.238 -3.334,0 -4.763,0 -0.238,0 -0.238,-0.238 -0.238,-0.238 0,-0.475 0.477,-0.236 0.714,-0.475 0.477,0 0.477,-0.477 0.477,-0.715 0.238,-5.002 0.238,-10.24 0.238,-15.242 -0.238,-0.238 -0.238,-0.713 -0.476,-0.951 -0.476,-0.238 -0.953,-0.238 -1.19,-0.477 -0.239,0 0,-0.238 0,-0.238 l 0.238,-0.238 c 1.666,-0.001 3.333,-0.001 5,-0.001 l 0,0 z"
       id="path6284"
       inkscape:connector-curvature="0"
       style="clip-rule:evenodd;fill-rule:evenodd" /><path
       d="m 235.126,461.391 0,0 c 0,0.238 0,0.238 -0.238,0.238 -0.953,0.477 -1.191,1.666 -1.191,2.619 0,2.857 0,6.191 0,9.049 0,1.668 -0.476,3.096 -1.428,4.287 -0.953,1.191 -2.382,1.904 -3.811,2.143 -1.429,0.238 -2.857,0.238 -4.287,0.238 -1.429,-0.238 -2.857,-0.713 -3.81,-1.904 -0.238,0 -0.238,-0.238 -0.238,-0.238 -0.953,-1.191 -1.19,-2.619 -1.429,-4.287 l 0,-10.002 c -0.238,-0.715 -0.238,-1.666 -1.191,-1.904 l 0,-0.238 c 0.238,-0.238 0.477,0 0.714,0 1.429,0 2.858,-0.238 4.287,0 l 0.238,0 c -0.238,0.238 -0.477,0.238 -0.714,0.238 -0.953,0.715 -0.953,2.143 -0.953,3.096 l 0,6.43 c 0,2.381 -0.238,5.715 2.62,6.906 0.476,0.477 1.429,0.238 2.143,0.477 2.144,0 4.525,-0.715 5.715,-2.383 0,-0.475 0.238,-0.951 0.238,-1.428 0.238,-3.334 0,-6.191 0.238,-9.764 -0.238,-0.715 -0.238,-1.191 -0.477,-1.668 0,-0.951 -0.714,-1.428 -1.19,-1.666 -0.238,-0.238 0,-0.238 0.238,-0.238 0.714,0 1.667,0 2.382,0 0.715,-10e-4 1.43,-10e-4 2.144,-10e-4 l 0,0 z"
       id="path6286"
       inkscape:connector-curvature="0"
       style="clip-rule:evenodd;fill-rule:evenodd" /><path
       d="m 319.904,479.252 c -0.952,-0.238 -1.667,-0.715 -2.143,-1.43 -0.953,-1.668 -2.144,-3.096 -3.097,-4.525 -0.476,-0.951 -1.19,-1.666 -1.667,-2.619 0,-0.238 0,-0.477 0,-0.477 l 0.953,-0.238 c 0.952,-0.238 1.905,-1.189 2.381,-2.143 0.477,-1.191 0.238,-2.619 0,-4.049 -0.237,-0.715 -0.952,-1.666 -1.667,-2.143 -0.237,0 -0.476,-0.238 -0.952,-0.238 -0.238,-0.238 -0.715,-0.238 -1.19,-0.238 -2.857,0 -5.239,0 -8.097,0 0,0 -0.239,0 -0.239,0.238 0.239,0.238 0.477,0.238 0.715,0.238 0.476,0.477 0.714,0.951 0.714,1.428 l 0,10.717 0,3.811 c -0.238,0.477 -0.238,0.953 -0.477,1.191 -0.238,0.238 -0.714,0.238 -0.953,0.477 l 0,0.236 c 1.429,0 2.858,-0.236 4.287,0 0.238,0 0.715,0.238 0.953,0 0,-0.236 0,-0.236 0,-0.475 l -0.953,0 c -0.477,-0.238 -0.477,-0.953 -0.477,-1.191 l 0,-6.668 c 0,-0.238 0,-0.238 0,-0.477 0.715,0 1.43,0 1.905,0 0.477,0.238 0.715,0.715 0.953,0.953 1.667,1.904 2.857,4.049 4.286,6.191 0.238,0.715 0.953,1.191 1.429,1.43 0.953,0.475 1.905,0.475 3.097,0.713 l 0.237,-0.238 c 0.002,10e-4 0.002,-0.238 0.002,-0.474 l 0,0 z m -9.763,-10.004 c -0.476,0 -1.19,0 -1.905,-0.236 0,0 0,0 -0.238,0 l 0,-0.477 0,-5.717 c 0.477,-0.475 0.953,-0.238 1.43,-0.238 1.19,0 2.381,-0.236 3.571,0.477 l 0.238,0 0,0.238 c 0.477,0.238 0.477,0.477 0.715,0.953 0.477,0.715 0.238,1.668 0.238,2.381 -0.238,0.953 -0.715,1.668 -1.429,2.145 -0.715,0.238 -1.429,0.474 -2.62,0.474 l 0,0 z"
       id="path6288"
       inkscape:connector-curvature="0"
       style="clip-rule:evenodd;fill-rule:evenodd" /></g></svg>